<svg version="1.1" xmlns="http://www.w3.org/2000/svg" xmlns:xlink="http://www.w3.org/1999/xlink" width="924" height="572"><defs></defs><g><g transform="translate(-10,-10) scale(1,1)"><path fill="none" stroke="#000000" d="M 20 20 L 924 20 L 924 572 L 20 572 L 20 20" stroke-miterlimit="10"></path></g><g transform="translate(-10,-10) scale(1,1)"><path fill="#ffffff" stroke="none" d="M 20 20 L 20 42 L 143 42 L 154 31 L 154 20 L 20 20"></path></g><g transform="translate(-10,-10) scale(1,1)"><path fill="none" stroke="#000000" d="M 20 20 L 20 42 L 143 42 L 154 31 L 154 20 L 20 20 L 20 20" stroke-miterlimit="10"></path></g><g transform="translate(-10,-10) scale(1,1)"><g><path fill="none" stroke="none"></path><text fill="#000000" stroke="none" font-family="Arial" font-size="13px" font-style="normal" font-weight="normal" text-decoration="none" x="71.5" y="37.5">Binlog Dump</text></g></g><g transform="translate(-10,-10) scale(1,1)"><g><path fill="none" stroke="none"></path><text fill="#000000" stroke="none" font-family="Arial" font-size="13px" font-style="normal" font-weight="bold" text-decoration="none" x="19" y="37.5">interaction</text></g></g><g transform="translate(-10,-10) scale(1,1)"><rect fill="#C0C0C0" stroke="none" x="163" y="47" width="72" height="39" opacity="0.2"></rect></g><g transform="translate(-10,-10) scale(1,1)"><rect fill="#ffffff" stroke="none" x="156" y="40" width="72" height="39"></rect></g><g transform="translate(-10,-10) scale(1,1)"><path fill="none" stroke="#000000" d="M 156 40 L 228 40 L 228 79 L 156 79 L 156 40 Z Z" stroke-miterlimit="10"></path></g><g transform="translate(-10,-10) scale(1,1)"><g><path fill="none" stroke="none"></path><text fill="#000000" stroke="none" font-family="Arial" font-size="13px" font-style="normal" font-weight="bold" text-decoration="none" x="175.5" y="59.5">POLL</text></g></g><g transform="translate(-10,-10) scale(1,1)"><path fill="none" stroke="#000000" d="M 193.5 80 L 193.5 512" stroke-miterlimit="10" stroke-dasharray="3"></path></g><g transform="translate(-10,-10) scale(1,1)"><rect fill="#C0C0C0" stroke="none" x="279" y="47" width="72" height="39" opacity="0.2"></rect></g><g transform="translate(-10,-10) scale(1,1)"><rect fill="#ffffff" stroke="none" x="272" y="40" width="72" height="39"></rect></g><g transform="translate(-10,-10) scale(1,1)"><path fill="none" stroke="#000000" d="M 272 40 L 344 40 L 344 79 L 272 79 L 272 40 Z Z" stroke-miterlimit="10"></path></g><g transform="translate(-10,-10) scale(1,1)"><g><path fill="none" stroke="none"></path><text fill="#000000" stroke="none" font-family="Arial" font-size="13px" font-style="normal" font-weight="bold" text-decoration="none" x="294.5" y="59.5">DCB</text></g></g><g transform="translate(-10,-10) scale(1,1)"><path fill="none" stroke="#000000" d="M 309.5 80 L 309.5 516" stroke-miterlimit="10" stroke-dasharray="3"></path></g><g transform="translate(-10,-10) scale(1,1)"><rect fill="#C0C0C0" stroke="none" x="563" y="47" width="73" height="39" opacity="0.2"></rect></g><g transform="translate(-10,-10) scale(1,1)"><rect fill="#ffffff" stroke="none" x="556" y="40" width="73" height="39"></rect></g><g transform="translate(-10,-10) scale(1,1)"><path fill="none" stroke="#000000" d="M 556 40 L 629 40 L 629 79 L 556 79 L 556 40 Z Z" stroke-miterlimit="10"></path></g><g transform="translate(-10,-10) scale(1,1)"><g><path fill="none" stroke="none"></path><text fill="#000000" stroke="none" font-family="Arial" font-size="13px" font-style="normal" font-weight="bold" text-decoration="none" x="565.5" y="59.5">ROUTER</text></g></g><g transform="translate(-10,-10) scale(1,1)"><path fill="none" stroke="#000000" d="M 593.5 80 L 593.5 496" stroke-miterlimit="10" stroke-dasharray="3"></path></g><g transform="translate(-10,-10) scale(1,1)"><rect fill="#C0C0C0" stroke="none" x="403" y="47" width="92" height="39" opacity="0.2"></rect></g><g transform="translate(-10,-10) scale(1,1)"><rect fill="#ffffff" stroke="none" x="396" y="40" width="92" height="39"></rect></g><g transform="translate(-10,-10) scale(1,1)"><path fill="none" stroke="#000000" d="M 396 40 L 488 40 L 488 79 L 396 79 L 396 40 Z Z" stroke-miterlimit="10"></path></g><g transform="translate(-10,-10) scale(1,1)"><g><path fill="none" stroke="none"></path><text fill="#000000" stroke="none" font-family="Arial" font-size="13px" font-style="normal" font-weight="bold" text-decoration="none" x="406" y="59.5">PROTOCOL</text></g></g><g transform="translate(-10,-10) scale(1,1)"><path fill="none" stroke="#000000" d="M 443.5 80 L 443.5 512" stroke-miterlimit="10" stroke-dasharray="3"></path></g><g transform="translate(-10,-10) scale(1,1)"><rect fill="#ffffff" stroke="none" x="40" y="139.5" width="14" height="14"></rect></g><g transform="translate(-10,-10) scale(1,1)"><path fill="none" stroke="#000000" d="M 40 139.5 L 54 139.5 L 54 153.5 L 40 153.5 L 40 139.5 Z Z" stroke-miterlimit="10"></path></g><g transform="translate(-10,-10) scale(1,1)"><rect fill="#C0C0C0" stroke="none" x="835" y="47" width="72" height="39" opacity="0.2"></rect></g><g transform="translate(-10,-10) scale(1,1)"><rect fill="#ffffff" stroke="none" x="828" y="40" width="72" height="39"></rect></g><g transform="translate(-10,-10) scale(1,1)"><path fill="none" stroke="#000000" d="M 828 40 L 900 40 L 900 79 L 828 79 L 828 40 Z Z" stroke-miterlimit="10"></path></g><g transform="translate(-10,-10) scale(1,1)"><g><path fill="none" stroke="none"></path><text fill="#000000" stroke="none" font-family="Arial" font-size="13px" font-style="normal" font-weight="bold" text-decoration="none" x="842" y="59.5">BLFILE</text></g></g><g transform="translate(-10,-10) scale(1,1)"><path fill="none" stroke="#000000" d="M 865.5 80 L 865.5 516" stroke-miterlimit="10" stroke-dasharray="3"></path></g><g transform="translate(-10,-10) scale(1,1)"><path fill="none" stroke="#000000" d="M 54 147 L 186 147" stroke-miterlimit="10"></path></g><g transform="translate(-10,-10) scale(1,1)"><path fill="#000000" stroke="none" d="M 175.83732514237585 151.209517756016 L 186 147 L 175.83732514237585 142.790482243984"></path></g><g transform="translate(-10,-10) scale(1,1)"><path fill="none" stroke="#000000" d="M 175.83732514237585 151.209517756016 L 186 147 L 175.83732514237585 142.790482243984 L 175.83732514237585 151.209517756016" stroke-miterlimit="10"></path></g><g transform="translate(-10,-10) scale(1,1)"><g><path fill="none" stroke="none"></path><text fill="#000000" stroke="none" font-family="Arial" font-size="13px" font-style="normal" font-weight="normal" text-decoration="none" x="87" y="144">1 : POLLIN</text></g></g><g transform="translate(-10,-10) scale(1,1)"><rect fill="#ffffff" stroke="none" x="186" y="147" width="13" height="381"></rect></g><g transform="translate(-10,-10) scale(1,1)"><path fill="none" stroke="#000000" d="M 186 147 L 199 147 L 199 528 L 186 528 L 186 147 Z Z" stroke-miterlimit="10"></path></g><g transform="translate(-10,-10) scale(1,1)"><path fill="none" stroke="#000000" d="M 199 161 L 302 161" stroke-miterlimit="10"></path></g><g transform="translate(-10,-10) scale(1,1)"><path fill="#000000" stroke="none" d="M 291.83732514237585 165.209517756016 L 302 161 L 291.83732514237585 156.790482243984"></path></g><g transform="translate(-10,-10) scale(1,1)"><path fill="none" stroke="#000000" d="M 291.83732514237585 165.209517756016 L 302 161 L 291.83732514237585 156.790482243984 L 291.83732514237585 165.209517756016" stroke-miterlimit="10"></path></g><g transform="translate(-10,-10) scale(1,1)"><g><path fill="none" stroke="none"></path><text fill="#000000" stroke="none" font-family="Arial" font-size="13px" font-style="normal" font-weight="normal" text-decoration="none" x="228" y="158">2 : read</text></g></g><g transform="translate(-10,-10) scale(1,1)"><rect fill="#ffffff" stroke="none" x="302" y="161" width="13" height="347"></rect></g><g transform="translate(-10,-10) scale(1,1)"><path fill="none" stroke="#000000" d="M 302 161 L 315 161 L 315 508 L 302 508 L 302 161 Z Z" stroke-miterlimit="10"></path></g><g transform="translate(-10,-10) scale(1,1)"><path fill="none" stroke="#000000" d="M 315 180 L 436 180" stroke-miterlimit="10"></path></g><g transform="translate(-10,-10) scale(1,1)"><path fill="#000000" stroke="none" d="M 425.83732514237585 184.209517756016 L 436 180 L 425.83732514237585 175.790482243984"></path></g><g transform="translate(-10,-10) scale(1,1)"><path fill="none" stroke="#000000" d="M 425.83732514237585 184.209517756016 L 436 180 L 425.83732514237585 175.790482243984 L 425.83732514237585 184.209517756016" stroke-miterlimit="10"></path></g><g transform="translate(-10,-10) scale(1,1)"><g><path fill="none" stroke="none"></path><text fill="#000000" stroke="none" font-family="Arial" font-size="13px" font-style="normal" font-weight="normal" text-decoration="none" x="353" y="177">3 : read</text></g></g><g transform="translate(-10,-10) scale(1,1)"><rect fill="#ffffff" stroke="none" x="436" y="180" width="13" height="312"></rect></g><g transform="translate(-10,-10) scale(1,1)"><path fill="none" stroke="#000000" d="M 436 180 L 449 180 L 449 492 L 436 492 L 436 180 Z Z" stroke-miterlimit="10"></path></g><g transform="translate(-10,-10) scale(1,1)"><path fill="none" stroke="#000000" d="M 449 192 L 586 192" stroke-miterlimit="10"></path></g><g transform="translate(-10,-10) scale(1,1)"><path fill="#000000" stroke="none" d="M 575.8373251423759 196.209517756016 L 586 192 L 575.8373251423758 187.790482243984"></path></g><g transform="translate(-10,-10) scale(1,1)"><path fill="none" stroke="#000000" d="M 575.8373251423759 196.209517756016 L 586 192 L 575.8373251423758 187.790482243984 L 575.8373251423759 196.209517756016" stroke-miterlimit="10"></path></g><g transform="translate(-10,-10) scale(1,1)"><g><path fill="none" stroke="none"></path><text fill="#000000" stroke="none" font-family="Arial" font-size="13px" font-style="normal" font-weight="normal" text-decoration="none" x="472" y="189">4 : clientReplay</text></g></g><g transform="translate(-10,-10) scale(1,1)"><rect fill="#ffffff" stroke="none" x="586" y="192" width="13" height="292"></rect></g><g transform="translate(-10,-10) scale(1,1)"><path fill="none" stroke="#000000" d="M 586 192 L 599 192 L 599 484 L 586 484 L 586 192 Z Z" stroke-miterlimit="10"></path></g><g transform="translate(-10,-10) scale(1,1)"><path fill="none" stroke="#000000" d="M 599 216 L 629 216 L 629 236 L 606 236" stroke-miterlimit="10"></path></g><g transform="translate(-10,-10) scale(1,1)"><path fill="#000000" stroke="none" d="M 616.1626748576241 231.790482243984 L 606 236 L 616.1626748576241 240.209517756016"></path></g><g transform="translate(-10,-10) scale(1,1)"><path fill="none" stroke="#000000" d="M 616.1626748576241 231.790482243984 L 606 236 L 616.1626748576241 240.209517756016 L 616.1626748576241 231.790482243984" stroke-miterlimit="10"></path></g><g transform="translate(-10,-10) scale(1,1)"><g><path fill="none" stroke="none"></path><text fill="#000000" stroke="none" font-family="Arial" font-size="13px" font-style="normal" font-weight="normal" text-decoration="none" x="607" y="213">5 : blr_master_response</text></g></g><g transform="translate(-10,-10) scale(1,1)"><rect fill="#ffffff" stroke="none" x="593" y="236" width="13" height="228"></rect></g><g transform="translate(-10,-10) scale(1,1)"><path fill="none" stroke="#000000" d="M 593 236 L 606 236 L 606 464 L 593 464 L 593 236 Z Z" stroke-miterlimit="10"></path></g><g transform="translate(-10,-10) scale(1,1)"><path fill="none" stroke="#000000" d="M 606 272 L 636 272 L 636 292 L 613 292" stroke-miterlimit="10"></path></g><g transform="translate(-10,-10) scale(1,1)"><path fill="#000000" stroke="none" d="M 623.1626748576241 287.790482243984 L 613 292 L 623.1626748576241 296.209517756016"></path></g><g transform="translate(-10,-10) scale(1,1)"><path fill="none" stroke="#000000" d="M 623.1626748576241 287.790482243984 L 613 292 L 623.1626748576241 296.209517756016 L 623.1626748576241 287.790482243984" stroke-miterlimit="10"></path></g><g transform="translate(-10,-10) scale(1,1)"><g><path fill="none" stroke="none"></path><text fill="#000000" stroke="none" font-family="Arial" font-size="13px" font-style="normal" font-weight="normal" text-decoration="none" x="607" y="261">6 : blr_handle_binlog_record</text></g></g><g transform="translate(-10,-10) scale(1,1)"><rect fill="#ffffff" stroke="none" x="600" y="292" width="13" height="152"></rect></g><g transform="translate(-10,-10) scale(1,1)"><path fill="none" stroke="#000000" d="M 600 292 L 613 292 L 613 444 L 600 444 L 600 292 Z Z" stroke-miterlimit="10"></path></g><g transform="translate(-10,-10) scale(1,1)"><path fill="none" stroke="#000000" d="M 613 314 L 858 314" stroke-miterlimit="10"></path></g><g transform="translate(-10,-10) scale(1,1)"><path fill="#000000" stroke="none" d="M 847.8373251423759 318.209517756016 L 858 314 L 847.8373251423758 309.790482243984"></path></g><g transform="translate(-10,-10) scale(1,1)"><path fill="none" stroke="#000000" d="M 847.8373251423759 318.209517756016 L 858 314 L 847.8373251423758 309.790482243984 L 847.8373251423759 318.209517756016" stroke-miterlimit="10"></path></g><g transform="translate(-10,-10) scale(1,1)"><g><path fill="none" stroke="none"></path><text fill="#000000" stroke="none" font-family="Arial" font-size="13px" font-style="normal" font-weight="normal" text-decoration="none" x="662" y="311">7 : blr_write_binlog_event</text></g></g><g transform="translate(-10,-10) scale(1,1)"><rect fill="#ffffff" stroke="none" x="858" y="314" width="13" height="28"></rect></g><g transform="translate(-10,-10) scale(1,1)"><path fill="none" stroke="#000000" d="M 858 314 L 871 314 L 871 342 L 858 342 L 858 314 Z Z" stroke-miterlimit="10"></path></g><g transform="translate(-10,-10) scale(1,1)"><path fill="none" stroke="#000000" d="M 613 376 L 643 376 L 643 396 L 620 396" stroke-miterlimit="10"></path></g><g transform="translate(-10,-10) scale(1,1)"><path fill="#000000" stroke="none" d="M 630.1626748576241 391.790482243984 L 620 396 L 630.1626748576241 400.209517756016"></path></g><g transform="translate(-10,-10) scale(1,1)"><path fill="none" stroke="#000000" d="M 630.1626748576241 391.790482243984 L 620 396 L 630.1626748576241 400.209517756016 L 630.1626748576241 391.790482243984" stroke-miterlimit="10"></path></g><g transform="translate(-10,-10) scale(1,1)"><g><path fill="none" stroke="none"></path><text fill="#000000" stroke="none" font-family="Arial" font-size="13px" font-style="normal" font-weight="normal" text-decoration="none" x="624" y="369">8 : blr_distribute_binlog_record</text></g></g><g transform="translate(-10,-10) scale(1,1)"><rect fill="#ffffff" stroke="none" x="607" y="396" width="13" height="28"></rect></g><g transform="translate(-10,-10) scale(1,1)"><path fill="none" stroke="#000000" d="M 607 396 L 620 396 L 620 424 L 607 424 L 607 396 Z Z" stroke-miterlimit="10"></path></g></g></svg>