<svg version="1.1" xmlns="http://www.w3.org/2000/svg" xmlns:xlink="http://www.w3.org/1999/xlink" width="553" height="425"><defs></defs><g><g transform="translate(-226,-206) scale(1,1)"><rect fill="#C0C0C0" stroke="none" x="243" y="223" width="118" height="145" opacity="0.2"></rect></g><g transform="translate(-226,-206) scale(1,1)"><rect fill="#ffffff" stroke="none" x="236" y="216" width="118" height="145"></rect></g><g transform="translate(-226,-206) scale(1,1)"><path fill="none" stroke="#000000" d="M 236 216 L 354 216 L 354 361 L 236 361 L 236 216 Z Z" stroke-miterlimit="10"></path></g><g transform="translate(-226,-206) scale(1,1)"><path fill="none" stroke="#000000" d="M 236 241 L 354 241" stroke-miterlimit="10"></path></g><g transform="translate(-226,-206) scale(1,1)"><path fill="none" stroke="#000000" d="M 236 309 L 354 309" stroke-miterlimit="10"></path></g><g transform="translate(-226,-206) scale(1,1)"><g><path fill="none" stroke="none"></path><text fill="#000000" stroke="none" font-family="Arial" font-size="13px" font-style="normal" font-weight="bold" text-decoration="none" x="273" y="235.5">BLFILE</text></g></g><g transform="translate(-226,-206) scale(1,1)"><g><path fill="none" stroke="none"></path><text fill="#000000" stroke="none" font-family="Arial" font-size="13px" font-style="normal" font-weight="normal" text-decoration="none" x="241" y="258.5">+binlogname</text></g></g><g transform="translate(-226,-206) scale(1,1)"><g><path fill="none" stroke="none"></path><text fill="#000000" stroke="none" font-family="Arial" font-size="13px" font-style="normal" font-weight="normal" text-decoration="none" x="241" y="273.5">+fd</text></g></g><g transform="translate(-226,-206) scale(1,1)"><g><path fill="none" stroke="none"></path><text fill="#000000" stroke="none" font-family="Arial" font-size="13px" font-style="normal" font-weight="normal" text-decoration="none" x="241" y="288.5">+refcnt</text></g></g><g transform="translate(-226,-206) scale(1,1)"><g><path fill="none" stroke="none"></path><text fill="#000000" stroke="none" font-family="Arial" font-size="13px" font-style="normal" font-weight="normal" text-decoration="none" x="241" y="303.5">+lock</text></g></g><g transform="translate(-226,-206) scale(1,1)"><g><path fill="none" stroke="none"></path><text fill="#000000" stroke="none" font-family="Arial" font-size="13px" font-style="normal" font-weight="normal" text-decoration="none" x="241" y="326.5">+blr_open_binlog()</text></g></g><g transform="translate(-226,-206) scale(1,1)"><g><path fill="none" stroke="none"></path><text fill="#000000" stroke="none" font-family="Arial" font-size="13px" font-style="normal" font-weight="normal" text-decoration="none" x="241" y="341.5">+blr_read_binlog()</text></g></g><g transform="translate(-226,-206) scale(1,1)"><g><path fill="none" stroke="none"></path><text fill="#000000" stroke="none" font-family="Arial" font-size="13px" font-style="normal" font-weight="normal" text-decoration="none" x="241" y="356.5">+blr_close_binlog()</text></g></g><g transform="translate(-226,-206) scale(1,1)"><rect fill="#C0C0C0" stroke="none" x="455" y="423" width="73" height="87" opacity="0.2"></rect></g><g transform="translate(-226,-206) scale(1,1)"><rect fill="#ffffff" stroke="none" x="448" y="416" width="73" height="87"></rect></g><g transform="translate(-226,-206) scale(1,1)"><path fill="none" stroke="#000000" d="M 448 416 L 521 416 L 521 503 L 448 503 L 448 416 Z Z" stroke-miterlimit="10"></path></g><g transform="translate(-226,-206) scale(1,1)"><path fill="none" stroke="#000000" d="M 448 441 L 521 441" stroke-miterlimit="10"></path></g><g transform="translate(-226,-206) scale(1,1)"><path fill="none" stroke="#000000" d="M 448 494 L 521 494" stroke-miterlimit="10"></path></g><g transform="translate(-226,-206) scale(1,1)"><g><path fill="none" stroke="none"></path><text fill="#000000" stroke="none" font-family="Arial" font-size="13px" font-style="normal" font-weight="bold" text-decoration="none" x="454" y="435.5">BLCACHE</text></g></g><g transform="translate(-226,-206) scale(1,1)"><g><path fill="none" stroke="none"></path><text fill="#000000" stroke="none" font-family="Arial" font-size="13px" font-style="normal" font-weight="normal" text-decoration="none" x="453" y="458.5">+current</text></g></g><g transform="translate(-226,-206) scale(1,1)"><g><path fill="none" stroke="none"></path><text fill="#000000" stroke="none" font-family="Arial" font-size="13px" font-style="normal" font-weight="normal" text-decoration="none" x="453" y="473.5">+cnt</text></g></g><g transform="translate(-226,-206) scale(1,1)"><g><path fill="none" stroke="none"></path><text fill="#000000" stroke="none" font-family="Arial" font-size="13px" font-style="normal" font-weight="normal" text-decoration="none" x="453" y="488.5">+lock</text></g></g><g transform="translate(-226,-206) scale(1,1)"><path fill="none" stroke="#000000" d="M 447 425.5238095238095 L 355 342.2857142857143" stroke-miterlimit="10"></path></g><g transform="translate(-226,-206) scale(1,1)"><path fill="#FFFFFF" stroke="none" d="M 365.36020856852565 345.9824802259177 L 355 342.2857142857143 L 359.71176546853417 352.225496283803 L 371.313787140723 357.04580741303505"></path></g><g transform="translate(-226,-206) scale(1,1)"><path fill="none" stroke="#000000" d="M 365.36020856852565 345.9824802259177 L 355 342.2857142857143 L 359.71176546853417 352.225496283803 L 371.313787140723 357.04580741303505 L 365.36020856852565 345.9824802259177" stroke-miterlimit="10"></path></g><g transform="translate(-226,-206) scale(1,1)"><path fill="none" stroke="#000000" d="M 436.63979143147435 421.8270435836061 L 447 425.5238095238095 L 442.28823453146583 415.5840275257208" stroke-miterlimit="10"></path></g><g transform="translate(-226,-206) scale(1,1)"><g><path fill="none" stroke="none"></path><text fill="#000000" stroke="none" font-family="Arial" font-size="13px" font-style="normal" font-weight="normal" text-decoration="none" x="360" y="401">+cache</text></g></g><g transform="translate(-226,-206) scale(1,1)"><g><path fill="none" stroke="none"></path><text fill="#000000" stroke="none" font-family="Arial" font-size="13px" font-style="normal" font-weight="normal" text-decoration="none" x="436" y="408.5238095238095">1</text></g></g><g transform="translate(-226,-206) scale(1,1)"><g><path fill="none" stroke="none"></path><text fill="#000000" stroke="none" font-family="Arial" font-size="13px" font-style="normal" font-weight="normal" text-decoration="none" x="376" y="354.2857142857143">1</text></g></g><g transform="translate(-226,-206) scale(1,1)"><rect fill="#C0C0C0" stroke="none" x="547" y="279" width="133" height="57" opacity="0.2"></rect></g><g transform="translate(-226,-206) scale(1,1)"><rect fill="#ffffff" stroke="none" x="540" y="272" width="133" height="57"></rect></g><g transform="translate(-226,-206) scale(1,1)"><path fill="none" stroke="#000000" d="M 540 272 L 673 272 L 673 329 L 540 329 L 540 272 Z Z" stroke-miterlimit="10"></path></g><g transform="translate(-226,-206) scale(1,1)"><path fill="none" stroke="#000000" d="M 540 297 L 673 297" stroke-miterlimit="10"></path></g><g transform="translate(-226,-206) scale(1,1)"><path fill="none" stroke="#000000" d="M 540 320 L 673 320" stroke-miterlimit="10"></path></g><g transform="translate(-226,-206) scale(1,1)"><g><path fill="none" stroke="none"></path><text fill="#000000" stroke="none" font-family="Arial" font-size="13px" font-style="normal" font-weight="bold" text-decoration="none" x="545" y="291.5">BLCACHE_RECORD</text></g></g><g transform="translate(-226,-206) scale(1,1)"><g><path fill="none" stroke="none"></path><text fill="#000000" stroke="none" font-family="Arial" font-size="13px" font-style="normal" font-weight="normal" text-decoration="none" x="545" y="314.5">+position</text></g></g><g transform="translate(-226,-206) scale(1,1)"><rect fill="#C0C0C0" stroke="none" x="571" y="451" width="97" height="177" opacity="0.2"></rect></g><g transform="translate(-226,-206) scale(1,1)"><rect fill="#ffffff" stroke="none" x="564" y="444" width="97" height="177"></rect></g><g transform="translate(-226,-206) scale(1,1)"><path fill="none" stroke="#000000" d="M 564 444 L 661 444 L 661 621 L 564 621 L 564 444 Z Z" stroke-miterlimit="10"></path></g><g transform="translate(-226,-206) scale(1,1)"><path fill="none" stroke="#000000" d="M 564 469 L 661 469" stroke-miterlimit="10"></path></g><g transform="translate(-226,-206) scale(1,1)"><path fill="none" stroke="#000000" d="M 564 612 L 661 612" stroke-miterlimit="10"></path></g><g transform="translate(-226,-206) scale(1,1)"><g><path fill="none" stroke="none"></path><text fill="#000000" stroke="none" font-family="Arial" font-size="13px" font-style="normal" font-weight="bold" text-decoration="none" x="568.5" y="463.5">REP_HEADER</text></g></g><g transform="translate(-226,-206) scale(1,1)"><g><path fill="none" stroke="none"></path><text fill="#000000" stroke="none" font-family="Arial" font-size="13px" font-style="normal" font-weight="normal" text-decoration="none" x="569" y="486.5">+payload_len</text></g></g><g transform="translate(-226,-206) scale(1,1)"><g><path fill="none" stroke="none"></path><text fill="#000000" stroke="none" font-family="Arial" font-size="13px" font-style="normal" font-weight="normal" text-decoration="none" x="569" y="501.5">+seqno</text></g></g><g transform="translate(-226,-206) scale(1,1)"><g><path fill="none" stroke="none"></path><text fill="#000000" stroke="none" font-family="Arial" font-size="13px" font-style="normal" font-weight="normal" text-decoration="none" x="569" y="516.5">+ok</text></g></g><g transform="translate(-226,-206) scale(1,1)"><g><path fill="none" stroke="none"></path><text fill="#000000" stroke="none" font-family="Arial" font-size="13px" font-style="normal" font-weight="normal" text-decoration="none" x="569" y="531.5">+timestamp</text></g></g><g transform="translate(-226,-206) scale(1,1)"><g><path fill="none" stroke="none"></path><text fill="#000000" stroke="none" font-family="Arial" font-size="13px" font-style="normal" font-weight="normal" text-decoration="none" x="569" y="546.5">+event_type</text></g></g><g transform="translate(-226,-206) scale(1,1)"><g><path fill="none" stroke="none"></path><text fill="#000000" stroke="none" font-family="Arial" font-size="13px" font-style="normal" font-weight="normal" text-decoration="none" x="569" y="561.5">+serverid</text></g></g><g transform="translate(-226,-206) scale(1,1)"><g><path fill="none" stroke="none"></path><text fill="#000000" stroke="none" font-family="Arial" font-size="13px" font-style="normal" font-weight="normal" text-decoration="none" x="569" y="576.5">+event_size</text></g></g><g transform="translate(-226,-206) scale(1,1)"><g><path fill="none" stroke="none"></path><text fill="#000000" stroke="none" font-family="Arial" font-size="13px" font-style="normal" font-weight="normal" text-decoration="none" x="569" y="591.5">+next_pos</text></g></g><g transform="translate(-226,-206) scale(1,1)"><g><path fill="none" stroke="none"></path><text fill="#000000" stroke="none" font-family="Arial" font-size="13px" font-style="normal" font-weight="normal" text-decoration="none" x="569" y="606.5">+flags</text></g></g><g transform="translate(-226,-206) scale(1,1)"><rect fill="#C0C0C0" stroke="none" x="719" y="383" width="57" height="44" opacity="0.2"></rect></g><g transform="translate(-226,-206) scale(1,1)"><rect fill="#ffffff" stroke="none" x="712" y="376" width="57" height="44"></rect></g><g transform="translate(-226,-206) scale(1,1)"><path fill="none" stroke="#000000" d="M 712 376 L 769 376 L 769 420 L 712 420 L 712 376 Z Z" stroke-miterlimit="10"></path></g><g transform="translate(-226,-206) scale(1,1)"><path fill="none" stroke="#000000" d="M 712 401 L 769 401" stroke-miterlimit="10"></path></g><g transform="translate(-226,-206) scale(1,1)"><path fill="none" stroke="#000000" d="M 712 411 L 769 411" stroke-miterlimit="10"></path></g><g transform="translate(-226,-206) scale(1,1)"><g><path fill="none" stroke="none"></path><text fill="#000000" stroke="none" font-family="Arial" font-size="13px" font-style="normal" font-weight="bold" text-decoration="none" x="716.5" y="395.5">GWBUF</text></g></g><g transform="translate(-226,-206) scale(1,1)"><path fill="none" stroke="#000000" d="M 582.9811320754717 330 L 517.7610062893082 415" stroke-miterlimit="10"></path></g><g transform="translate(-226,-206) scale(1,1)"><path fill="#FFFFFF" stroke="none" d="M 520.6078058548751 404.3747596623188 L 517.7610062893082 415 L 527.2871770613107 409.49981178298003 L 531.1534128771425 397.5459619060192"></path></g><g transform="translate(-226,-206) scale(1,1)"><path fill="none" stroke="#000000" d="M 520.6078058548751 404.3747596623188 L 517.7610062893082 415 L 527.2871770613107 409.49981178298003 L 531.1534128771425 397.5459619060192 L 520.6078058548751 404.3747596623188" stroke-miterlimit="10"></path></g><g transform="translate(-226,-206) scale(1,1)"><path fill="none" stroke="#000000" d="M 580.1343325099048 340.6252403376812 L 582.9811320754717 330 L 573.4549613034692 335.50018821701997" stroke-miterlimit="10"></path></g><g transform="translate(-226,-206) scale(1,1)"><g><path fill="none" stroke="none"></path><text fill="#000000" stroke="none" font-family="Arial" font-size="13px" font-style="normal" font-weight="normal" text-decoration="none" x="537" y="387">+records</text></g></g><g transform="translate(-226,-206) scale(1,1)"><g><path fill="none" stroke="none"></path><text fill="#000000" stroke="none" font-family="Arial" font-size="13px" font-style="normal" font-weight="normal" text-decoration="none" x="555.9811320754717" y="346">1</text></g></g><g transform="translate(-226,-206) scale(1,1)"><g><path fill="none" stroke="none"></path><text fill="#000000" stroke="none" font-family="Arial" font-size="13px" font-style="normal" font-weight="normal" text-decoration="none" x="518.7610062893082" y="397">*</text></g></g><g transform="translate(-226,-206) scale(1,1)"><path fill="none" stroke="#000000" d="M 711 376.7910447761194 L 647.0204081632653 330" stroke-miterlimit="10"></path></g><g transform="translate(-226,-206) scale(1,1)"><path fill="#000000" stroke="none" d="M 657.7083744584802 332.6014181656073 L 647.0204081632653 330 L 652.7384611821021 339.3970138700425 L 664.7781555066413 342.9870092511257"></path></g><g transform="translate(-226,-206) scale(1,1)"><path fill="none" stroke="#000000" d="M 657.7083744584802 332.6014181656073 L 647.0204081632653 330 L 652.7384611821021 339.3970138700425 L 664.7781555066413 342.9870092511257 L 657.7083744584802 332.6014181656073" stroke-miterlimit="10"></path></g><g transform="translate(-226,-206) scale(1,1)"><path fill="none" stroke="#000000" d="M 700.3120337047851 374.1896266105121 L 711 376.7910447761194 L 705.2819469811632 367.3940309060769" stroke-miterlimit="10"></path></g><g transform="translate(-226,-206) scale(1,1)"><g><path fill="none" stroke="none"></path><text fill="#000000" stroke="none" font-family="Arial" font-size="13px" font-style="normal" font-weight="normal" text-decoration="none" x="657" y="372">+pkt</text></g></g><g transform="translate(-226,-206) scale(1,1)"><g><path fill="none" stroke="none"></path><text fill="#000000" stroke="none" font-family="Arial" font-size="13px" font-style="normal" font-weight="normal" text-decoration="none" x="697" y="360.7910447761194">1</text></g></g><g transform="translate(-226,-206) scale(1,1)"><g><path fill="none" stroke="none"></path><text fill="#000000" stroke="none" font-family="Arial" font-size="13px" font-style="normal" font-weight="normal" text-decoration="none" x="668.0204081632653" y="339">1</text></g></g><g transform="translate(-226,-206) scale(1,1)"><path fill="none" stroke="#000000" d="M 609.698275862069 443 L 606.7758620689655 330" stroke-miterlimit="10"></path></g><g transform="translate(-226,-206) scale(1,1)"><path fill="#000000" stroke="none" d="M 611.2467127162952 340.0504474770664 L 606.7758620689655 330 L 602.8304913143717 340.26810837539205 L 607.3446374062734 351.9926463759064"></path></g><g transform="translate(-226,-206) scale(1,1)"><path fill="none" stroke="#000000" d="M 611.2467127162952 340.0504474770664 L 606.7758620689655 330 L 602.8304913143717 340.26810837539205 L 607.3446374062734 351.9926463759064 L 611.2467127162952 340.0504474770664" stroke-miterlimit="10"></path></g><g transform="translate(-226,-206) scale(1,1)"><path fill="none" stroke="#000000" d="M 605.2274252147392 432.9495525229336 L 609.698275862069 443 L 613.6436466166627 432.73189162460795" stroke-miterlimit="10"></path></g><g transform="translate(-226,-206) scale(1,1)"><g><path fill="none" stroke="none"></path><text fill="#000000" stroke="none" font-family="Arial" font-size="13px" font-style="normal" font-weight="normal" text-decoration="none" x="611" y="416">+hdr</text></g></g><g transform="translate(-226,-206) scale(1,1)"><g><path fill="none" stroke="none"></path><text fill="#000000" stroke="none" font-family="Arial" font-size="13px" font-style="normal" font-weight="normal" text-decoration="none" x="617.698275862069" y="428">1</text></g></g><g transform="translate(-226,-206) scale(1,1)"><g><path fill="none" stroke="none"></path><text fill="#000000" stroke="none" font-family="Arial" font-size="13px" font-style="normal" font-weight="normal" text-decoration="none" x="616.7758620689655" y="358">1</text></g></g></g></svg>