<svg version="1.1" xmlns="http://www.w3.org/2000/svg" xmlns:xlink="http://www.w3.org/1999/xlink" width="117" height="197"><defs></defs><g><g transform="translate(-238,-190) scale(1,1)"><rect fill="#C0C0C0" stroke="none" x="255" y="207" width="97" height="177" opacity="0.2"></rect></g><g transform="translate(-238,-190) scale(1,1)"><rect fill="#ffffff" stroke="none" x="248" y="200" width="97" height="177"></rect></g><g transform="translate(-238,-190) scale(1,1)"><path fill="none" stroke="#000000" d="M 248 200 L 345 200 L 345 377 L 248 377 L 248 200 Z Z" stroke-miterlimit="10"></path></g><g transform="translate(-238,-190) scale(1,1)"><path fill="none" stroke="#000000" d="M 248 225 L 345 225" stroke-miterlimit="10"></path></g><g transform="translate(-238,-190) scale(1,1)"><path fill="none" stroke="#000000" d="M 248 368 L 345 368" stroke-miterlimit="10"></path></g><g transform="translate(-238,-190) scale(1,1)"><g><path fill="none" stroke="none"></path><text fill="#000000" stroke="none" font-family="Arial" font-size="13px" font-style="normal" font-weight="bold" text-decoration="none" x="252.5" y="219.5">REP_HEADER</text></g></g><g transform="translate(-238,-190) scale(1,1)"><g><path fill="none" stroke="none"></path><text fill="#000000" stroke="none" font-family="Arial" font-size="13px" font-style="normal" font-weight="normal" text-decoration="none" x="253" y="242.5">+payload_len</text></g></g><g transform="translate(-238,-190) scale(1,1)"><g><path fill="none" stroke="none"></path><text fill="#000000" stroke="none" font-family="Arial" font-size="13px" font-style="normal" font-weight="normal" text-decoration="none" x="253" y="257.5">+seqno</text></g></g><g transform="translate(-238,-190) scale(1,1)"><g><path fill="none" stroke="none"></path><text fill="#000000" stroke="none" font-family="Arial" font-size="13px" font-style="normal" font-weight="normal" text-decoration="none" x="253" y="272.5">+ok</text></g></g><g transform="translate(-238,-190) scale(1,1)"><g><path fill="none" stroke="none"></path><text fill="#000000" stroke="none" font-family="Arial" font-size="13px" font-style="normal" font-weight="normal" text-decoration="none" x="253" y="287.5">+timestamp</text></g></g><g transform="translate(-238,-190) scale(1,1)"><g><path fill="none" stroke="none"></path><text fill="#000000" stroke="none" font-family="Arial" font-size="13px" font-style="normal" font-weight="normal" text-decoration="none" x="253" y="302.5">+event_type</text></g></g><g transform="translate(-238,-190) scale(1,1)"><g><path fill="none" stroke="none"></path><text fill="#000000" stroke="none" font-family="Arial" font-size="13px" font-style="normal" font-weight="normal" text-decoration="none" x="253" y="317.5">+serverid</text></g></g><g transform="translate(-238,-190) scale(1,1)"><g><path fill="none" stroke="none"></path><text fill="#000000" stroke="none" font-family="Arial" font-size="13px" font-style="normal" font-weight="normal" text-decoration="none" x="253" y="332.5">+event_size</text></g></g><g transform="translate(-238,-190) scale(1,1)"><g><path fill="none" stroke="none"></path><text fill="#000000" stroke="none" font-family="Arial" font-size="13px" font-style="normal" font-weight="normal" text-decoration="none" x="253" y="347.5">+next_pos</text></g></g><g transform="translate(-238,-190) scale(1,1)"><g><path fill="none" stroke="none"></path><text fill="#000000" stroke="none" font-family="Arial" font-size="13px" font-style="normal" font-weight="normal" text-decoration="none" x="253" y="362.5">+flags</text></g></g></g></svg>