<svg version="1.1" xmlns="http://www.w3.org/2000/svg" xmlns:xlink="http://www.w3.org/1999/xlink" width="782" height="497"><defs></defs><g><g transform="translate(-82,-156) scale(1,1)"><path fill="#C0C0C0" stroke="none" d="M 99 196.5 C 99 191.2532944 103.2532944 187 108.5 187 C 113.7467056 187 118 191.2532944 118 196.5 C 118 201.7467056 113.7467056 206 108.5 206 C 103.2532944 206 99 201.7467056 99 196.5 Z" opacity="0.2"></path></g><g transform="translate(-82,-156) scale(1,1)"><path fill="#000000" stroke="none" d="M 92 189.5 C 92 184.2532944 96.2532944 180 101.5 180 C 106.7467056 180 111 184.2532944 111 189.5 C 111 194.7467056 106.7467056 199 101.5 199 C 96.2532944 199 92 194.7467056 92 189.5 Z"></path></g><g transform="translate(-82,-156) scale(1,1)"><path fill="#C0C0C0" stroke="none" d="M 261 175 L 354 175 Q 364 175 364 185 L 364 204 Q 364 214 354 214 L 261 214 Q 251 214 251 204 L 251 185 Q 251 175 261 175 Z" opacity="0.2"></path></g><g transform="translate(-82,-156) scale(1,1)"><path fill="#ffffff" stroke="none" d="M 254 168 L 347 168 Q 357 168 357 178 L 357 197 Q 357 207 347 207 L 254 207 Q 244 207 244 197 L 244 178 Q 244 168 254 168 Z"></path></g><g transform="translate(-82,-156) scale(1,1)"><path fill="none" stroke="#000000" d="M 254 168 L 347 168 Q 357 168 357 178 L 357 197 Q 357 207 347 207 L 254 207 Q 244 207 244 197 L 244 178 Q 244 168 254 168 Z" stroke-miterlimit="10"></path></g><g transform="translate(-82,-156) scale(1,1)"><g><path fill="none" stroke="none"></path><text fill="#000000" stroke="none" font-family="Arial" font-size="13px" font-style="normal" font-weight="bold" text-decoration="none" x="249" y="187.5">BLRS_CREATED</text></g></g><g transform="translate(-82,-156) scale(1,1)"><path fill="#C0C0C0" stroke="none" d="M 549 175 L 683 175 Q 693 175 693 185 L 693 204 Q 693 214 683 214 L 549 214 Q 539 214 539 204 L 539 185 Q 539 175 549 175 Z" opacity="0.2"></path></g><g transform="translate(-82,-156) scale(1,1)"><path fill="#ffffff" stroke="none" d="M 542 168 L 676 168 Q 686 168 686 178 L 686 197 Q 686 207 676 207 L 542 207 Q 532 207 532 197 L 532 178 Q 532 168 542 168 Z"></path></g><g transform="translate(-82,-156) scale(1,1)"><path fill="none" stroke="#000000" d="M 542 168 L 676 168 Q 686 168 686 178 L 686 197 Q 686 207 676 207 L 542 207 Q 532 207 532 197 L 532 178 Q 532 168 542 168 Z" stroke-miterlimit="10"></path></g><g transform="translate(-82,-156) scale(1,1)"><g><path fill="none" stroke="none"></path><text fill="#000000" stroke="none" font-family="Arial" font-size="13px" font-style="normal" font-weight="bold" text-decoration="none" x="537" y="187.5">BLRS_UNREGISTERED</text></g></g><g transform="translate(-82,-156) scale(1,1)"><path fill="#C0C0C0" stroke="none" d="M 285 355 L 401 355 Q 411 355 411 365 L 411 384 Q 411 394 401 394 L 285 394 Q 275 394 275 384 L 275 365 Q 275 355 285 355 Z" opacity="0.2"></path></g><g transform="translate(-82,-156) scale(1,1)"><path fill="#ffffff" stroke="none" d="M 278 348 L 394 348 Q 404 348 404 358 L 404 377 Q 404 387 394 387 L 278 387 Q 268 387 268 377 L 268 358 Q 268 348 278 348 Z"></path></g><g transform="translate(-82,-156) scale(1,1)"><path fill="none" stroke="#000000" d="M 278 348 L 394 348 Q 404 348 404 358 L 404 377 Q 404 387 394 387 L 278 387 Q 268 387 268 377 L 268 358 Q 268 348 278 348 Z" stroke-miterlimit="10"></path></g><g transform="translate(-82,-156) scale(1,1)"><g><path fill="none" stroke="none"></path><text fill="#000000" stroke="none" font-family="Arial" font-size="13px" font-style="normal" font-weight="bold" text-decoration="none" x="273" y="367.5">BLRS_REGISTERED</text></g></g><g transform="translate(-82,-156) scale(1,1)"><path fill="#C0C0C0" stroke="none" d="M 593 503 L 685 503 Q 695 503 695 513 L 695 532 Q 695 542 685 542 L 593 542 Q 583 542 583 532 L 583 513 Q 583 503 593 503 Z" opacity="0.2"></path></g><g transform="translate(-82,-156) scale(1,1)"><path fill="#ffffff" stroke="none" d="M 586 496 L 678 496 Q 688 496 688 506 L 688 525 Q 688 535 678 535 L 586 535 Q 576 535 576 525 L 576 506 Q 576 496 586 496 Z"></path></g><g transform="translate(-82,-156) scale(1,1)"><path fill="none" stroke="#000000" d="M 586 496 L 678 496 Q 688 496 688 506 L 688 525 Q 688 535 678 535 L 586 535 Q 576 535 576 525 L 576 506 Q 576 496 586 496 Z" stroke-miterlimit="10"></path></g><g transform="translate(-82,-156) scale(1,1)"><g><path fill="none" stroke="none"></path><text fill="#000000" stroke="none" font-family="Arial" font-size="13px" font-style="normal" font-weight="bold" text-decoration="none" x="581" y="515.5">BLRS_DUMPING</text></g></g><g transform="translate(-82,-156) scale(1,1)"><path fill="#C0C0C0" stroke="none" d="M 301 611 L 396 611 Q 406 611 406 621 L 406 640 Q 406 650 396 650 L 301 650 Q 291 650 291 640 L 291 621 Q 291 611 301 611 Z" opacity="0.2"></path></g><g transform="translate(-82,-156) scale(1,1)"><path fill="#ffffff" stroke="none" d="M 294 604 L 389 604 Q 399 604 399 614 L 399 633 Q 399 643 389 643 L 294 643 Q 284 643 284 633 L 284 614 Q 284 604 294 604 Z"></path></g><g transform="translate(-82,-156) scale(1,1)"><path fill="none" stroke="#000000" d="M 294 604 L 389 604 Q 399 604 399 614 L 399 633 Q 399 643 389 643 L 294 643 Q 284 643 284 633 L 284 614 Q 284 604 294 604 Z" stroke-miterlimit="10"></path></g><g transform="translate(-82,-156) scale(1,1)"><g><path fill="none" stroke="none"></path><text fill="#000000" stroke="none" font-family="Arial" font-size="13px" font-style="normal" font-weight="bold" text-decoration="none" x="289" y="623.5">BLRS_ERRORED</text></g></g><g transform="translate(-82,-156) scale(1,1)"><path fill="none" stroke="#000000" d="M 112 188.8894472361809 L 243 187.57286432160805" stroke-miterlimit="10"></path></g><g transform="translate(-82,-156) scale(1,1)"><path fill="none" stroke="#000000" d="M 232.88014293157224 191.88430177500948 L 243 187.57286432160805 L 232.7955337823143 183.46569142384595" stroke-miterlimit="10"></path></g><g transform="translate(-82,-156) scale(1,1)"><g><path fill="none" stroke="none"></path><text fill="#000000" stroke="none" font-family="Arial" font-size="13px" font-style="normal" font-weight="normal" text-decoration="none" x="153" y="180">connect</text></g></g><g transform="translate(-82,-156) scale(1,1)"><path fill="none" stroke="#000000" d="M 358 187 L 531 187" stroke-miterlimit="10"></path></g><g transform="translate(-82,-156) scale(1,1)"><path fill="none" stroke="#000000" d="M 520.8373251423759 191.209517756016 L 531 187 L 520.8373251423758 182.790482243984" stroke-miterlimit="10"></path></g><g transform="translate(-82,-156) scale(1,1)"><g><path fill="none" stroke="none"></path><text fill="#000000" stroke="none" font-family="Arial" font-size="13px" font-style="normal" font-weight="normal" text-decoration="none" x="384" y="179">set SLAVE structure</text></g></g><g transform="translate(-82,-156) scale(1,1)"><path fill="#C0C0C0" stroke="none" d="M 591 372.5 L 620.5 343 L 649 372.5 L 620.5 401 L 591 372.5" opacity="0.2"></path></g><g transform="translate(-82,-156) scale(1,1)"><path fill="#ffffff" stroke="none" d="M 584 365 L 613 336 L 642 365 L 613 394 L 584 365"></path></g><g transform="translate(-82,-156) scale(1,1)"><path fill="none" stroke="#000000" d="M 584 365 L 613 336 L 642 365 L 613 394 L 584 365 L 584 365" stroke-miterlimit="10"></path></g><g transform="translate(-82,-156) scale(1,1)"><path fill="none" stroke="#000000" d="M 609.4719101123595 208 L 612.3258426966293 335" stroke-miterlimit="10"></path></g><g transform="translate(-82,-156) scale(1,1)"><path fill="none" stroke="#000000" d="M 607.8890703389324 324.9344622078114 L 612.3258426966293 335 L 616.3059809050668 324.74531815014547" stroke-miterlimit="10"></path></g><g transform="translate(-82,-156) scale(1,1)"><g><path fill="none" stroke="none"></path><text fill="#000000" stroke="none" font-family="Arial" font-size="13px" font-style="normal" font-weight="normal" text-decoration="none" x="500" y="259">receive command</text></g></g><g transform="translate(-82,-156) scale(1,1)"><path fill="none" stroke="#000000" d="M 643 364.76377952755905 L 740 364 L 740 188 L 687 187.59541984732823" stroke-miterlimit="10"></path></g><g transform="translate(-82,-156) scale(1,1)"><path fill="none" stroke="#000000" d="M 697.194511559711 183.46360014422905 L 687 187.59541984732823 L 697.1302459854579 191.8823903713829" stroke-miterlimit="10"></path></g><g transform="translate(-82,-156) scale(1,1)"><g><path fill="none" stroke="none"></path><text fill="#000000" stroke="none" font-family="Arial" font-size="13px" font-style="normal" font-weight="normal" text-decoration="none" x="679" y="384">not COM_REGISTER_SLAVE</text></g></g><g transform="translate(-82,-156) scale(1,1)"><path fill="none" stroke="#000000" d="M 583 365.21660649819495 L 405 366.50180505415165" stroke-miterlimit="10"></path></g><g transform="translate(-82,-156) scale(1,1)"><path fill="none" stroke="#000000" d="M 415.13201713229205 362.2190222169137 L 405 366.50180505415165 L 415.1928028079023 370.6378382889333" stroke-miterlimit="10"></path></g><g transform="translate(-82,-156) scale(1,1)"><g><path fill="none" stroke="none"></path><text fill="#000000" stroke="none" font-family="Arial" font-size="13px" font-style="normal" font-weight="normal" text-decoration="none" x="417" y="386">COM_REGISTER_SLAVE</text></g></g><g transform="translate(-82,-156) scale(1,1)"><path fill="#C0C0C0" stroke="none" d="M 311 523.5 L 344.5 491 L 377 523.5 L 344.5 555 L 311 523.5" opacity="0.2"></path></g><g transform="translate(-82,-156) scale(1,1)"><path fill="#ffffff" stroke="none" d="M 304 516 L 337 484 L 370 516 L 337 548 L 304 516"></path></g><g transform="translate(-82,-156) scale(1,1)"><path fill="none" stroke="#000000" d="M 304 516 L 337 484 L 370 516 L 337 548 L 304 516 L 304 516" stroke-miterlimit="10"></path></g><g transform="translate(-82,-156) scale(1,1)"><path fill="none" stroke="#000000" d="M 336.1409395973154 388 L 336.77852348993287 483" stroke-miterlimit="10"></path></g><g transform="translate(-82,-156) scale(1,1)"><path fill="none" stroke="#000000" d="M 332.5008961999218 472.8658051741763 L 336.77852348993287 483 L 340.919742108983 472.80930285263895" stroke-miterlimit="10"></path></g><g transform="translate(-82,-156) scale(1,1)"><g><path fill="none" stroke="none"></path><text fill="#000000" stroke="none" font-family="Arial" font-size="13px" font-style="normal" font-weight="normal" text-decoration="none" x="348" y="437">receive command</text></g></g><g transform="translate(-82,-156) scale(1,1)"><path fill="none" stroke="#000000" d="M 371 515.8847457627119 L 575 515.193220338983" stroke-miterlimit="10"></path></g><g transform="translate(-82,-156) scale(1,1)"><path fill="none" stroke="#000000" d="M 564.8516530010021 519.4371634568781 L 575 515.193220338983 L 564.8231140615408 511.0181763157911" stroke-miterlimit="10"></path></g><g transform="translate(-82,-156) scale(1,1)"><g><path fill="none" stroke="none"></path><text fill="#000000" stroke="none" font-family="Arial" font-size="13px" font-style="normal" font-weight="normal" text-decoration="none" x="408" y="507">COM_BINLOG_DUMP</text></g></g><g transform="translate(-82,-156) scale(1,1)"><path fill="none" stroke="#000000" d="M 338.23364485981307 549 L 340.2523364485981 603" stroke-miterlimit="10"></path></g><g transform="translate(-82,-156) scale(1,1)"><path fill="none" stroke="#000000" d="M 335.6661091258029 593.0016741929637 L 340.2523364485981 603 L 344.0792679872544 592.6871635813208" stroke-miterlimit="10"></path></g><g transform="translate(-82,-156) scale(1,1)"><g><path fill="none" stroke="none"></path><text fill="#000000" stroke="none" font-family="Arial" font-size="13px" font-style="normal" font-weight="normal" text-decoration="none" x="344" y="577">Any other message</text></g></g><g transform="translate(-82,-156) scale(1,1)"><path fill="#C0C0C0" stroke="none" d="M 539 631.5 C 539 624.59644 544.59644 619 551.5 619 C 558.40356 619 564 624.59644 564 631.5 C 564 638.40356 558.40356 644 551.5 644 C 544.59644 644 539 638.40356 539 631.5 Z" opacity="0.2"></path></g><g transform="translate(-82,-156) scale(1,1)"><path fill="none" stroke="#000000" d="M 532 624.5 C 532 617.59644 537.59644 612 544.5 612 C 551.40356 612 557 617.59644 557 624.5 C 557 631.40356 551.40356 637 544.5 637 C 537.59644 637 532 631.40356 532 624.5 Z" stroke-miterlimit="10"></path></g><g transform="translate(-82,-156) scale(1,1)"><path fill="#000000" stroke="none" d="M 537 624.5 C 537 620.357864 540.357864 617 544.5 617 C 548.642136 617 552 620.357864 552 624.5 C 552 628.642136 548.642136 632 544.5 632 C 540.357864 632 537 628.642136 537 624.5 Z"></path></g><g transform="translate(-82,-156) scale(1,1)"><path fill="none" stroke="#000000" d="M 400 623.2906403940887 L 531 623.935960591133" stroke-miterlimit="10"></path></g><g transform="translate(-82,-156) scale(1,1)"><path fill="none" stroke="#000000" d="M 520.816712157556 628.0953654425431 L 531 623.935960591133 L 520.8581847357011 619.6764320790986" stroke-miterlimit="10"></path></g><g transform="translate(-82,-156) scale(1,1)"><g><path fill="none" stroke="none"></path><text fill="#000000" stroke="none" font-family="Arial" font-size="13px" font-style="normal" font-weight="normal" text-decoration="none" x="450" y="615">close</text></g></g></g></svg>