<svg version="1.1" xmlns="http://www.w3.org/2000/svg" xmlns:xlink="http://www.w3.org/1999/xlink" width="840" height="400"><defs></defs><g><g transform="translate(10,10) scale(1,1)"><path fill="none" stroke="#000000" d="M 0 0 L 820 0 L 820 380 L 0 380 L 0 0" stroke-miterlimit="10"></path></g><g transform="translate(10,10) scale(1,1)"><path fill="#ffffff" stroke="none" d="M 0 0 L 0 22 L 156 22 L 167 11 L 167 0 L 0 0"></path></g><g transform="translate(10,10) scale(1,1)"><path fill="none" stroke="#000000" d="M 0 0 L 0 22 L 156 22 L 167 11 L 167 0 L 0 0 L 0 0" stroke-miterlimit="10"></path></g><g transform="translate(10,10) scale(1,1)"><g><path fill="none" stroke="none"></path><text fill="#000000" stroke="none" font-family="Arial" font-size="13px" font-style="normal" font-weight="normal" text-decoration="none" x="47" y="17.5">Client Request Flow</text></g></g><g transform="translate(10,10) scale(1,1)"><g><path fill="none" stroke="none"></path><text fill="#000000" stroke="none" font-family="Arial" font-size="13px" font-style="normal" font-weight="bold" text-decoration="none" x="-1" y="17.5">interaction</text></g></g><g transform="translate(10,10) scale(1,1)"><rect fill="#C0C0C0" stroke="none" x="75" y="47" width="72" height="39" opacity="0.2"></rect></g><g transform="translate(10,10) scale(1,1)"><rect fill="#ffffff" stroke="none" x="68" y="40" width="72" height="39"></rect></g><g transform="translate(10,10) scale(1,1)"><path fill="none" stroke="#000000" d="M 68 40 L 140 40 L 140 79 L 68 79 L 68 40 Z Z" stroke-miterlimit="10"></path></g><g transform="translate(10,10) scale(1,1)"><g><path fill="none" stroke="none"></path><text fill="#000000" stroke="none" font-family="Arial" font-size="13px" font-style="normal" font-weight="bold" text-decoration="none" x="80" y="59.5">Protocol</text></g></g><g transform="translate(10,10) scale(1,1)"><path fill="none" stroke="#000000" d="M 105.5 80 L 105.5 276" stroke-miterlimit="10" stroke-dasharray="3"></path></g><g transform="translate(10,10) scale(1,1)"><rect fill="#C0C0C0" stroke="none" x="227" y="47" width="72" height="39" opacity="0.2"></rect></g><g transform="translate(10,10) scale(1,1)"><rect fill="#ffffff" stroke="none" x="220" y="40" width="72" height="39"></rect></g><g transform="translate(10,10) scale(1,1)"><path fill="none" stroke="#000000" d="M 220 40 L 292 40 L 292 79 L 220 79 L 220 40 Z Z" stroke-miterlimit="10"></path></g><g transform="translate(10,10) scale(1,1)"><g><path fill="none" stroke="none"></path><text fill="#000000" stroke="none" font-family="Arial" font-size="13px" font-style="normal" font-weight="bold" text-decoration="none" x="232.5" y="59.5">Session</text></g></g><g transform="translate(10,10) scale(1,1)"><path fill="none" stroke="#000000" d="M 257.5 80 L 257.5 264" stroke-miterlimit="10" stroke-dasharray="3"></path></g><g transform="translate(10,10) scale(1,1)"><rect fill="#C0C0C0" stroke="none" x="379" y="47" width="72" height="39" opacity="0.2"></rect></g><g transform="translate(10,10) scale(1,1)"><rect fill="#ffffff" stroke="none" x="372" y="40" width="72" height="39"></rect></g><g transform="translate(10,10) scale(1,1)"><path fill="none" stroke="#000000" d="M 372 40 L 444 40 L 444 79 L 372 79 L 372 40 Z Z" stroke-miterlimit="10"></path></g><g transform="translate(10,10) scale(1,1)"><g><path fill="none" stroke="none"></path><text fill="#000000" stroke="none" font-family="Arial" font-size="13px" font-style="normal" font-weight="bold" text-decoration="none" x="393.5" y="59.5">Filter</text></g></g><g transform="translate(10,10) scale(1,1)"><path fill="none" stroke="#000000" d="M 409.5 80 L 409.5 268" stroke-miterlimit="10" stroke-dasharray="3"></path></g><g transform="translate(10,10) scale(1,1)"><rect fill="#C0C0C0" stroke="none" x="535" y="47" width="72" height="39" opacity="0.2"></rect></g><g transform="translate(10,10) scale(1,1)"><rect fill="#ffffff" stroke="none" x="528" y="40" width="72" height="39"></rect></g><g transform="translate(10,10) scale(1,1)"><path fill="none" stroke="#000000" d="M 528 40 L 600 40 L 600 79 L 528 79 L 528 40 Z Z" stroke-miterlimit="10"></path></g><g transform="translate(10,10) scale(1,1)"><g><path fill="none" stroke="none"></path><text fill="#000000" stroke="none" font-family="Arial" font-size="13px" font-style="normal" font-weight="bold" text-decoration="none" x="545" y="59.5">Router</text></g></g><g transform="translate(10,10) scale(1,1)"><path fill="none" stroke="#000000" d="M 565.5 80 L 565.5 280" stroke-miterlimit="10" stroke-dasharray="3"></path></g><g transform="translate(10,10) scale(1,1)"><rect fill="#C0C0C0" stroke="none" x="715" y="47" width="72" height="39" opacity="0.2"></rect></g><g transform="translate(10,10) scale(1,1)"><rect fill="#ffffff" stroke="none" x="708" y="40" width="72" height="39"></rect></g><g transform="translate(10,10) scale(1,1)"><path fill="none" stroke="#000000" d="M 708 40 L 780 40 L 780 79 L 708 79 L 708 40 Z Z" stroke-miterlimit="10"></path></g><g transform="translate(10,10) scale(1,1)"><g><path fill="none" stroke="none"></path><text fill="#000000" stroke="none" font-family="Arial" font-size="13px" font-style="normal" font-weight="bold" text-decoration="none" x="720" y="59.5">Protocol</text></g></g><g transform="translate(10,10) scale(1,1)"><path fill="none" stroke="#000000" d="M 745.5 80 L 745.5 288" stroke-miterlimit="10" stroke-dasharray="3"></path></g><g transform="translate(10,10) scale(1,1)"><path fill="none" stroke="#000000" d="M 105 165 L 250 165" stroke-miterlimit="10"></path></g><g transform="translate(10,10) scale(1,1)"><path fill="#000000" stroke="none" d="M 239.83732514237585 169.209517756016 L 250 165 L 239.83732514237585 160.790482243984"></path></g><g transform="translate(10,10) scale(1,1)"><path fill="none" stroke="#000000" d="M 239.83732514237585 169.209517756016 L 250 165 L 239.83732514237585 160.790482243984 L 239.83732514237585 169.209517756016" stroke-miterlimit="10"></path></g><g transform="translate(10,10) scale(1,1)"><g><path fill="none" stroke="none"></path><text fill="#000000" stroke="none" font-family="Arial" font-size="13px" font-style="normal" font-weight="normal" text-decoration="none" x="136" y="162">1 : routeQuery</text></g></g><g transform="translate(10,10) scale(1,1)"><rect fill="#ffffff" stroke="none" x="250" y="165" width="13" height="103"></rect></g><g transform="translate(10,10) scale(1,1)"><path fill="none" stroke="#000000" d="M 250 165 L 263 165 L 263 268 L 250 268 L 250 165 Z Z" stroke-miterlimit="10"></path></g><g transform="translate(10,10) scale(1,1)"><path fill="none" stroke="#000000" d="M 263 192 L 402 192" stroke-miterlimit="10"></path></g><g transform="translate(10,10) scale(1,1)"><path fill="#000000" stroke="none" d="M 391.83732514237585 196.209517756016 L 402 192 L 391.83732514237585 187.790482243984"></path></g><g transform="translate(10,10) scale(1,1)"><path fill="none" stroke="#000000" d="M 391.83732514237585 196.209517756016 L 402 192 L 391.83732514237585 187.790482243984 L 391.83732514237585 196.209517756016" stroke-miterlimit="10"></path></g><g transform="translate(10,10) scale(1,1)"><g><path fill="none" stroke="none"></path><text fill="#000000" stroke="none" font-family="Arial" font-size="13px" font-style="normal" font-weight="normal" text-decoration="none" x="291" y="189">2 : routeQuery</text></g></g><g transform="translate(10,10) scale(1,1)"><rect fill="#ffffff" stroke="none" x="402" y="192" width="13" height="80"></rect></g><g transform="translate(10,10) scale(1,1)"><path fill="none" stroke="#000000" d="M 402 192 L 415 192 L 415 272 L 402 272 L 402 192 Z Z" stroke-miterlimit="10"></path></g><g transform="translate(10,10) scale(1,1)"><path fill="none" stroke="#000000" d="M 415 212 L 558 212" stroke-miterlimit="10"></path></g><g transform="translate(10,10) scale(1,1)"><path fill="#000000" stroke="none" d="M 547.8373251423759 216.209517756016 L 558 212 L 547.8373251423758 207.790482243984"></path></g><g transform="translate(10,10) scale(1,1)"><path fill="none" stroke="#000000" d="M 547.8373251423759 216.209517756016 L 558 212 L 547.8373251423758 207.790482243984 L 547.8373251423759 216.209517756016" stroke-miterlimit="10"></path></g><g transform="translate(10,10) scale(1,1)"><g><path fill="none" stroke="none"></path><text fill="#000000" stroke="none" font-family="Arial" font-size="13px" font-style="normal" font-weight="normal" text-decoration="none" x="445" y="209">3 : routeQuery</text></g></g><g transform="translate(10,10) scale(1,1)"><rect fill="#ffffff" stroke="none" x="558" y="212" width="13" height="68"></rect></g><g transform="translate(10,10) scale(1,1)"><path fill="none" stroke="#000000" d="M 558 212 L 571 212 L 571 280 L 558 280 L 558 212 Z Z" stroke-miterlimit="10"></path></g><g transform="translate(10,10) scale(1,1)"><path fill="none" stroke="#000000" d="M 571 236 L 738 236" stroke-miterlimit="10"></path></g><g transform="translate(10,10) scale(1,1)"><path fill="#000000" stroke="none" d="M 727.8373251423759 240.209517756016 L 738 236 L 727.8373251423758 231.790482243984"></path></g><g transform="translate(10,10) scale(1,1)"><path fill="none" stroke="#000000" d="M 727.8373251423759 240.209517756016 L 738 236 L 727.8373251423758 231.790482243984 L 727.8373251423759 240.209517756016" stroke-miterlimit="10"></path></g><g transform="translate(10,10) scale(1,1)"><g><path fill="none" stroke="none"></path><text fill="#000000" stroke="none" font-family="Arial" font-size="13px" font-style="normal" font-weight="normal" text-decoration="none" x="631" y="233">4 : write</text></g></g><g transform="translate(10,10) scale(1,1)"><rect fill="#ffffff" stroke="none" x="738" y="236" width="13" height="28"></rect></g><g transform="translate(10,10) scale(1,1)"><path fill="none" stroke="#000000" d="M 738 236 L 751 236 L 751 264 L 738 264 L 738 236 Z Z" stroke-miterlimit="10"></path></g></g></svg>