<svg version="1.1" xmlns="http://www.w3.org/2000/svg" xmlns:xlink="http://www.w3.org/1999/xlink" width="521" height="480"><defs></defs><g><g transform="translate(-118,-302) scale(1,1)"><rect fill="#C0C0C0" stroke="none" x="299" y="355" width="133" height="176" opacity="0.2"></rect></g><g transform="translate(-118,-302) scale(1,1)"><rect fill="#ffffff" stroke="none" x="292" y="348" width="133" height="176"></rect></g><g transform="translate(-118,-302) scale(1,1)"><path fill="none" stroke="#000000" d="M 292 348 L 425 348 L 425 524 L 292 524 L 292 348 Z Z" stroke-miterlimit="10"></path></g><g transform="translate(-118,-302) scale(1,1)"><path fill="none" stroke="#000000" d="M 292 373 L 425 373" stroke-miterlimit="10"></path></g><g transform="translate(-118,-302) scale(1,1)"><path fill="none" stroke="#000000" d="M 292 441 L 425 441" stroke-miterlimit="10"></path></g><g transform="translate(-118,-302) scale(1,1)"><g><path fill="none" stroke="none"></path><text fill="#000000" stroke="none" font-family="Arial" font-size="13px" font-style="normal" font-weight="bold" text-decoration="none" x="319.5" y="367.5">FILTER_DEF</text></g></g><g transform="translate(-118,-302) scale(1,1)"><g><path fill="none" stroke="none"></path><text fill="#000000" stroke="none" font-family="Arial" font-size="13px" font-style="normal" font-weight="normal" text-decoration="none" x="297" y="390.5">+name</text></g></g><g transform="translate(-118,-302) scale(1,1)"><g><path fill="none" stroke="none"></path><text fill="#000000" stroke="none" font-family="Arial" font-size="13px" font-style="normal" font-weight="normal" text-decoration="none" x="297" y="405.5">+module</text></g></g><g transform="translate(-118,-302) scale(1,1)"><g><path fill="none" stroke="none"></path><text fill="#000000" stroke="none" font-family="Arial" font-size="13px" font-style="normal" font-weight="normal" text-decoration="none" x="297" y="420.5">+options</text></g></g><g transform="translate(-118,-302) scale(1,1)"><g><path fill="none" stroke="none"></path><text fill="#000000" stroke="none" font-family="Arial" font-size="13px" font-style="normal" font-weight="normal" text-decoration="none" x="297" y="435.5">+spin</text></g></g><g transform="translate(-118,-302) scale(1,1)"><g><path fill="none" stroke="none"></path><text fill="#000000" stroke="none" font-family="Arial" font-size="13px" font-style="normal" font-weight="normal" text-decoration="none" x="297" y="458.5">+filter_find()</text></g></g><g transform="translate(-118,-302) scale(1,1)"><g><path fill="none" stroke="none"></path><text fill="#000000" stroke="none" font-family="Arial" font-size="13px" font-style="normal" font-weight="normal" text-decoration="none" x="297" y="473.5">+filterAddOption()</text></g></g><g transform="translate(-118,-302) scale(1,1)"><g><path fill="none" stroke="none"></path><text fill="#000000" stroke="none" font-family="Arial" font-size="13px" font-style="normal" font-weight="normal" text-decoration="none" x="297" y="488.5">+filterAddParameter()</text></g></g><g transform="translate(-118,-302) scale(1,1)"><g><path fill="none" stroke="none"></path><text fill="#000000" stroke="none" font-family="Arial" font-size="13px" font-style="normal" font-weight="normal" text-decoration="none" x="297" y="503.5">+filterApply()</text></g></g><g transform="translate(-118,-302) scale(1,1)"><g><path fill="none" stroke="none"></path><text fill="#000000" stroke="none" font-family="Arial" font-size="13px" font-style="normal" font-weight="normal" text-decoration="none" x="297" y="518.5">+filterUpstream()</text></g></g><g transform="translate(-118,-302) scale(1,1)"><rect fill="#C0C0C0" stroke="none" x="515" y="547" width="114" height="177" opacity="0.2"></rect></g><g transform="translate(-118,-302) scale(1,1)"><rect fill="#ffffff" stroke="none" x="508" y="540" width="114" height="177"></rect></g><g transform="translate(-118,-302) scale(1,1)"><path fill="none" stroke="#000000" d="M 508 540 L 622 540 L 622 717 L 508 717 L 508 540 Z Z" stroke-miterlimit="10"></path></g><g transform="translate(-118,-302) scale(1,1)"><path fill="none" stroke="#000000" d="M 508 565 L 622 565" stroke-miterlimit="10"></path></g><g transform="translate(-118,-302) scale(1,1)"><path fill="none" stroke="#000000" d="M 508 708 L 622 708" stroke-miterlimit="10"></path></g><g transform="translate(-118,-302) scale(1,1)"><g><path fill="none" stroke="none"></path><text fill="#000000" stroke="none" font-family="Arial" font-size="13px" font-style="normal" font-weight="bold" text-decoration="none" x="513" y="559.5">FILTER_OBJECT</text></g></g><g transform="translate(-118,-302) scale(1,1)"><g><path fill="none" stroke="none"></path><text fill="#000000" stroke="none" font-family="Arial" font-size="13px" font-style="normal" font-weight="normal" text-decoration="none" x="513" y="582.5">+createInstance</text></g></g><g transform="translate(-118,-302) scale(1,1)"><g><path fill="none" stroke="none"></path><text fill="#000000" stroke="none" font-family="Arial" font-size="13px" font-style="normal" font-weight="normal" text-decoration="none" x="513" y="597.5">+newSession</text></g></g><g transform="translate(-118,-302) scale(1,1)"><g><path fill="none" stroke="none"></path><text fill="#000000" stroke="none" font-family="Arial" font-size="13px" font-style="normal" font-weight="normal" text-decoration="none" x="513" y="612.5">+closeSession</text></g></g><g transform="translate(-118,-302) scale(1,1)"><g><path fill="none" stroke="none"></path><text fill="#000000" stroke="none" font-family="Arial" font-size="13px" font-style="normal" font-weight="normal" text-decoration="none" x="513" y="627.5">+freeSession</text></g></g><g transform="translate(-118,-302) scale(1,1)"><g><path fill="none" stroke="none"></path><text fill="#000000" stroke="none" font-family="Arial" font-size="13px" font-style="normal" font-weight="normal" text-decoration="none" x="513" y="642.5">+setDownstream</text></g></g><g transform="translate(-118,-302) scale(1,1)"><g><path fill="none" stroke="none"></path><text fill="#000000" stroke="none" font-family="Arial" font-size="13px" font-style="normal" font-weight="normal" text-decoration="none" x="513" y="657.5">+setUpstream</text></g></g><g transform="translate(-118,-302) scale(1,1)"><g><path fill="none" stroke="none"></path><text fill="#000000" stroke="none" font-family="Arial" font-size="13px" font-style="normal" font-weight="normal" text-decoration="none" x="513" y="672.5">+routeQuery</text></g></g><g transform="translate(-118,-302) scale(1,1)"><g><path fill="none" stroke="none"></path><text fill="#000000" stroke="none" font-family="Arial" font-size="13px" font-style="normal" font-weight="normal" text-decoration="none" x="513" y="687.5">+clientReply</text></g></g><g transform="translate(-118,-302) scale(1,1)"><g><path fill="none" stroke="none"></path><text fill="#000000" stroke="none" font-family="Arial" font-size="13px" font-style="normal" font-weight="normal" text-decoration="none" x="513" y="702.5">+diagnostics</text></g></g><g transform="translate(-118,-302) scale(1,1)"><rect fill="#C0C0C0" stroke="none" x="207" y="615" width="55" height="44" opacity="0.2"></rect></g><g transform="translate(-118,-302) scale(1,1)"><rect fill="#ffffff" stroke="none" x="200" y="608" width="55" height="44"></rect></g><g transform="translate(-118,-302) scale(1,1)"><path fill="none" stroke="#000000" d="M 200 608 L 255 608 L 255 652 L 200 652 L 200 608 Z Z" stroke-miterlimit="10"></path></g><g transform="translate(-118,-302) scale(1,1)"><path fill="none" stroke="#000000" d="M 200 633 L 255 633" stroke-miterlimit="10"></path></g><g transform="translate(-118,-302) scale(1,1)"><path fill="none" stroke="#000000" d="M 200 643 L 255 643" stroke-miterlimit="10"></path></g><g transform="translate(-118,-302) scale(1,1)"><g><path fill="none" stroke="none"></path><text fill="#000000" stroke="none" font-family="Arial" font-size="13px" font-style="normal" font-weight="bold" text-decoration="none" x="205" y="627.5">FILTER</text></g></g><g transform="translate(-118,-302) scale(1,1)"><rect fill="#C0C0C0" stroke="none" x="307" y="707" width="144" height="72" opacity="0.2"></rect></g><g transform="translate(-118,-302) scale(1,1)"><rect fill="#ffffff" stroke="none" x="300" y="700" width="144" height="72"></rect></g><g transform="translate(-118,-302) scale(1,1)"><path fill="none" stroke="#000000" d="M 300 700 L 444 700 L 444 772 L 300 772 L 300 700 Z Z" stroke-miterlimit="10"></path></g><g transform="translate(-118,-302) scale(1,1)"><path fill="none" stroke="#000000" d="M 300 725 L 444 725" stroke-miterlimit="10"></path></g><g transform="translate(-118,-302) scale(1,1)"><path fill="none" stroke="#000000" d="M 300 763 L 444 763" stroke-miterlimit="10"></path></g><g transform="translate(-118,-302) scale(1,1)"><g><path fill="none" stroke="none"></path><text fill="#000000" stroke="none" font-family="Arial" font-size="13px" font-style="normal" font-weight="bold" text-decoration="none" x="305" y="719.5">FILTER_PARAMETER</text></g></g><g transform="translate(-118,-302) scale(1,1)"><g><path fill="none" stroke="none"></path><text fill="#000000" stroke="none" font-family="Arial" font-size="13px" font-style="normal" font-weight="normal" text-decoration="none" x="305" y="742.5">+name</text></g></g><g transform="translate(-118,-302) scale(1,1)"><g><path fill="none" stroke="none"></path><text fill="#000000" stroke="none" font-family="Arial" font-size="13px" font-style="normal" font-weight="normal" text-decoration="none" x="305" y="757.5">+value</text></g></g><g transform="translate(-118,-302) scale(1,1)"><path fill="none" stroke="#000000" d="M 358 348 L 358 312 L 454 312 L 454 392 L 425 392" stroke-miterlimit="10"></path></g><g transform="translate(-118,-302) scale(1,1)"><path fill="none" stroke="#000000" d="M 435.16267485762415 387.790482243984 L 425 392 L 435.16267485762415 396.209517756016" stroke-miterlimit="10"></path></g><g transform="translate(-118,-302) scale(1,1)"><g><path fill="none" stroke="none"></path><text fill="#000000" stroke="none" font-family="Arial" font-size="13px" font-style="normal" font-weight="normal" text-decoration="none" x="367" y="333">1</text></g></g><g transform="translate(-118,-302) scale(1,1)"><g><path fill="none" stroke="none"></path><text fill="#000000" stroke="none" font-family="Arial" font-size="13px" font-style="normal" font-weight="normal" text-decoration="none" x="434" y="413">+next</text></g></g><g transform="translate(-118,-302) scale(1,1)"><g><path fill="none" stroke="none"></path><text fill="#000000" stroke="none" font-family="Arial" font-size="13px" font-style="normal" font-weight="normal" text-decoration="none" x="443" y="386">1</text></g></g><g transform="translate(-118,-302) scale(1,1)"><path fill="none" stroke="#000000" d="M 507 574.2028985507246 L 426 499.07246376811594" stroke-miterlimit="10"></path></g><g transform="translate(-118,-302) scale(1,1)"><path fill="#FFFFFF" stroke="none" d="M 436.31364180341757 502.8972242509172 L 426 499.07246376811594 L 430.58833198412253 509.0698238998446 L 442.1297801965951 514.0334193127838"></path></g><g transform="translate(-118,-302) scale(1,1)"><path fill="none" stroke="#000000" d="M 436.31364180341757 502.8972242509172 L 426 499.07246376811594 L 430.58833198412253 509.0698238998446 L 442.1297801965951 514.0334193127838 L 436.31364180341757 502.8972242509172" stroke-miterlimit="10"></path></g><g transform="translate(-118,-302) scale(1,1)"><g><path fill="none" stroke="none"></path><text fill="#000000" stroke="none" font-family="Arial" font-size="13px" font-style="normal" font-weight="normal" text-decoration="none" x="443" y="554">+obj</text></g></g><g transform="translate(-118,-302) scale(1,1)"><g><path fill="none" stroke="none"></path><text fill="#000000" stroke="none" font-family="Arial" font-size="13px" font-style="normal" font-weight="normal" text-decoration="none" x="496" y="557.2028985507246">1</text></g></g><g transform="translate(-118,-302) scale(1,1)"><g><path fill="none" stroke="none"></path><text fill="#000000" stroke="none" font-family="Arial" font-size="13px" font-style="normal" font-weight="normal" text-decoration="none" x="448" y="511.07246376811594">*</text></g></g><g transform="translate(-118,-302) scale(1,1)"><path fill="none" stroke="#000000" d="M 370.2733333333333 699 L 362.1533333333333 525" stroke-miterlimit="10"></path></g><g transform="translate(-118,-302) scale(1,1)"><path fill="#FFFFFF" stroke="none" d="M 366.83201745291194 534.9553962708274 L 362.1533333333333 525 L 358.4221343888159 535.3478574804851 L 363.17888389671225 546.9760835009779"></path></g><g transform="translate(-118,-302) scale(1,1)"><path fill="none" stroke="#000000" d="M 366.83201745291194 534.9553962708274 L 362.1533333333333 525 L 358.4221343888159 535.3478574804851 L 363.17888389671225 546.9760835009779 L 366.83201745291194 534.9553962708274" stroke-miterlimit="10"></path></g><g transform="translate(-118,-302) scale(1,1)"><g><path fill="none" stroke="none"></path><text fill="#000000" stroke="none" font-family="Arial" font-size="13px" font-style="normal" font-weight="normal" text-decoration="none" x="379" y="604">+parameters</text></g></g><g transform="translate(-118,-302) scale(1,1)"><g><path fill="none" stroke="none"></path><text fill="#000000" stroke="none" font-family="Arial" font-size="13px" font-style="normal" font-weight="normal" text-decoration="none" x="371.2733333333333" y="683">0..*</text></g></g><g transform="translate(-118,-302) scale(1,1)"><g><path fill="none" stroke="none"></path><text fill="#000000" stroke="none" font-family="Arial" font-size="13px" font-style="normal" font-weight="normal" text-decoration="none" x="372.1533333333333" y="553">1</text></g></g><g transform="translate(-118,-302) scale(1,1)"><path fill="none" stroke="#000000" d="M 242.53092783505156 607 L 297.9020618556701 525" stroke-miterlimit="10"></path></g><g transform="translate(-118,-302) scale(1,1)"><path fill="#FFFFFF" stroke="none" d="M 295.7034661902403 535.7780414315382 L 297.9020618556701 525 L 288.72619376740715 531.0665842800374 L 285.5904310061645 543.2324914870542"></path></g><g transform="translate(-118,-302) scale(1,1)"><path fill="none" stroke="#000000" d="M 295.7034661902403 535.7780414315382 L 297.9020618556701 525 L 288.72619376740715 531.0665842800374 L 285.5904310061645 543.2324914870542 L 295.7034661902403 535.7780414315382" stroke-miterlimit="10"></path></g><g transform="translate(-118,-302) scale(1,1)"><g><path fill="none" stroke="none"></path><text fill="#000000" stroke="none" font-family="Arial" font-size="13px" font-style="normal" font-weight="normal" text-decoration="none" x="231" y="562">+filter</text></g></g><g transform="translate(-118,-302) scale(1,1)"><g><path fill="none" stroke="none"></path><text fill="#000000" stroke="none" font-family="Arial" font-size="13px" font-style="normal" font-weight="normal" text-decoration="none" x="261.53092783505156" y="603">1</text></g></g><g transform="translate(-118,-302) scale(1,1)"><g><path fill="none" stroke="none"></path><text fill="#000000" stroke="none" font-family="Arial" font-size="13px" font-style="normal" font-weight="normal" text-decoration="none" x="292.9020618556701" y="556">1</text></g></g><g transform="translate(-118,-302) scale(1,1)"><path fill="#ffffff" stroke="none" d="M 128 660 L 229 660 L 239 670 L 239 703 L 128 703 L 128 660"></path></g><g transform="translate(-118,-302) scale(1,1)"><path fill="none" stroke="#000000" d="M 128 660 L 229 660 L 239 670 L 239 703 L 128 703 L 128 660 L 128 660" stroke-miterlimit="10"></path></g><g transform="translate(-118,-302) scale(1,1)"><path fill="none" stroke="#000000" d="M 229 660 L 229 670 L 239 670 L 229 660" stroke-miterlimit="10"></path></g><g transform="translate(-118,-302) scale(1,1)"><g><path fill="none" stroke="none"></path><text fill="#000000" stroke="none" font-family="Arial" font-size="13px" font-style="normal" font-weight="normal" text-decoration="none" x="133" y="678">The runtime filter</text><text fill="#000000" stroke="none" font-family="Arial" font-size="13px" font-style="normal" font-weight="normal" text-decoration="none" x="133" y="691">instance</text></g></g><g transform="translate(-118,-302) scale(1,1)"><path fill="#ffffff" stroke="none" d="M 496 476 L 618 476 L 628 486 L 628 512 L 496 512 L 496 476"></path></g><g transform="translate(-118,-302) scale(1,1)"><path fill="none" stroke="#000000" d="M 496 476 L 618 476 L 628 486 L 628 512 L 496 512 L 496 476 L 496 476" stroke-miterlimit="10"></path></g><g transform="translate(-118,-302) scale(1,1)"><path fill="none" stroke="#000000" d="M 618 476 L 618 486 L 628 486 L 618 476" stroke-miterlimit="10"></path></g><g transform="translate(-118,-302) scale(1,1)"><g><path fill="none" stroke="none"></path><text fill="#000000" stroke="none" font-family="Arial" font-size="13px" font-style="normal" font-weight="normal" text-decoration="none" x="501" y="494">Filter</text><text fill="#000000" stroke="none" font-family="Arial" font-size="13px" font-style="normal" font-weight="normal" text-decoration="none" x="501" y="507">MODULE_OBJECT</text></g></g></g></svg>