<svg version="1.1" xmlns="http://www.w3.org/2000/svg" xmlns:xlink="http://www.w3.org/1999/xlink" width="179" height="255"><defs></defs><g><g transform="translate(-346,-325) scale(1,1)"><rect fill="#C0C0C0" stroke="none" x="363" y="387" width="129" height="190" opacity="0.2"></rect></g><g transform="translate(-346,-325) scale(1,1)"><rect fill="#ffffff" stroke="none" x="356" y="380" width="129" height="190"></rect></g><g transform="translate(-346,-325) scale(1,1)"><path fill="none" stroke="#000000" d="M 356 380 L 485 380 L 485 570 L 356 570 L 356 380 Z Z" stroke-miterlimit="10"></path></g><g transform="translate(-346,-325) scale(1,1)"><path fill="none" stroke="#000000" d="M 356 405 L 485 405" stroke-miterlimit="10"></path></g><g transform="translate(-346,-325) scale(1,1)"><path fill="none" stroke="#000000" d="M 356 458 L 485 458" stroke-miterlimit="10"></path></g><g transform="translate(-346,-325) scale(1,1)"><g><path fill="none" stroke="none"></path><text fill="#000000" stroke="none" font-family="Arial" font-size="13px" font-style="normal" font-weight="bold" text-decoration="none" x="380" y="399.5">GWBITMASK</text></g></g><g transform="translate(-346,-325) scale(1,1)"><g><path fill="none" stroke="none"></path><text fill="#000000" stroke="none" font-family="Arial" font-size="13px" font-style="normal" font-weight="normal" text-decoration="none" x="361" y="422.5">+lock</text></g></g><g transform="translate(-346,-325) scale(1,1)"><g><path fill="none" stroke="none"></path><text fill="#000000" stroke="none" font-family="Arial" font-size="13px" font-style="normal" font-weight="normal" text-decoration="none" x="361" y="437.5">+bits</text></g></g><g transform="translate(-346,-325) scale(1,1)"><g><path fill="none" stroke="none"></path><text fill="#000000" stroke="none" font-family="Arial" font-size="13px" font-style="normal" font-weight="normal" text-decoration="none" x="361" y="452.5">+length</text></g></g><g transform="translate(-346,-325) scale(1,1)"><g><path fill="none" stroke="none"></path><text fill="#000000" stroke="none" font-family="Arial" font-size="13px" font-style="normal" font-weight="normal" text-decoration="none" x="361" y="475.5">+bitmask_init()</text></g></g><g transform="translate(-346,-325) scale(1,1)"><g><path fill="none" stroke="none"></path><text fill="#000000" stroke="none" font-family="Arial" font-size="13px" font-style="normal" font-weight="normal" text-decoration="none" x="361" y="490.5">+bitmask_free()</text></g></g><g transform="translate(-346,-325) scale(1,1)"><g><path fill="none" stroke="none"></path><text fill="#000000" stroke="none" font-family="Arial" font-size="13px" font-style="normal" font-weight="normal" text-decoration="none" x="361" y="505.5">+bitmask_set()</text></g></g><g transform="translate(-346,-325) scale(1,1)"><g><path fill="none" stroke="none"></path><text fill="#000000" stroke="none" font-family="Arial" font-size="13px" font-style="normal" font-weight="normal" text-decoration="none" x="361" y="520.5">+bitmask_clear()</text></g></g><g transform="translate(-346,-325) scale(1,1)"><g><path fill="none" stroke="none"></path><text fill="#000000" stroke="none" font-family="Arial" font-size="13px" font-style="normal" font-weight="normal" text-decoration="none" x="361" y="535.5">+bitmask_isset()</text></g></g><g transform="translate(-346,-325) scale(1,1)"><g><path fill="none" stroke="none"></path><text fill="#000000" stroke="none" font-family="Arial" font-size="13px" font-style="normal" font-weight="normal" text-decoration="none" x="361" y="550.5">+bitmask_isallclear()</text></g></g><g transform="translate(-346,-325) scale(1,1)"><g><path fill="none" stroke="none"></path><text fill="#000000" stroke="none" font-family="Arial" font-size="13px" font-style="normal" font-weight="normal" text-decoration="none" x="361" y="565.5">+bitmask_copy()</text></g></g><g transform="translate(-346,-325) scale(1,1)"><path fill="none" stroke="#000000" d="M 420 380 L 420 360 L 514 360 L 514 475 L 485 475" stroke-miterlimit="10"></path></g><g transform="translate(-346,-325) scale(1,1)"><path fill="none" stroke="#000000" d="M 495.16267485762415 470.790482243984 L 485 475 L 495.16267485762415 479.209517756016" stroke-miterlimit="10"></path></g><g transform="translate(-346,-325) scale(1,1)"><g><path fill="none" stroke="none"></path><text fill="#000000" stroke="none" font-family="Arial" font-size="13px" font-style="normal" font-weight="normal" text-decoration="none" x="436" y="348">+next</text></g></g></g></svg>