<svg version="1.1" xmlns="http://www.w3.org/2000/svg" xmlns:xlink="http://www.w3.org/1999/xlink" width="460" height="472"><defs></defs><g><g transform="translate(-58,-290) scale(1,1)"><rect fill="#C0C0C0" stroke="none" x="295" y="307" width="169" height="280" opacity="0.2"></rect></g><g transform="translate(-58,-290) scale(1,1)"><rect fill="#ffffff" stroke="none" x="288" y="300" width="169" height="280"></rect></g><g transform="translate(-58,-290) scale(1,1)"><path fill="none" stroke="#000000" d="M 288 300 L 457 300 L 457 580 L 288 580 L 288 300 Z Z" stroke-miterlimit="10"></path></g><g transform="translate(-58,-290) scale(1,1)"><path fill="none" stroke="#000000" d="M 288 325 L 457 325" stroke-miterlimit="10"></path></g><g transform="translate(-58,-290) scale(1,1)"><path fill="none" stroke="#000000" d="M 288 408 L 457 408" stroke-miterlimit="10"></path></g><g transform="translate(-58,-290) scale(1,1)"><g><path fill="none" stroke="none"></path><text fill="#000000" stroke="none" font-family="Arial" font-size="13px" font-style="normal" font-weight="bold" text-decoration="none" x="348.5" y="319.5">GWBUF</text></g></g><g transform="translate(-58,-290) scale(1,1)"><g><path fill="none" stroke="none"></path><text fill="#000000" stroke="none" font-family="Arial" font-size="13px" font-style="normal" font-weight="normal" text-decoration="none" x="293" y="342.5">+gwbuf_lock</text></g></g><g transform="translate(-58,-290) scale(1,1)"><g><path fill="none" stroke="none"></path><text fill="#000000" stroke="none" font-family="Arial" font-size="13px" font-style="normal" font-weight="normal" text-decoration="none" x="293" y="357.5">+start</text></g></g><g transform="translate(-58,-290) scale(1,1)"><g><path fill="none" stroke="none"></path><text fill="#000000" stroke="none" font-family="Arial" font-size="13px" font-style="normal" font-weight="normal" text-decoration="none" x="293" y="372.5">+end</text></g></g><g transform="translate(-58,-290) scale(1,1)"><g><path fill="none" stroke="none"></path><text fill="#000000" stroke="none" font-family="Arial" font-size="13px" font-style="normal" font-weight="normal" text-decoration="none" x="293" y="387.5">+gwbuf_info</text></g></g><g transform="translate(-58,-290) scale(1,1)"><g><path fill="none" stroke="none"></path><text fill="#000000" stroke="none" font-family="Arial" font-size="13px" font-style="normal" font-weight="normal" text-decoration="none" x="293" y="402.5">+gwbuf_type</text></g></g><g transform="translate(-58,-290) scale(1,1)"><g><path fill="none" stroke="none"></path><text fill="#000000" stroke="none" font-family="Arial" font-size="13px" font-style="normal" font-weight="normal" text-decoration="none" x="293" y="425.5">+gwbuf_clone()</text></g></g><g transform="translate(-58,-290) scale(1,1)"><g><path fill="none" stroke="none"></path><text fill="#000000" stroke="none" font-family="Arial" font-size="13px" font-style="normal" font-weight="normal" text-decoration="none" x="293" y="440.5">+gwbuf_append()</text></g></g><g transform="translate(-58,-290) scale(1,1)"><g><path fill="none" stroke="none"></path><text fill="#000000" stroke="none" font-family="Arial" font-size="13px" font-style="normal" font-weight="normal" text-decoration="none" x="293" y="455.5">+gwbuf_consume()</text></g></g><g transform="translate(-58,-290) scale(1,1)"><g><path fill="none" stroke="none"></path><text fill="#000000" stroke="none" font-family="Arial" font-size="13px" font-style="normal" font-weight="normal" text-decoration="none" x="293" y="470.5">+gwbuf_trim()</text></g></g><g transform="translate(-58,-290) scale(1,1)"><g><path fill="none" stroke="none"></path><text fill="#000000" stroke="none" font-family="Arial" font-size="13px" font-style="normal" font-weight="normal" text-decoration="none" x="293" y="485.5">+gwbuf_rtrim()</text></g></g><g transform="translate(-58,-290) scale(1,1)"><g><path fill="none" stroke="none"></path><text fill="#000000" stroke="none" font-family="Arial" font-size="13px" font-style="normal" font-weight="normal" text-decoration="none" x="293" y="500.5">+gwbuf_length()</text></g></g><g transform="translate(-58,-290) scale(1,1)"><g><path fill="none" stroke="none"></path><text fill="#000000" stroke="none" font-family="Arial" font-size="13px" font-style="normal" font-weight="normal" text-decoration="none" x="293" y="515.5">+gwbuf_clone_portion()</text></g></g><g transform="translate(-58,-290) scale(1,1)"><g><path fill="none" stroke="none"></path><text fill="#000000" stroke="none" font-family="Arial" font-size="13px" font-style="normal" font-weight="normal" text-decoration="none" x="293" y="530.5">+gwbuf_make_contiguous()</text></g></g><g transform="translate(-58,-290) scale(1,1)"><g><path fill="none" stroke="none"></path><text fill="#000000" stroke="none" font-family="Arial" font-size="13px" font-style="normal" font-weight="normal" text-decoration="none" x="293" y="545.5">+gwbuf_add_hint()</text></g></g><g transform="translate(-58,-290) scale(1,1)"><g><path fill="none" stroke="none"></path><text fill="#000000" stroke="none" font-family="Arial" font-size="13px" font-style="normal" font-weight="normal" text-decoration="none" x="293" y="560.5">+gwbuf_add_buffer_object()</text></g></g><g transform="translate(-58,-290) scale(1,1)"><g><path fill="none" stroke="none"></path><text fill="#000000" stroke="none" font-family="Arial" font-size="13px" font-style="normal" font-weight="normal" text-decoration="none" x="293" y="575.5">+gwbuf_add_property()</text></g></g><g transform="translate(-58,-290) scale(1,1)"><rect fill="#C0C0C0" stroke="none" x="419" y="687" width="96" height="72" opacity="0.2"></rect></g><g transform="translate(-58,-290) scale(1,1)"><rect fill="#ffffff" stroke="none" x="412" y="680" width="96" height="72"></rect></g><g transform="translate(-58,-290) scale(1,1)"><path fill="none" stroke="#000000" d="M 412 680 L 508 680 L 508 752 L 412 752 L 412 680 Z Z" stroke-miterlimit="10"></path></g><g transform="translate(-58,-290) scale(1,1)"><path fill="none" stroke="#000000" d="M 412 705 L 508 705" stroke-miterlimit="10"></path></g><g transform="translate(-58,-290) scale(1,1)"><path fill="none" stroke="#000000" d="M 412 743 L 508 743" stroke-miterlimit="10"></path></g><g transform="translate(-58,-290) scale(1,1)"><g><path fill="none" stroke="none"></path><text fill="#000000" stroke="none" font-family="Arial" font-size="13px" font-style="normal" font-weight="bold" text-decoration="none" x="416.5" y="699.5">SHARED_BUF</text></g></g><g transform="translate(-58,-290) scale(1,1)"><g><path fill="none" stroke="none"></path><text fill="#000000" stroke="none" font-family="Arial" font-size="13px" font-style="normal" font-weight="normal" text-decoration="none" x="417" y="722.5">+data</text></g></g><g transform="translate(-58,-290) scale(1,1)"><g><path fill="none" stroke="none"></path><text fill="#000000" stroke="none" font-family="Arial" font-size="13px" font-style="normal" font-weight="normal" text-decoration="none" x="417" y="737.5">+refcount</text></g></g><g transform="translate(-58,-290) scale(1,1)"><rect fill="#C0C0C0" stroke="none" x="231" y="663" width="50" height="44" opacity="0.2"></rect></g><g transform="translate(-58,-290) scale(1,1)"><rect fill="#ffffff" stroke="none" x="224" y="656" width="50" height="44"></rect></g><g transform="translate(-58,-290) scale(1,1)"><path fill="none" stroke="#000000" d="M 224 656 L 274 656 L 274 700 L 224 700 L 224 656 Z Z" stroke-miterlimit="10"></path></g><g transform="translate(-58,-290) scale(1,1)"><path fill="none" stroke="#000000" d="M 224 681 L 274 681" stroke-miterlimit="10"></path></g><g transform="translate(-58,-290) scale(1,1)"><path fill="none" stroke="#000000" d="M 224 691 L 274 691" stroke-miterlimit="10"></path></g><g transform="translate(-58,-290) scale(1,1)"><g><path fill="none" stroke="none"></path><text fill="#000000" stroke="none" font-family="Arial" font-size="13px" font-style="normal" font-weight="bold" text-decoration="none" x="234" y="675.5">HINT</text></g></g><g transform="translate(-58,-290) scale(1,1)"><rect fill="#C0C0C0" stroke="none" x="75" y="527" width="114" height="72" opacity="0.2"></rect></g><g transform="translate(-58,-290) scale(1,1)"><rect fill="#ffffff" stroke="none" x="68" y="520" width="114" height="72"></rect></g><g transform="translate(-58,-290) scale(1,1)"><path fill="none" stroke="#000000" d="M 68 520 L 182 520 L 182 592 L 68 592 L 68 520 Z Z" stroke-miterlimit="10"></path></g><g transform="translate(-58,-290) scale(1,1)"><path fill="none" stroke="#000000" d="M 68 545 L 182 545" stroke-miterlimit="10"></path></g><g transform="translate(-58,-290) scale(1,1)"><path fill="none" stroke="#000000" d="M 68 583 L 182 583" stroke-miterlimit="10"></path></g><g transform="translate(-58,-290) scale(1,1)"><g><path fill="none" stroke="none"></path><text fill="#000000" stroke="none" font-family="Arial" font-size="13px" font-style="normal" font-weight="bold" text-decoration="none" x="72.5" y="539.5">BUF_PROPERTY</text></g></g><g transform="translate(-58,-290) scale(1,1)"><g><path fill="none" stroke="none"></path><text fill="#000000" stroke="none" font-family="Arial" font-size="13px" font-style="normal" font-weight="normal" text-decoration="none" x="73" y="562.5">+name</text></g></g><g transform="translate(-58,-290) scale(1,1)"><g><path fill="none" stroke="none"></path><text fill="#000000" stroke="none" font-family="Arial" font-size="13px" font-style="normal" font-weight="normal" text-decoration="none" x="73" y="577.5">+value</text></g></g><g transform="translate(-58,-290) scale(1,1)"><path fill="none" stroke="#000000" d="M 448.2028985507246 679 L 416.95652173913044 581" stroke-miterlimit="10"></path></g><g transform="translate(-58,-290) scale(1,1)"><path fill="#FFFFFF" stroke="none" d="M 424.05426731382613 589.4036901273719 L 416.95652173913044 581 L 416.03307949007944 591.9611703030592 L 423.63953950104764 601.9603738896494"></path></g><g transform="translate(-58,-290) scale(1,1)"><path fill="none" stroke="#000000" d="M 424.05426731382613 589.4036901273719 L 416.95652173913044 581 L 416.03307949007944 591.9611703030592 L 423.63953950104764 601.9603738896494 L 424.05426731382613 589.4036901273719" stroke-miterlimit="10"></path></g><g transform="translate(-58,-290) scale(1,1)"><g><path fill="none" stroke="none"></path><text fill="#000000" stroke="none" font-family="Arial" font-size="13px" font-style="normal" font-weight="normal" text-decoration="none" x="435" y="620">+sbuf</text></g></g><g transform="translate(-58,-290) scale(1,1)"><g><path fill="none" stroke="none"></path><text fill="#000000" stroke="none" font-family="Arial" font-size="13px" font-style="normal" font-weight="normal" text-decoration="none" x="450.2028985507246" y="661">1</text></g></g><g transform="translate(-58,-290) scale(1,1)"><g><path fill="none" stroke="none"></path><text fill="#000000" stroke="none" font-family="Arial" font-size="13px" font-style="normal" font-weight="normal" text-decoration="none" x="424.95652173913044" y="604">1..*</text></g></g><g transform="translate(-58,-290) scale(1,1)"><path fill="none" stroke="#000000" d="M 124.69166666666666 519 L 124 436 L 287 438.6290322580645" stroke-miterlimit="10"></path></g><g transform="translate(-58,-290) scale(1,1)"><path fill="#FFFFFF" stroke="none" d="M 276.7707601544613 442.67410978296357 L 287 438.6290322580645 L 276.90653339055456 434.25616914518184 L 265.00286104429324 438.2742396942628"></path></g><g transform="translate(-58,-290) scale(1,1)"><path fill="none" stroke="#000000" d="M 276.7707601544613 442.67410978296357 L 287 438.6290322580645 L 276.90653339055456 434.25616914518184 L 265.00286104429324 438.2742396942628 L 276.7707601544613 442.67410978296357" stroke-miterlimit="10"></path></g><g transform="translate(-58,-290) scale(1,1)"><g><path fill="none" stroke="none"></path><text fill="#000000" stroke="none" font-family="Arial" font-size="13px" font-style="normal" font-weight="normal" text-decoration="none" x="176" y="429">+properties</text></g></g><g transform="translate(-58,-290) scale(1,1)"><path fill="none" stroke="#000000" d="M 260.88655462184875 655 L 299.1302521008403 581" stroke-miterlimit="10"></path></g><g transform="translate(-58,-290) scale(1,1)"><path fill="#FFFFFF" stroke="none" d="M 298.2040135631093 591.960934365793 L 299.1302521008403 581 L 290.7247515316215 588.095601467167 L 289.02965047631426 600.544253549896"></path></g><g transform="translate(-58,-290) scale(1,1)"><path fill="none" stroke="#000000" d="M 298.2040135631093 591.960934365793 L 299.1302521008403 581 L 290.7247515316215 588.095601467167 L 289.02965047631426 600.544253549896 L 298.2040135631093 591.960934365793" stroke-miterlimit="10"></path></g><g transform="translate(-58,-290) scale(1,1)"><g><path fill="none" stroke="none"></path><text fill="#000000" stroke="none" font-family="Arial" font-size="13px" font-style="normal" font-weight="normal" text-decoration="none" x="252" y="616">+hint</text></g></g><g transform="translate(-58,-290) scale(1,1)"><g><path fill="none" stroke="none"></path><text fill="#000000" stroke="none" font-family="Arial" font-size="13px" font-style="normal" font-weight="normal" text-decoration="none" x="278.88655462184875" y="648">1</text></g></g><g transform="translate(-58,-290) scale(1,1)"><g><path fill="none" stroke="none"></path><text fill="#000000" stroke="none" font-family="Arial" font-size="13px" font-style="normal" font-weight="normal" text-decoration="none" x="297.1302521008403" y="612">1</text></g></g><g transform="translate(-58,-290) scale(1,1)"><path fill="none" stroke="#000000" d="M 249 700 L 249 720 L 304 720 L 304 678 L 274 678" stroke-miterlimit="10"></path></g><g transform="translate(-58,-290) scale(1,1)"><path fill="none" stroke="#000000" d="M 284.16267485762415 673.790482243984 L 274 678 L 284.16267485762415 682.209517756016" stroke-miterlimit="10"></path></g><g transform="translate(-58,-290) scale(1,1)"><g><path fill="none" stroke="none"></path><text fill="#000000" stroke="none" font-family="Arial" font-size="13px" font-style="normal" font-weight="normal" text-decoration="none" x="260" y="740">+next</text></g></g><g transform="translate(-58,-290) scale(1,1)"><path fill="none" stroke="#000000" d="M 152 592 L 152 608 L 212 608 L 212 560 L 182 560" stroke-miterlimit="10"></path></g><g transform="translate(-58,-290) scale(1,1)"><path fill="none" stroke="#000000" d="M 192.16267485762415 555.790482243984 L 182 560 L 192.16267485762415 564.209517756016" stroke-miterlimit="10"></path></g><g transform="translate(-58,-290) scale(1,1)"><g><path fill="none" stroke="none"></path><text fill="#000000" stroke="none" font-family="Arial" font-size="13px" font-style="normal" font-weight="normal" text-decoration="none" x="151" y="624">+next</text></g></g></g></svg>