<svg version="1.1" xmlns="http://www.w3.org/2000/svg" xmlns:xlink="http://www.w3.org/1999/xlink" width="391" height="284"><defs></defs><g><g transform="translate(-266,-302) scale(1,1)"><rect fill="#C0C0C0" stroke="none" x="283" y="367" width="128" height="175" opacity="0.2"></rect></g><g transform="translate(-266,-302) scale(1,1)"><rect fill="#ffffff" stroke="none" x="276" y="360" width="128" height="175"></rect></g><g transform="translate(-266,-302) scale(1,1)"><path fill="none" stroke="#000000" d="M 276 360 L 404 360 L 404 535 L 276 535 L 276 360 Z Z" stroke-miterlimit="10"></path></g><g transform="translate(-266,-302) scale(1,1)"><path fill="none" stroke="#000000" d="M 276 385 L 404 385" stroke-miterlimit="10"></path></g><g transform="translate(-266,-302) scale(1,1)"><path fill="none" stroke="#000000" d="M 276 453 L 404 453" stroke-miterlimit="10"></path></g><g transform="translate(-266,-302) scale(1,1)"><g><path fill="none" stroke="none"></path><text fill="#000000" stroke="none" font-family="Arial" font-size="13px" font-style="normal" font-weight="bold" text-decoration="none" x="301" y="379.5">HASHTABLE</text></g></g><g transform="translate(-266,-302) scale(1,1)"><g><path fill="none" stroke="none"></path><text fill="#000000" stroke="none" font-family="Arial" font-size="13px" font-style="normal" font-weight="normal" text-decoration="none" x="281" y="402.5">+hashsize</text></g></g><g transform="translate(-266,-302) scale(1,1)"><g><path fill="none" stroke="none"></path><text fill="#000000" stroke="none" font-family="Arial" font-size="13px" font-style="normal" font-weight="normal" text-decoration="none" x="281" y="417.5">+spin</text></g></g><g transform="translate(-266,-302) scale(1,1)"><g><path fill="none" stroke="none"></path><text fill="#000000" stroke="none" font-family="Arial" font-size="13px" font-style="normal" font-weight="normal" text-decoration="none" x="281" y="432.5">+n_readers</text></g></g><g transform="translate(-266,-302) scale(1,1)"><g><path fill="none" stroke="none"></path><text fill="#000000" stroke="none" font-family="Arial" font-size="13px" font-style="normal" font-weight="normal" text-decoration="none" x="281" y="447.5">+writelock</text></g></g><g transform="translate(-266,-302) scale(1,1)"><g><path fill="none" stroke="none"></path><text fill="#000000" stroke="none" font-family="Arial" font-size="13px" font-style="normal" font-weight="normal" text-decoration="none" x="281" y="470.5">+hashtable_add()</text></g></g><g transform="translate(-266,-302) scale(1,1)"><g><path fill="none" stroke="none"></path><text fill="#000000" stroke="none" font-family="Arial" font-size="13px" font-style="normal" font-weight="normal" text-decoration="none" x="281" y="485.5">+hashtable_delete()</text></g></g><g transform="translate(-266,-302) scale(1,1)"><g><path fill="none" stroke="none"></path><text fill="#000000" stroke="none" font-family="Arial" font-size="13px" font-style="normal" font-weight="normal" text-decoration="none" x="281" y="500.5">+hashtable_fetch()</text></g></g><g transform="translate(-266,-302) scale(1,1)"><g><path fill="none" stroke="none"></path><text fill="#000000" stroke="none" font-family="Arial" font-size="13px" font-style="normal" font-weight="normal" text-decoration="none" x="281" y="515.5">+hashtable_stats()</text></g></g><g transform="translate(-266,-302) scale(1,1)"><g><path fill="none" stroke="none"></path><text fill="#000000" stroke="none" font-family="Arial" font-size="13px" font-style="normal" font-weight="normal" text-decoration="none" x="281" y="530.5">+hashtable_iterator()</text></g></g><g transform="translate(-266,-302) scale(1,1)"><rect fill="#C0C0C0" stroke="none" x="511" y="511" width="102" height="72" opacity="0.2"></rect></g><g transform="translate(-266,-302) scale(1,1)"><rect fill="#ffffff" stroke="none" x="504" y="504" width="102" height="72"></rect></g><g transform="translate(-266,-302) scale(1,1)"><path fill="none" stroke="#000000" d="M 504 504 L 606 504 L 606 576 L 504 576 L 504 504 Z Z" stroke-miterlimit="10"></path></g><g transform="translate(-266,-302) scale(1,1)"><path fill="none" stroke="#000000" d="M 504 529 L 606 529" stroke-miterlimit="10"></path></g><g transform="translate(-266,-302) scale(1,1)"><path fill="none" stroke="#000000" d="M 504 567 L 606 567" stroke-miterlimit="10"></path></g><g transform="translate(-266,-302) scale(1,1)"><g><path fill="none" stroke="none"></path><text fill="#000000" stroke="none" font-family="Arial" font-size="13px" font-style="normal" font-weight="bold" text-decoration="none" x="508.5" y="523.5">HASHENTRIES</text></g></g><g transform="translate(-266,-302) scale(1,1)"><g><path fill="none" stroke="none"></path><text fill="#000000" stroke="none" font-family="Arial" font-size="13px" font-style="normal" font-weight="normal" text-decoration="none" x="509" y="546.5">+key</text></g></g><g transform="translate(-266,-302) scale(1,1)"><g><path fill="none" stroke="none"></path><text fill="#000000" stroke="none" font-family="Arial" font-size="13px" font-style="normal" font-weight="normal" text-decoration="none" x="509" y="561.5">+value</text></g></g><g transform="translate(-266,-302) scale(1,1)"><path fill="none" stroke="#000000" d="M 503 517.5069767441861 L 405 475.1162790697675" stroke-miterlimit="10"></path></g><g transform="translate(-266,-302) scale(1,1)"><path fill="#FFFFFF" stroke="none" d="M 415.99866910017636 475.28738729524457 L 405 475.1162790697675 L 412.65624171820997 483.01450436108075 L 425.1919299669716 483.8504627298994"></path></g><g transform="translate(-266,-302) scale(1,1)"><path fill="none" stroke="#000000" d="M 415.99866910017636 475.28738729524457 L 405 475.1162790697675 L 412.65624171820997 483.01450436108075 L 425.1919299669716 483.8504627298994 L 415.99866910017636 475.28738729524457" stroke-miterlimit="10"></path></g><g transform="translate(-266,-302) scale(1,1)"><g><path fill="none" stroke="none"></path><text fill="#000000" stroke="none" font-family="Arial" font-size="13px" font-style="normal" font-weight="normal" text-decoration="none" x="424" y="468">+entries</text></g></g><g transform="translate(-266,-302) scale(1,1)"><path fill="none" stroke="#000000" d="M 555 504 L 555 484 L 636 484 L 636 526 L 606 526" stroke-miterlimit="10"></path></g><g transform="translate(-266,-302) scale(1,1)"><path fill="none" stroke="#000000" d="M 616.1626748576241 521.790482243984 L 606 526 L 616.1626748576241 530.209517756016" stroke-miterlimit="10"></path></g><g transform="translate(-266,-302) scale(1,1)"><g><path fill="none" stroke="none"></path><text fill="#000000" stroke="none" font-family="Arial" font-size="13px" font-style="normal" font-weight="normal" text-decoration="none" x="615" y="547">+next</text></g></g><g transform="translate(-266,-302) scale(1,1)"><rect fill="#C0C0C0" stroke="none" x="519" y="319" width="113" height="85" opacity="0.2"></rect></g><g transform="translate(-266,-302) scale(1,1)"><rect fill="#ffffff" stroke="none" x="512" y="312" width="113" height="85"></rect></g><g transform="translate(-266,-302) scale(1,1)"><path fill="none" stroke="#000000" d="M 512 312 L 625 312 L 625 397 L 512 397 L 512 312 Z Z" stroke-miterlimit="10"></path></g><g transform="translate(-266,-302) scale(1,1)"><path fill="none" stroke="#000000" d="M 512 337 L 625 337" stroke-miterlimit="10"></path></g><g transform="translate(-266,-302) scale(1,1)"><path fill="none" stroke="#000000" d="M 512 375 L 625 375" stroke-miterlimit="10"></path></g><g transform="translate(-266,-302) scale(1,1)"><g><path fill="none" stroke="none"></path><text fill="#000000" stroke="none" font-family="Arial" font-size="13px" font-style="normal" font-weight="bold" text-decoration="none" x="517.5" y="331.5">HASHITERATOR</text></g></g><g transform="translate(-266,-302) scale(1,1)"><g><path fill="none" stroke="none"></path><text fill="#000000" stroke="none" font-family="Arial" font-size="13px" font-style="normal" font-weight="normal" text-decoration="none" x="517" y="354.5">+chain</text></g></g><g transform="translate(-266,-302) scale(1,1)"><g><path fill="none" stroke="none"></path><text fill="#000000" stroke="none" font-family="Arial" font-size="13px" font-style="normal" font-weight="normal" text-decoration="none" x="517" y="369.5">+depth</text></g></g><g transform="translate(-266,-302) scale(1,1)"><g><path fill="none" stroke="none"></path><text fill="#000000" stroke="none" font-family="Arial" font-size="13px" font-style="normal" font-weight="normal" text-decoration="none" x="517" y="392.5">+hashtable_next()</text></g></g><g transform="translate(-266,-302) scale(1,1)"><path fill="none" stroke="#000000" d="M 511 377.25 L 405 420.4868421052632" stroke-miterlimit="10"></path></g><g transform="translate(-266,-302) scale(1,1)"><path fill="none" stroke="#000000" d="M 412.82010550804074 412.75082569866794 L 405 420.4868421052632 L 415.9998392948038 420.5463020791192" stroke-miterlimit="10"></path></g><g transform="translate(-266,-302) scale(1,1)"><g><path fill="none" stroke="none"></path><text fill="#000000" stroke="none" font-family="Arial" font-size="13px" font-style="normal" font-weight="normal" text-decoration="none" x="466" y="410">+table</text></g></g></g></svg>