<svg version="1.1" xmlns="http://www.w3.org/2000/svg" xmlns:xlink="http://www.w3.org/1999/xlink" width="889" height="816.5"><defs></defs><g><g transform="translate(-110,-25.5) scale(1,1)"><rect fill="#C0C0C0" stroke="none" x="431" y="63" width="276" height="550" opacity="0.2"></rect></g><g transform="translate(-110,-25.5) scale(1,1)"><rect fill="#ffffff" stroke="none" x="424" y="56" width="276" height="550"></rect></g><g transform="translate(-110,-25.5) scale(1,1)"><path fill="none" stroke="#000000" d="M 424 56 L 700 56 L 700 606 L 424 606 L 424 56 Z Z" stroke-miterlimit="10"></path></g><g transform="translate(-110,-25.5) scale(1,1)"><path fill="none" stroke="#000000" d="M 424 81 L 700 81" stroke-miterlimit="10"></path></g><g transform="translate(-110,-25.5) scale(1,1)"><path fill="none" stroke="#000000" d="M 424 269 L 700 269" stroke-miterlimit="10"></path></g><g transform="translate(-110,-25.5) scale(1,1)"><g><path fill="none" stroke="none"></path><text fill="#000000" stroke="none" font-family="Arial" font-size="13px" font-style="normal" font-weight="bold" text-decoration="none" x="533" y="75.5">SERVICE</text></g></g><g transform="translate(-110,-25.5) scale(1,1)"><g><path fill="none" stroke="none"></path><text fill="#000000" stroke="none" font-family="Arial" font-size="13px" font-style="normal" font-weight="normal" text-decoration="none" x="429" y="98.5">+name</text></g></g><g transform="translate(-110,-25.5) scale(1,1)"><g><path fill="none" stroke="none"></path><text fill="#000000" stroke="none" font-family="Arial" font-size="13px" font-style="normal" font-weight="normal" text-decoration="none" x="429" y="113.5">+state</text></g></g><g transform="translate(-110,-25.5) scale(1,1)"><g><path fill="none" stroke="none"></path><text fill="#000000" stroke="none" font-family="Arial" font-size="13px" font-style="normal" font-weight="normal" text-decoration="none" x="429" y="128.5">+spin</text></g></g><g transform="translate(-110,-25.5) scale(1,1)"><g><path fill="none" stroke="none"></path><text fill="#000000" stroke="none" font-family="Arial" font-size="13px" font-style="normal" font-weight="normal" text-decoration="none" x="429" y="143.5">+routerModule</text></g></g><g transform="translate(-110,-25.5) scale(1,1)"><g><path fill="none" stroke="none"></path><text fill="#000000" stroke="none" font-family="Arial" font-size="13px" font-style="normal" font-weight="normal" text-decoration="none" x="429" y="158.5">+version_string</text></g></g><g transform="translate(-110,-25.5) scale(1,1)"><g><path fill="none" stroke="none"></path><text fill="#000000" stroke="none" font-family="Arial" font-size="13px" font-style="normal" font-weight="normal" text-decoration="none" x="429" y="173.5">+enable_root</text></g></g><g transform="translate(-110,-25.5) scale(1,1)"><g><path fill="none" stroke="none"></path><text fill="#000000" stroke="none" font-family="Arial" font-size="13px" font-style="normal" font-weight="normal" text-decoration="none" x="429" y="188.5">+localhost_match_wildcard</text></g></g><g transform="translate(-110,-25.5) scale(1,1)"><g><path fill="none" stroke="none"></path><text fill="#000000" stroke="none" font-family="Arial" font-size="13px" font-style="normal" font-weight="normal" text-decoration="none" x="429" y="203.5">+svc_config_version</text></g></g><g transform="translate(-110,-25.5) scale(1,1)"><g><path fill="none" stroke="none"></path><text fill="#000000" stroke="none" font-family="Arial" font-size="13px" font-style="normal" font-weight="normal" text-decoration="none" x="429" y="218.5">+svc_do_shutdown</text></g></g><g transform="translate(-110,-25.5) scale(1,1)"><g><path fill="none" stroke="none"></path><text fill="#000000" stroke="none" font-family="Arial" font-size="13px" font-style="normal" font-weight="normal" text-decoration="none" x="429" y="233.5">+users_table_spin</text></g></g><g transform="translate(-110,-25.5) scale(1,1)"><g><path fill="none" stroke="none"></path><text fill="#000000" stroke="none" font-family="Arial" font-size="13px" font-style="normal" font-weight="normal" text-decoration="none" x="429" y="248.5">+rate_limit</text></g></g><g transform="translate(-110,-25.5) scale(1,1)"><g><path fill="none" stroke="none"></path><text fill="#000000" stroke="none" font-family="Arial" font-size="13px" font-style="normal" font-weight="normal" text-decoration="none" x="429" y="263.5">+weightby</text></g></g><g transform="translate(-110,-25.5) scale(1,1)"><g><path fill="none" stroke="none"></path><text fill="#000000" stroke="none" font-family="Arial" font-size="13px" font-style="normal" font-weight="normal" text-decoration="none" x="429" y="286.5">+service_find()</text></g></g><g transform="translate(-110,-25.5) scale(1,1)"><g><path fill="none" stroke="none"></path><text fill="#000000" stroke="none" font-family="Arial" font-size="13px" font-style="normal" font-weight="normal" text-decoration="none" x="429" y="301.5">+service_isvalid()</text></g></g><g transform="translate(-110,-25.5) scale(1,1)"><g><path fill="none" stroke="none"></path><text fill="#000000" stroke="none" font-family="Arial" font-size="13px" font-style="normal" font-weight="normal" text-decoration="none" x="429" y="316.5">+serviceAddProtocol()</text></g></g><g transform="translate(-110,-25.5) scale(1,1)"><g><path fill="none" stroke="none"></path><text fill="#000000" stroke="none" font-family="Arial" font-size="13px" font-style="normal" font-weight="normal" text-decoration="none" x="429" y="331.5">+serviceHasProtocol()</text></g></g><g transform="translate(-110,-25.5) scale(1,1)"><g><path fill="none" stroke="none"></path><text fill="#000000" stroke="none" font-family="Arial" font-size="13px" font-style="normal" font-weight="normal" text-decoration="none" x="429" y="346.5">+serviceAddBackend()</text></g></g><g transform="translate(-110,-25.5) scale(1,1)"><g><path fill="none" stroke="none"></path><text fill="#000000" stroke="none" font-family="Arial" font-size="13px" font-style="normal" font-weight="normal" text-decoration="none" x="429" y="361.5">+serviceHasBackend()</text></g></g><g transform="translate(-110,-25.5) scale(1,1)"><g><path fill="none" stroke="none"></path><text fill="#000000" stroke="none" font-family="Arial" font-size="13px" font-style="normal" font-weight="normal" text-decoration="none" x="429" y="376.5">+serviceAddRouterOption()</text></g></g><g transform="translate(-110,-25.5) scale(1,1)"><g><path fill="none" stroke="none"></path><text fill="#000000" stroke="none" font-family="Arial" font-size="13px" font-style="normal" font-weight="normal" text-decoration="none" x="429" y="391.5">+servicerClearRotuerOptions()</text></g></g><g transform="translate(-110,-25.5) scale(1,1)"><g><path fill="none" stroke="none"></path><text fill="#000000" stroke="none" font-family="Arial" font-size="13px" font-style="normal" font-weight="normal" text-decoration="none" x="429" y="406.5">+serviceStart()</text></g></g><g transform="translate(-110,-25.5) scale(1,1)"><g><path fill="none" stroke="none"></path><text fill="#000000" stroke="none" font-family="Arial" font-size="13px" font-style="normal" font-weight="normal" text-decoration="none" x="429" y="421.5">+serviceStop()</text></g></g><g transform="translate(-110,-25.5) scale(1,1)"><g><path fill="none" stroke="none"></path><text fill="#000000" stroke="none" font-family="Arial" font-size="13px" font-style="normal" font-weight="normal" text-decoration="none" x="429" y="436.5">+serviceRestart()</text></g></g><g transform="translate(-110,-25.5) scale(1,1)"><g><path fill="none" stroke="none"></path><text fill="#000000" stroke="none" font-family="Arial" font-size="13px" font-style="normal" font-weight="normal" text-decoration="none" x="429" y="451.5">+serviceSetUser()</text></g></g><g transform="translate(-110,-25.5) scale(1,1)"><g><path fill="none" stroke="none"></path><text fill="#000000" stroke="none" font-family="Arial" font-size="13px" font-style="normal" font-weight="normal" text-decoration="none" x="429" y="466.5">+serviceGetUser()</text></g></g><g transform="translate(-110,-25.5) scale(1,1)"><g><path fill="none" stroke="none"></path><text fill="#000000" stroke="none" font-family="Arial" font-size="13px" font-style="normal" font-weight="normal" text-decoration="none" x="429" y="481.5">+serviceSetFilters()</text></g></g><g transform="translate(-110,-25.5) scale(1,1)"><g><path fill="none" stroke="none"></path><text fill="#000000" stroke="none" font-family="Arial" font-size="13px" font-style="normal" font-weight="normal" text-decoration="none" x="429" y="496.5">+serviceEnableRootUser()</text></g></g><g transform="translate(-110,-25.5) scale(1,1)"><g><path fill="none" stroke="none"></path><text fill="#000000" stroke="none" font-family="Arial" font-size="13px" font-style="normal" font-weight="normal" text-decoration="none" x="429" y="511.5">+serviceWeightBy()</text></g></g><g transform="translate(-110,-25.5) scale(1,1)"><g><path fill="none" stroke="none"></path><text fill="#000000" stroke="none" font-family="Arial" font-size="13px" font-style="normal" font-weight="normal" text-decoration="none" x="429" y="526.5">+serviceGetWeightingParameter()</text></g></g><g transform="translate(-110,-25.5) scale(1,1)"><g><path fill="none" stroke="none"></path><text fill="#000000" stroke="none" font-family="Arial" font-size="13px" font-style="normal" font-weight="normal" text-decoration="none" x="429" y="541.5">+serviceEnableLocalhostMatchWildcardHost()</text></g></g><g transform="translate(-110,-25.5) scale(1,1)"><g><path fill="none" stroke="none"></path><text fill="#000000" stroke="none" font-family="Arial" font-size="13px" font-style="normal" font-weight="normal" text-decoration="none" x="429" y="556.5">+serviceUpdate()</text></g></g><g transform="translate(-110,-25.5) scale(1,1)"><g><path fill="none" stroke="none"></path><text fill="#000000" stroke="none" font-family="Arial" font-size="13px" font-style="normal" font-weight="normal" text-decoration="none" x="429" y="571.5">+serviceUpdate()</text></g></g><g transform="translate(-110,-25.5) scale(1,1)"><g><path fill="none" stroke="none"></path><text fill="#000000" stroke="none" font-family="Arial" font-size="13px" font-style="normal" font-weight="normal" text-decoration="none" x="429" y="586.5">+service_refresh_users()</text></g></g><g transform="translate(-110,-25.5) scale(1,1)"><rect fill="#C0C0C0" stroke="none" x="387" y="695" width="125" height="87" opacity="0.2"></rect></g><g transform="translate(-110,-25.5) scale(1,1)"><rect fill="#ffffff" stroke="none" x="380" y="688" width="125" height="87"></rect></g><g transform="translate(-110,-25.5) scale(1,1)"><path fill="none" stroke="#000000" d="M 380 688 L 505 688 L 505 775 L 380 775 L 380 688 Z Z" stroke-miterlimit="10"></path></g><g transform="translate(-110,-25.5) scale(1,1)"><path fill="none" stroke="#000000" d="M 380 713 L 505 713" stroke-miterlimit="10"></path></g><g transform="translate(-110,-25.5) scale(1,1)"><path fill="none" stroke="#000000" d="M 380 766 L 505 766" stroke-miterlimit="10"></path></g><g transform="translate(-110,-25.5) scale(1,1)"><g><path fill="none" stroke="none"></path><text fill="#000000" stroke="none" font-family="Arial" font-size="13px" font-style="normal" font-weight="bold" text-decoration="none" x="385" y="707.5">SERV_PROTOCOL</text></g></g><g transform="translate(-110,-25.5) scale(1,1)"><g><path fill="none" stroke="none"></path><text fill="#000000" stroke="none" font-family="Arial" font-size="13px" font-style="normal" font-weight="normal" text-decoration="none" x="385" y="730.5">+protocol</text></g></g><g transform="translate(-110,-25.5) scale(1,1)"><g><path fill="none" stroke="none"></path><text fill="#000000" stroke="none" font-family="Arial" font-size="13px" font-style="normal" font-weight="normal" text-decoration="none" x="385" y="745.5">+port</text></g></g><g transform="translate(-110,-25.5) scale(1,1)"><g><path fill="none" stroke="none"></path><text fill="#000000" stroke="none" font-family="Arial" font-size="13px" font-style="normal" font-weight="normal" text-decoration="none" x="385" y="760.5">+address</text></g></g><g transform="translate(-110,-25.5) scale(1,1)"><path fill="none" stroke="#000000" d="M 455.2 687 L 479.2 607" stroke-miterlimit="10"></path></g><g transform="translate(-110,-25.5) scale(1,1)"><path fill="#FFFFFF" stroke="none" d="M 480.3117636227807 617.9436731332337 L 479.2 607 L 472.24779011314615 615.5244810803433 L 472.87834651754036 628.0721782748653"></path></g><g transform="translate(-110,-25.5) scale(1,1)"><path fill="none" stroke="#000000" d="M 480.3117636227807 617.9436731332337 L 479.2 607 L 472.24779011314615 615.5244810803433 L 472.87834651754036 628.0721782748653 L 480.3117636227807 617.9436731332337" stroke-miterlimit="10"></path></g><g transform="translate(-110,-25.5) scale(1,1)"><g><path fill="none" stroke="none"></path><text fill="#000000" stroke="none" font-family="Arial" font-size="13px" font-style="normal" font-weight="normal" text-decoration="none" x="434" y="649">+ports</text></g></g><g transform="translate(-110,-25.5) scale(1,1)"><g><path fill="none" stroke="none"></path><text fill="#000000" stroke="none" font-family="Arial" font-size="13px" font-style="normal" font-weight="normal" text-decoration="none" x="471.2" y="676">*</text></g></g><g transform="translate(-110,-25.5) scale(1,1)"><g><path fill="none" stroke="none"></path><text fill="#000000" stroke="none" font-family="Arial" font-size="13px" font-style="normal" font-weight="normal" text-decoration="none" x="481.2" y="638">1</text></g></g><g transform="translate(-110,-25.5) scale(1,1)"><rect fill="#C0C0C0" stroke="none" x="771" y="707" width="63" height="44" opacity="0.2"></rect></g><g transform="translate(-110,-25.5) scale(1,1)"><rect fill="#ffffff" stroke="none" x="764" y="700" width="63" height="44"></rect></g><g transform="translate(-110,-25.5) scale(1,1)"><path fill="none" stroke="#000000" d="M 764 700 L 827 700 L 827 744 L 764 744 L 764 700 Z Z" stroke-miterlimit="10"></path></g><g transform="translate(-110,-25.5) scale(1,1)"><path fill="none" stroke="#000000" d="M 764 725 L 827 725" stroke-miterlimit="10"></path></g><g transform="translate(-110,-25.5) scale(1,1)"><path fill="none" stroke="#000000" d="M 764 735 L 827 735" stroke-miterlimit="10"></path></g><g transform="translate(-110,-25.5) scale(1,1)"><g><path fill="none" stroke="none"></path><text fill="#000000" stroke="none" font-family="Arial" font-size="13px" font-style="normal" font-weight="bold" text-decoration="none" x="768.5" y="719.5">ROUTER</text></g></g><g transform="translate(-110,-25.5) scale(1,1)"><rect fill="#C0C0C0" stroke="none" x="591" y="759" width="136" height="44" opacity="0.2"></rect></g><g transform="translate(-110,-25.5) scale(1,1)"><rect fill="#ffffff" stroke="none" x="584" y="752" width="136" height="44"></rect></g><g transform="translate(-110,-25.5) scale(1,1)"><path fill="none" stroke="#000000" d="M 584 752 L 720 752 L 720 796 L 584 796 L 584 752 Z Z" stroke-miterlimit="10"></path></g><g transform="translate(-110,-25.5) scale(1,1)"><path fill="none" stroke="#000000" d="M 584 777 L 720 777" stroke-miterlimit="10"></path></g><g transform="translate(-110,-25.5) scale(1,1)"><path fill="none" stroke="#000000" d="M 584 787 L 720 787" stroke-miterlimit="10"></path></g><g transform="translate(-110,-25.5) scale(1,1)"><g><path fill="none" stroke="none"></path><text fill="#000000" stroke="none" font-family="Arial" font-size="13px" font-style="normal" font-weight="bold" text-decoration="none" x="588.5" y="771.5">ROUTER_INSTANCE</text></g></g><g transform="translate(-110,-25.5) scale(1,1)"><rect fill="#C0C0C0" stroke="none" x="167" y="487" width="96" height="44" opacity="0.2"></rect></g><g transform="translate(-110,-25.5) scale(1,1)"><rect fill="#ffffff" stroke="none" x="160" y="480" width="96" height="44"></rect></g><g transform="translate(-110,-25.5) scale(1,1)"><path fill="none" stroke="#000000" d="M 160 480 L 256 480 L 256 524 L 160 524 L 160 480 Z Z" stroke-miterlimit="10"></path></g><g transform="translate(-110,-25.5) scale(1,1)"><path fill="none" stroke="#000000" d="M 160 505 L 256 505" stroke-miterlimit="10"></path></g><g transform="translate(-110,-25.5) scale(1,1)"><path fill="none" stroke="#000000" d="M 160 515 L 256 515" stroke-miterlimit="10"></path></g><g transform="translate(-110,-25.5) scale(1,1)"><g><path fill="none" stroke="none"></path><text fill="#000000" stroke="none" font-family="Arial" font-size="13px" font-style="normal" font-weight="bold" text-decoration="none" x="164.5" y="499.5">SERVER_REF</text></g></g><g transform="translate(-110,-25.5) scale(1,1)"><path fill="none" stroke="#000000" d="M 255.6140350877193 479 L 423 398.14406779661016" stroke-miterlimit="10"></path></g><g transform="translate(-110,-25.5) scale(1,1)"><path fill="#FFFFFF" stroke="none" d="M 415.68001592939027 406.3549041246598 L 423 398.14406779661016 L 412.0180515787176 398.77399546888125 L 403.19013102049803 407.71324179518314"></path></g><g transform="translate(-110,-25.5) scale(1,1)"><path fill="none" stroke="#000000" d="M 415.68001592939027 406.3549041246598 L 423 398.14406779661016 L 412.0180515787176 398.77399546888125 L 403.19013102049803 407.71324179518314 L 415.68001592939027 406.3549041246598" stroke-miterlimit="10"></path></g><g transform="translate(-110,-25.5) scale(1,1)"><g><path fill="none" stroke="none"></path><text fill="#000000" stroke="none" font-family="Arial" font-size="13px" font-style="normal" font-weight="normal" text-decoration="none" x="314" y="431">+dbref</text></g></g><g transform="translate(-110,-25.5) scale(1,1)"><g><path fill="none" stroke="none"></path><text fill="#000000" stroke="none" font-family="Arial" font-size="13px" font-style="normal" font-weight="normal" text-decoration="none" x="276.6140350877193" y="487">1</text></g></g><g transform="translate(-110,-25.5) scale(1,1)"><g><path fill="none" stroke="none"></path><text fill="#000000" stroke="none" font-family="Arial" font-size="13px" font-style="normal" font-weight="normal" text-decoration="none" x="405" y="425.14406779661016">1</text></g></g><g transform="translate(-110,-25.5) scale(1,1)"><path fill="none" stroke="#000000" d="M 647.3273137697516 751 L 618.0722347629796 607" stroke-miterlimit="10"></path></g><g transform="translate(-110,-25.5) scale(1,1)"><path fill="#FFFFFF" stroke="none" d="M 624.2207990374069 616.1211379423423 L 618.0722347629796 607 L 615.9703077648204 617.797309984177 L 622.4522833882246 628.5595726775947"></path></g><g transform="translate(-110,-25.5) scale(1,1)"><path fill="none" stroke="#000000" d="M 624.2207990374069 616.1211379423423 L 618.0722347629796 607 L 615.9703077648204 617.797309984177 L 622.4522833882246 628.5595726775947 L 624.2207990374069 616.1211379423423" stroke-miterlimit="10"></path></g><g transform="translate(-110,-25.5) scale(1,1)"><g><path fill="none" stroke="none"></path><text fill="#000000" stroke="none" font-family="Arial" font-size="13px" font-style="normal" font-weight="normal" text-decoration="none" x="569" y="688">+router_instance</text></g></g><g transform="translate(-110,-25.5) scale(1,1)"><g><path fill="none" stroke="none"></path><text fill="#000000" stroke="none" font-family="Arial" font-size="13px" font-style="normal" font-weight="normal" text-decoration="none" x="651.3273137697516" y="734">1</text></g></g><g transform="translate(-110,-25.5) scale(1,1)"><g><path fill="none" stroke="none"></path><text fill="#000000" stroke="none" font-family="Arial" font-size="13px" font-style="normal" font-weight="normal" text-decoration="none" x="631.0722347629796" y="632">1</text></g></g><g transform="translate(-110,-25.5) scale(1,1)"><path fill="none" stroke="#000000" d="M 781.2941176470588 699 L 701 564.2575107296138" stroke-miterlimit="10"></path></g><g transform="translate(-110,-25.5) scale(1,1)"><path fill="#FFFFFF" stroke="none" d="M 709.8185050197338 570.8327650377702 L 701 564.2575107296138 L 702.5862177900581 575.1425423383187 L 712.2619908155232 583.1563880208995"></path></g><g transform="translate(-110,-25.5) scale(1,1)"><path fill="none" stroke="#000000" d="M 709.8185050197338 570.8327650377702 L 701 564.2575107296138 L 702.5862177900581 575.1425423383187 L 712.2619908155232 583.1563880208995 L 709.8185050197338 570.8327650377702" stroke-miterlimit="10"></path></g><g transform="translate(-110,-25.5) scale(1,1)"><g><path fill="none" stroke="none"></path><text fill="#000000" stroke="none" font-family="Arial" font-size="13px" font-style="normal" font-weight="normal" text-decoration="none" x="708" y="645">+router</text></g></g><g transform="translate(-110,-25.5) scale(1,1)"><g><path fill="none" stroke="none"></path><text fill="#000000" stroke="none" font-family="Arial" font-size="13px" font-style="normal" font-weight="normal" text-decoration="none" x="777.2941176470588" y="681">1</text></g></g><g transform="translate(-110,-25.5) scale(1,1)"><g><path fill="none" stroke="none"></path><text fill="#000000" stroke="none" font-family="Arial" font-size="13px" font-style="normal" font-weight="normal" text-decoration="none" x="719" y="583.2575107296138">1</text></g></g><g transform="translate(-110,-25.5) scale(1,1)"><rect fill="#C0C0C0" stroke="none" x="831" y="483" width="110" height="72" opacity="0.2"></rect></g><g transform="translate(-110,-25.5) scale(1,1)"><rect fill="#ffffff" stroke="none" x="824" y="476" width="110" height="72"></rect></g><g transform="translate(-110,-25.5) scale(1,1)"><path fill="none" stroke="#000000" d="M 824 476 L 934 476 L 934 548 L 824 548 L 824 476 Z Z" stroke-miterlimit="10"></path></g><g transform="translate(-110,-25.5) scale(1,1)"><path fill="none" stroke="#000000" d="M 824 501 L 934 501" stroke-miterlimit="10"></path></g><g transform="translate(-110,-25.5) scale(1,1)"><path fill="none" stroke="#000000" d="M 824 539 L 934 539" stroke-miterlimit="10"></path></g><g transform="translate(-110,-25.5) scale(1,1)"><g><path fill="none" stroke="none"></path><text fill="#000000" stroke="none" font-family="Arial" font-size="13px" font-style="normal" font-weight="bold" text-decoration="none" x="828.5" y="495.5">SERVICE_USER</text></g></g><g transform="translate(-110,-25.5) scale(1,1)"><g><path fill="none" stroke="none"></path><text fill="#000000" stroke="none" font-family="Arial" font-size="13px" font-style="normal" font-weight="normal" text-decoration="none" x="829" y="518.5">+name</text></g></g><g transform="translate(-110,-25.5) scale(1,1)"><g><path fill="none" stroke="none"></path><text fill="#000000" stroke="none" font-family="Arial" font-size="13px" font-style="normal" font-weight="normal" text-decoration="none" x="829" y="533.5">+authdata</text></g></g><g transform="translate(-110,-25.5) scale(1,1)"><path fill="none" stroke="#000000" d="M 823 480.02523659305996 L 701 410.3659305993691" stroke-miterlimit="10"></path></g><g transform="translate(-110,-25.5) scale(1,1)"><path fill="#000000" stroke="none" d="M 711.9126491517128 411.74943646911555 L 701 410.3659305993691 L 707.7381218335767 419.0606251975639 L 720.1050568436245 421.27449617885185"></path></g><g transform="translate(-110,-25.5) scale(1,1)"><path fill="none" stroke="#000000" d="M 711.9126491517128 411.74943646911555 L 701 410.3659305993691 L 707.7381218335767 419.0606251975639 L 720.1050568436245 421.27449617885185 L 711.9126491517128 411.74943646911555" stroke-miterlimit="10"></path></g><g transform="translate(-110,-25.5) scale(1,1)"><g><path fill="none" stroke="none"></path><text fill="#000000" stroke="none" font-family="Arial" font-size="13px" font-style="normal" font-weight="normal" text-decoration="none" x="719" y="465">+credentials</text></g></g><g transform="translate(-110,-25.5) scale(1,1)"><g><path fill="none" stroke="none"></path><text fill="#000000" stroke="none" font-family="Arial" font-size="13px" font-style="normal" font-weight="normal" text-decoration="none" x="807" y="465.02523659305996">1</text></g></g><g transform="translate(-110,-25.5) scale(1,1)"><g><path fill="none" stroke="none"></path><text fill="#000000" stroke="none" font-family="Arial" font-size="13px" font-style="normal" font-weight="normal" text-decoration="none" x="722" y="416.3659305993691">1</text></g></g><g transform="translate(-110,-25.5) scale(1,1)"><rect fill="#C0C0C0" stroke="none" x="135" y="339" width="54" height="44" opacity="0.2"></rect></g><g transform="translate(-110,-25.5) scale(1,1)"><rect fill="#ffffff" stroke="none" x="128" y="332" width="54" height="44"></rect></g><g transform="translate(-110,-25.5) scale(1,1)"><path fill="none" stroke="#000000" d="M 128 332 L 182 332 L 182 376 L 128 376 L 128 332 Z Z" stroke-miterlimit="10"></path></g><g transform="translate(-110,-25.5) scale(1,1)"><path fill="none" stroke="#000000" d="M 128 357 L 182 357" stroke-miterlimit="10"></path></g><g transform="translate(-110,-25.5) scale(1,1)"><path fill="none" stroke="#000000" d="M 128 367 L 182 367" stroke-miterlimit="10"></path></g><g transform="translate(-110,-25.5) scale(1,1)"><g><path fill="none" stroke="none"></path><text fill="#000000" stroke="none" font-family="Arial" font-size="13px" font-style="normal" font-weight="bold" text-decoration="none" x="132.5" y="351.5">USERS</text></g></g><g transform="translate(-110,-25.5) scale(1,1)"><path fill="none" stroke="#000000" d="M 183 352.41769041769044 L 423 338.8550368550369" stroke-miterlimit="10"></path></g><g transform="translate(-110,-25.5) scale(1,1)"><path fill="#FFFFFF" stroke="none" d="M 413.0910189892742 343.6312377855961 L 423 338.8550368550369 L 412.6160082663591 335.2256132540119 L 401.03504458075133 340.0962996919969"></path></g><g transform="translate(-110,-25.5) scale(1,1)"><path fill="none" stroke="#000000" d="M 413.0910189892742 343.6312377855961 L 423 338.8550368550369 L 412.6160082663591 335.2256132540119 L 401.03504458075133 340.0962996919969 L 413.0910189892742 343.6312377855961" stroke-miterlimit="10"></path></g><g transform="translate(-110,-25.5) scale(1,1)"><g><path fill="none" stroke="none"></path><text fill="#000000" stroke="none" font-family="Arial" font-size="13px" font-style="normal" font-weight="normal" text-decoration="none" x="282" y="337">+users</text></g></g><g transform="translate(-110,-25.5) scale(1,1)"><g><path fill="none" stroke="none"></path><text fill="#000000" stroke="none" font-family="Arial" font-size="13px" font-style="normal" font-weight="normal" text-decoration="none" x="202" y="370.41769041769044">1</text></g></g><g transform="translate(-110,-25.5) scale(1,1)"><g><path fill="none" stroke="none"></path><text fill="#000000" stroke="none" font-family="Arial" font-size="13px" font-style="normal" font-weight="normal" text-decoration="none" x="399" y="358.8550368550369">1</text></g></g><g transform="translate(-110,-25.5) scale(1,1)"><path fill="none" stroke="#000000" d="M 644 56 L 644 35.5 L 728 35.5 L 728 104 L 700 104" stroke-miterlimit="10"></path></g><g transform="translate(-110,-25.5) scale(1,1)"><path fill="none" stroke="#000000" d="M 710.1626748576241 99.79048224398402 L 700 104 L 710.1626748576241 108.20951775601598" stroke-miterlimit="10"></path></g><g transform="translate(-110,-25.5) scale(1,1)"><g><path fill="none" stroke="none"></path><text fill="#000000" stroke="none" font-family="Arial" font-size="13px" font-style="normal" font-weight="normal" text-decoration="none" x="688" y="53">+next</text></g></g><g transform="translate(-110,-25.5) scale(1,1)"><rect fill="#C0C0C0" stroke="none" x="863" y="647" width="88" height="44" opacity="0.2"></rect></g><g transform="translate(-110,-25.5) scale(1,1)"><rect fill="#ffffff" stroke="none" x="856" y="640" width="88" height="44"></rect></g><g transform="translate(-110,-25.5) scale(1,1)"><path fill="none" stroke="#000000" d="M 856 640 L 944 640 L 944 684 L 856 684 L 856 640 Z Z" stroke-miterlimit="10"></path></g><g transform="translate(-110,-25.5) scale(1,1)"><path fill="none" stroke="#000000" d="M 856 665 L 944 665" stroke-miterlimit="10"></path></g><g transform="translate(-110,-25.5) scale(1,1)"><path fill="none" stroke="#000000" d="M 856 675 L 944 675" stroke-miterlimit="10"></path></g><g transform="translate(-110,-25.5) scale(1,1)"><g><path fill="none" stroke="none"></path><text fill="#000000" stroke="none" font-family="Arial" font-size="13px" font-style="normal" font-weight="bold" text-decoration="none" x="861" y="659.5">FILTER_DEF</text></g></g><g transform="translate(-110,-25.5) scale(1,1)"><path fill="none" stroke="#000000" d="M 876.5135951661631 639 L 701 467.1213017751479" stroke-miterlimit="10"></path></g><g transform="translate(-110,-25.5) scale(1,1)"><path fill="#FFFFFF" stroke="none" d="M 711.2061619521817 471.2242590264289 L 701 467.1213017751479 L 705.3156174309765 477.239376996723 L 716.7182607386973 482.5140364038722"></path></g><g transform="translate(-110,-25.5) scale(1,1)"><path fill="none" stroke="#000000" d="M 711.2061619521817 471.2242590264289 L 701 467.1213017751479 L 705.3156174309765 477.239376996723 L 716.7182607386973 482.5140364038722 L 711.2061619521817 471.2242590264289" stroke-miterlimit="10"></path></g><g transform="translate(-110,-25.5) scale(1,1)"><g><path fill="none" stroke="none"></path><text fill="#000000" stroke="none" font-family="Arial" font-size="13px" font-style="normal" font-weight="normal" text-decoration="none" x="757" y="570">+filters</text></g></g><g transform="translate(-110,-25.5) scale(1,1)"><g><path fill="none" stroke="none"></path><text fill="#000000" stroke="none" font-family="Arial" font-size="13px" font-style="normal" font-weight="normal" text-decoration="none" x="867.5135951661631" y="621">*</text></g></g><g transform="translate(-110,-25.5) scale(1,1)"><g><path fill="none" stroke="none"></path><text fill="#000000" stroke="none" font-family="Arial" font-size="13px" font-style="normal" font-weight="normal" text-decoration="none" x="722" y="480.1213017751479">1</text></g></g><g transform="translate(-110,-25.5) scale(1,1)"><rect fill="#C0C0C0" stroke="none" x="259" y="795" width="50" height="44" opacity="0.2"></rect></g><g transform="translate(-110,-25.5) scale(1,1)"><rect fill="#ffffff" stroke="none" x="252" y="788" width="50" height="44"></rect></g><g transform="translate(-110,-25.5) scale(1,1)"><path fill="none" stroke="#000000" d="M 252 788 L 302 788 L 302 832 L 252 832 L 252 788 Z Z" stroke-miterlimit="10"></path></g><g transform="translate(-110,-25.5) scale(1,1)"><path fill="none" stroke="#000000" d="M 252 813 L 302 813" stroke-miterlimit="10"></path></g><g transform="translate(-110,-25.5) scale(1,1)"><path fill="none" stroke="#000000" d="M 252 823 L 302 823" stroke-miterlimit="10"></path></g><g transform="translate(-110,-25.5) scale(1,1)"><g><path fill="none" stroke="none"></path><text fill="#000000" stroke="none" font-family="Arial" font-size="13px" font-style="normal" font-weight="bold" text-decoration="none" x="263.5" y="807.5">DCB</text></g></g><g transform="translate(-110,-25.5) scale(1,1)"><path fill="none" stroke="#000000" d="M 303 797.5515151515151 L 379 761.1636363636363" stroke-miterlimit="10"></path></g><g transform="translate(-110,-25.5) scale(1,1)"><path fill="#FFFFFF" stroke="none" d="M 371.6516321815611 769.3490801759737 L 379 761.1636363636363 L 368.01593645820367 761.7555384752905 L 359.15711928328574 770.6641671310329"></path></g><g transform="translate(-110,-25.5) scale(1,1)"><path fill="none" stroke="#000000" d="M 371.6516321815611 769.3490801759737 L 379 761.1636363636363 L 368.01593645820367 761.7555384752905 L 359.15711928328574 770.6641671310329 L 371.6516321815611 769.3490801759737" stroke-miterlimit="10"></path></g><g transform="translate(-110,-25.5) scale(1,1)"><g><path fill="none" stroke="none"></path><text fill="#000000" stroke="none" font-family="Arial" font-size="13px" font-style="normal" font-weight="normal" text-decoration="none" x="295" y="760">+listener</text></g></g><g transform="translate(-110,-25.5) scale(1,1)"><g><path fill="none" stroke="none"></path><text fill="#000000" stroke="none" font-family="Arial" font-size="13px" font-style="normal" font-weight="normal" text-decoration="none" x="324" y="805.5515151515151">1</text></g></g><g transform="translate(-110,-25.5) scale(1,1)"><g><path fill="none" stroke="none"></path><text fill="#000000" stroke="none" font-family="Arial" font-size="13px" font-style="normal" font-weight="normal" text-decoration="none" x="361" y="788.1636363636363">1</text></g></g><g transform="translate(-110,-25.5) scale(1,1)"><path fill="none" stroke="#000000" d="M 442 775 L 442 800 L 536 800 L 536 731 L 505 731" stroke-miterlimit="10"></path></g><g transform="translate(-110,-25.5) scale(1,1)"><path fill="none" stroke="#000000" d="M 515.1626748576241 726.790482243984 L 505 731 L 515.1626748576241 735.209517756016" stroke-miterlimit="10"></path></g><g transform="translate(-110,-25.5) scale(1,1)"><g><path fill="none" stroke="none"></path><text fill="#000000" stroke="none" font-family="Arial" font-size="13px" font-style="normal" font-weight="normal" text-decoration="none" x="456" y="821">+next</text></g></g><g transform="translate(-110,-25.5) scale(1,1)"><rect fill="#C0C0C0" stroke="none" x="183" y="587" width="63" height="44" opacity="0.2"></rect></g><g transform="translate(-110,-25.5) scale(1,1)"><rect fill="#ffffff" stroke="none" x="176" y="580" width="63" height="44"></rect></g><g transform="translate(-110,-25.5) scale(1,1)"><path fill="none" stroke="#000000" d="M 176 580 L 239 580 L 239 624 L 176 624 L 176 580 Z Z" stroke-miterlimit="10"></path></g><g transform="translate(-110,-25.5) scale(1,1)"><path fill="none" stroke="#000000" d="M 176 605 L 239 605" stroke-miterlimit="10"></path></g><g transform="translate(-110,-25.5) scale(1,1)"><path fill="none" stroke="#000000" d="M 176 615 L 239 615" stroke-miterlimit="10"></path></g><g transform="translate(-110,-25.5) scale(1,1)"><g><path fill="none" stroke="none"></path><text fill="#000000" stroke="none" font-family="Arial" font-size="13px" font-style="normal" font-weight="bold" text-decoration="none" x="180.5" y="599.5">SERVER</text></g></g><g transform="translate(-110,-25.5) scale(1,1)"><path fill="none" stroke="#000000" d="M 207.23 579 L 207.77 525" stroke-miterlimit="10"></path></g><g transform="translate(-110,-25.5) scale(1,1)"><path fill="#FFFFFF" stroke="none" d="M 211.87768562829268 535.2042598349473 L 207.77 525 L 203.45907103646758 535.120073689029 L 207.55001099917507 546.9989000824932"></path></g><g transform="translate(-110,-25.5) scale(1,1)"><path fill="none" stroke="#000000" d="M 211.87768562829268 535.2042598349473 L 207.77 525 L 203.45907103646758 535.120073689029 L 207.55001099917507 546.9989000824932 L 211.87768562829268 535.2042598349473" stroke-miterlimit="10"></path></g><g transform="translate(-110,-25.5) scale(1,1)"><g><path fill="none" stroke="none"></path><text fill="#000000" stroke="none" font-family="Arial" font-size="13px" font-style="normal" font-weight="normal" text-decoration="none" x="220" y="548">+server</text></g></g><g transform="translate(-110,-25.5) scale(1,1)"><g><path fill="none" stroke="none"></path><text fill="#000000" stroke="none" font-family="Arial" font-size="13px" font-style="normal" font-weight="normal" text-decoration="none" x="216.23" y="564">1</text></g></g><g transform="translate(-110,-25.5) scale(1,1)"><path fill="none" stroke="#000000" d="M 208 480 L 208 460 L 120 460 L 120 502 L 160 502" stroke-miterlimit="10"></path></g><g transform="translate(-110,-25.5) scale(1,1)"><path fill="none" stroke="#000000" d="M 149.83732514237585 506.209517756016 L 160 502 L 149.83732514237585 497.790482243984" stroke-miterlimit="10"></path></g><g transform="translate(-110,-25.5) scale(1,1)"><g><path fill="none" stroke="none"></path><text fill="#000000" stroke="none" font-family="Arial" font-size="13px" font-style="normal" font-weight="normal" text-decoration="none" x="144" y="453">+next</text></g></g><g transform="translate(-110,-25.5) scale(1,1)"><rect fill="#C0C0C0" stroke="none" x="879" y="359" width="117" height="87" opacity="0.2"></rect></g><g transform="translate(-110,-25.5) scale(1,1)"><rect fill="#ffffff" stroke="none" x="872" y="352" width="117" height="87"></rect></g><g transform="translate(-110,-25.5) scale(1,1)"><path fill="none" stroke="#000000" d="M 872 352 L 989 352 L 989 439 L 872 439 L 872 352 Z Z" stroke-miterlimit="10"></path></g><g transform="translate(-110,-25.5) scale(1,1)"><path fill="none" stroke="#000000" d="M 872 377 L 989 377" stroke-miterlimit="10"></path></g><g transform="translate(-110,-25.5) scale(1,1)"><path fill="none" stroke="#000000" d="M 872 430 L 989 430" stroke-miterlimit="10"></path></g><g transform="translate(-110,-25.5) scale(1,1)"><g><path fill="none" stroke="none"></path><text fill="#000000" stroke="none" font-family="Arial" font-size="13px" font-style="normal" font-weight="bold" text-decoration="none" x="876.5" y="371.5">SERVICE_STATS</text></g></g><g transform="translate(-110,-25.5) scale(1,1)"><g><path fill="none" stroke="none"></path><text fill="#000000" stroke="none" font-family="Arial" font-size="13px" font-style="normal" font-weight="normal" text-decoration="none" x="877" y="394.5">+started</text></g></g><g transform="translate(-110,-25.5) scale(1,1)"><g><path fill="none" stroke="none"></path><text fill="#000000" stroke="none" font-family="Arial" font-size="13px" font-style="normal" font-weight="normal" text-decoration="none" x="877" y="409.5">+n_sessions</text></g></g><g transform="translate(-110,-25.5) scale(1,1)"><g><path fill="none" stroke="none"></path><text fill="#000000" stroke="none" font-family="Arial" font-size="13px" font-style="normal" font-weight="normal" text-decoration="none" x="877" y="424.5">+n_current</text></g></g><g transform="translate(-110,-25.5) scale(1,1)"><path fill="none" stroke="#000000" d="M 871 384.7391304347826 L 701 355.17391304347825" stroke-miterlimit="10"></path></g><g transform="translate(-110,-25.5) scale(1,1)"><path fill="#000000" stroke="none" d="M 711.7336504475937 352.76793131684946 L 701 355.17391304347825 L 710.2911230126897 361.06246406754764 L 722.6746586060328 358.9434188880057"></path></g><g transform="translate(-110,-25.5) scale(1,1)"><path fill="none" stroke="#000000" d="M 711.7336504475937 352.76793131684946 L 701 355.17391304347825 L 710.2911230126897 361.06246406754764 L 722.6746586060328 358.9434188880057 L 711.7336504475937 352.76793131684946" stroke-miterlimit="10"></path></g><g transform="translate(-110,-25.5) scale(1,1)"><g><path fill="none" stroke="none"></path><text fill="#000000" stroke="none" font-family="Arial" font-size="13px" font-style="normal" font-weight="normal" text-decoration="none" x="765" y="390">+stats</text></g></g><g transform="translate(-110,-25.5) scale(1,1)"><g><path fill="none" stroke="none"></path><text fill="#000000" stroke="none" font-family="Arial" font-size="13px" font-style="normal" font-weight="normal" text-decoration="none" x="848" y="374.7391304347826">1</text></g></g><g transform="translate(-110,-25.5) scale(1,1)"><g><path fill="none" stroke="none"></path><text fill="#000000" stroke="none" font-family="Arial" font-size="13px" font-style="normal" font-weight="normal" text-decoration="none" x="721" y="353.17391304347825">1</text></g></g></g></svg>