<svg version="1.1" xmlns="http://www.w3.org/2000/svg" xmlns:xlink="http://www.w3.org/1999/xlink" width="639" height="616"><defs></defs><g><g transform="translate(-242,-66) scale(1,1)"><rect fill="#C0C0C0" stroke="none" x="423" y="103" width="142" height="160" opacity="0.2"></rect></g><g transform="translate(-242,-66) scale(1,1)"><rect fill="#ffffff" stroke="none" x="416" y="96" width="142" height="160"></rect></g><g transform="translate(-242,-66) scale(1,1)"><path fill="none" stroke="#000000" d="M 416 96 L 558 96 L 558 256 L 416 256 L 416 96 Z Z" stroke-miterlimit="10"></path></g><g transform="translate(-242,-66) scale(1,1)"><path fill="none" stroke="#000000" d="M 416 121 L 558 121" stroke-miterlimit="10"></path></g><g transform="translate(-242,-66) scale(1,1)"><path fill="none" stroke="#000000" d="M 416 189 L 558 189" stroke-miterlimit="10"></path></g><g transform="translate(-242,-66) scale(1,1)"><g><path fill="none" stroke="none"></path><text fill="#000000" stroke="none" font-family="Arial" font-size="13px" font-style="normal" font-weight="bold" text-decoration="none" x="457.5" y="115.5">SESSION</text></g></g><g transform="translate(-242,-66) scale(1,1)"><g><path fill="none" stroke="none"></path><text fill="#000000" stroke="none" font-family="Arial" font-size="13px" font-style="normal" font-weight="normal" text-decoration="none" x="421" y="138.5">+ses_id</text></g></g><g transform="translate(-242,-66) scale(1,1)"><g><path fill="none" stroke="none"></path><text fill="#000000" stroke="none" font-family="Arial" font-size="13px" font-style="normal" font-weight="normal" text-decoration="none" x="421" y="153.5">+ses_enabled_logs</text></g></g><g transform="translate(-242,-66) scale(1,1)"><g><path fill="none" stroke="none"></path><text fill="#000000" stroke="none" font-family="Arial" font-size="13px" font-style="normal" font-weight="normal" text-decoration="none" x="421" y="168.5">+data</text></g></g><g transform="translate(-242,-66) scale(1,1)"><g><path fill="none" stroke="none"></path><text fill="#000000" stroke="none" font-family="Arial" font-size="13px" font-style="normal" font-weight="normal" text-decoration="none" x="421" y="183.5">+refcount</text></g></g><g transform="translate(-242,-66) scale(1,1)"><g><path fill="none" stroke="none"></path><text fill="#000000" stroke="none" font-family="Arial" font-size="13px" font-style="normal" font-weight="normal" text-decoration="none" x="421" y="206.5">+session_isvalid()</text></g></g><g transform="translate(-242,-66) scale(1,1)"><g><path fill="none" stroke="none"></path><text fill="#000000" stroke="none" font-family="Arial" font-size="13px" font-style="normal" font-weight="normal" text-decoration="none" x="421" y="221.5">+session_reply()</text></g></g><g transform="translate(-242,-66) scale(1,1)"><g><path fill="none" stroke="none"></path><text fill="#000000" stroke="none" font-family="Arial" font-size="13px" font-style="normal" font-weight="normal" text-decoration="none" x="421" y="236.5">+session_get_remote()</text></g></g><g transform="translate(-242,-66) scale(1,1)"><g><path fill="none" stroke="none"></path><text fill="#000000" stroke="none" font-family="Arial" font-size="13px" font-style="normal" font-weight="normal" text-decoration="none" x="421" y="251.5">+session_getUser()</text></g></g><g transform="translate(-242,-66) scale(1,1)"><rect fill="#C0C0C0" stroke="none" x="259" y="255" width="50" height="44" opacity="0.2"></rect></g><g transform="translate(-242,-66) scale(1,1)"><rect fill="#ffffff" stroke="none" x="252" y="248" width="50" height="44"></rect></g><g transform="translate(-242,-66) scale(1,1)"><path fill="none" stroke="#000000" d="M 252 248 L 302 248 L 302 292 L 252 292 L 252 248 Z Z" stroke-miterlimit="10"></path></g><g transform="translate(-242,-66) scale(1,1)"><path fill="none" stroke="#000000" d="M 252 273 L 302 273" stroke-miterlimit="10"></path></g><g transform="translate(-242,-66) scale(1,1)"><path fill="none" stroke="#000000" d="M 252 283 L 302 283" stroke-miterlimit="10"></path></g><g transform="translate(-242,-66) scale(1,1)"><g><path fill="none" stroke="none"></path><text fill="#000000" stroke="none" font-family="Arial" font-size="13px" font-style="normal" font-weight="bold" text-decoration="none" x="263.5" y="267.5">DCB</text></g></g><g transform="translate(-242,-66) scale(1,1)"><rect fill="#C0C0C0" stroke="none" x="639" y="387" width="118" height="57" opacity="0.2"></rect></g><g transform="translate(-242,-66) scale(1,1)"><rect fill="#ffffff" stroke="none" x="632" y="380" width="118" height="57"></rect></g><g transform="translate(-242,-66) scale(1,1)"><path fill="none" stroke="#000000" d="M 632 380 L 750 380 L 750 437 L 632 437 L 632 380 Z Z" stroke-miterlimit="10"></path></g><g transform="translate(-242,-66) scale(1,1)"><path fill="none" stroke="#000000" d="M 632 405 L 750 405" stroke-miterlimit="10"></path></g><g transform="translate(-242,-66) scale(1,1)"><path fill="none" stroke="#000000" d="M 632 428 L 750 428" stroke-miterlimit="10"></path></g><g transform="translate(-242,-66) scale(1,1)"><g><path fill="none" stroke="none"></path><text fill="#000000" stroke="none" font-family="Arial" font-size="13px" font-style="normal" font-weight="bold" text-decoration="none" x="636.5" y="399.5">SESSION_STATS</text></g></g><g transform="translate(-242,-66) scale(1,1)"><g><path fill="none" stroke="none"></path><text fill="#000000" stroke="none" font-family="Arial" font-size="13px" font-style="normal" font-weight="normal" text-decoration="none" x="637" y="422.5">+connect</text></g></g><g transform="translate(-242,-66) scale(1,1)"><rect fill="#C0C0C0" stroke="none" x="659" y="199" width="219" height="150" opacity="0.2"></rect></g><g transform="translate(-242,-66) scale(1,1)"><rect fill="#ffffff" stroke="none" x="652" y="192" width="219" height="150"></rect></g><g transform="translate(-242,-66) scale(1,1)"><path fill="none" stroke="#000000" d="M 652 192 L 871 192 L 871 342 L 652 342 L 652 192 Z Z" stroke-miterlimit="10"></path></g><g transform="translate(-242,-66) scale(1,1)"><path fill="none" stroke="#000000" d="M 652 230 L 871 230" stroke-miterlimit="10"></path></g><g transform="translate(-242,-66) scale(1,1)"><g><path fill="none" stroke="none"></path><text fill="#000000" stroke="none" font-family="Arial" font-size="13px" font-style="normal" font-weight="normal" text-decoration="none" x="719" y="209.5">«enumeration»</text></g></g><g transform="translate(-242,-66) scale(1,1)"><g><path fill="none" stroke="none"></path><text fill="#000000" stroke="none" font-family="Arial" font-size="13px" font-style="normal" font-weight="bold" text-decoration="none" x="715.5" y="224.5">session_state_t</text></g></g><g transform="translate(-242,-66) scale(1,1)"><g><path fill="none" stroke="none"></path><text fill="#000000" stroke="none" font-family="Arial" font-size="13px" font-style="normal" font-weight="normal" text-decoration="none" x="657" y="247.5">SESSION_STATE_ALLOC</text></g></g><g transform="translate(-242,-66) scale(1,1)"><g><path fill="none" stroke="none"></path><text fill="#000000" stroke="none" font-family="Arial" font-size="13px" font-style="normal" font-weight="normal" text-decoration="none" x="657" y="262.5">SESSION_STATE_READY</text></g></g><g transform="translate(-242,-66) scale(1,1)"><g><path fill="none" stroke="none"></path><text fill="#000000" stroke="none" font-family="Arial" font-size="13px" font-style="normal" font-weight="normal" text-decoration="none" x="657" y="277.5">SESSION_ROUTER_READY</text></g></g><g transform="translate(-242,-66) scale(1,1)"><g><path fill="none" stroke="none"></path><text fill="#000000" stroke="none" font-family="Arial" font-size="13px" font-style="normal" font-weight="normal" text-decoration="none" x="657" y="292.5">SESSION_STATE_STOPPING</text></g></g><g transform="translate(-242,-66) scale(1,1)"><g><path fill="none" stroke="none"></path><text fill="#000000" stroke="none" font-family="Arial" font-size="13px" font-style="normal" font-weight="normal" text-decoration="none" x="657" y="307.5">SESSION_STATE_LISTENER</text></g></g><g transform="translate(-242,-66) scale(1,1)"><g><path fill="none" stroke="none"></path><text fill="#000000" stroke="none" font-family="Arial" font-size="13px" font-style="normal" font-weight="normal" text-decoration="none" x="657" y="322.5">SESSION_STATE_TO_BE_FREED</text></g></g><g transform="translate(-242,-66) scale(1,1)"><g><path fill="none" stroke="none"></path><text fill="#000000" stroke="none" font-family="Arial" font-size="13px" font-style="normal" font-weight="normal" text-decoration="none" x="657" y="337.5">SESSION_STATE_FREE</text></g></g><g transform="translate(-242,-66) scale(1,1)"><rect fill="#C0C0C0" stroke="none" x="379" y="455" width="104" height="87" opacity="0.2"></rect></g><g transform="translate(-242,-66) scale(1,1)"><rect fill="#ffffff" stroke="none" x="372" y="448" width="104" height="87"></rect></g><g transform="translate(-242,-66) scale(1,1)"><path fill="none" stroke="#000000" d="M 372 448 L 476 448 L 476 535 L 372 535 L 372 448 Z Z" stroke-miterlimit="10"></path></g><g transform="translate(-242,-66) scale(1,1)"><path fill="none" stroke="#000000" d="M 372 473 L 476 473" stroke-miterlimit="10"></path></g><g transform="translate(-242,-66) scale(1,1)"><path fill="none" stroke="#000000" d="M 372 526 L 476 526" stroke-miterlimit="10"></path></g><g transform="translate(-242,-66) scale(1,1)"><g><path fill="none" stroke="none"></path><text fill="#000000" stroke="none" font-family="Arial" font-size="13px" font-style="normal" font-weight="bold" text-decoration="none" x="376.5" y="467.5">DOWNSTREAM</text></g></g><g transform="translate(-242,-66) scale(1,1)"><g><path fill="none" stroke="none"></path><text fill="#000000" stroke="none" font-family="Arial" font-size="13px" font-style="normal" font-weight="normal" text-decoration="none" x="377" y="490.5">+instance</text></g></g><g transform="translate(-242,-66) scale(1,1)"><g><path fill="none" stroke="none"></path><text fill="#000000" stroke="none" font-family="Arial" font-size="13px" font-style="normal" font-weight="normal" text-decoration="none" x="377" y="505.5">+session</text></g></g><g transform="translate(-242,-66) scale(1,1)"><g><path fill="none" stroke="none"></path><text fill="#000000" stroke="none" font-family="Arial" font-size="13px" font-style="normal" font-weight="normal" text-decoration="none" x="377" y="520.5">+routeQuery</text></g></g><g transform="translate(-242,-66) scale(1,1)"><rect fill="#C0C0C0" stroke="none" x="259" y="407" width="82" height="102" opacity="0.2"></rect></g><g transform="translate(-242,-66) scale(1,1)"><rect fill="#ffffff" stroke="none" x="252" y="400" width="82" height="102"></rect></g><g transform="translate(-242,-66) scale(1,1)"><path fill="none" stroke="#000000" d="M 252 400 L 334 400 L 334 502 L 252 502 L 252 400 Z Z" stroke-miterlimit="10"></path></g><g transform="translate(-242,-66) scale(1,1)"><path fill="none" stroke="#000000" d="M 252 425 L 334 425" stroke-miterlimit="10"></path></g><g transform="translate(-242,-66) scale(1,1)"><path fill="none" stroke="#000000" d="M 252 493 L 334 493" stroke-miterlimit="10"></path></g><g transform="translate(-242,-66) scale(1,1)"><g><path fill="none" stroke="none"></path><text fill="#000000" stroke="none" font-family="Arial" font-size="13px" font-style="normal" font-weight="bold" text-decoration="none" x="256.5" y="419.5">UPSTREAM</text></g></g><g transform="translate(-242,-66) scale(1,1)"><g><path fill="none" stroke="none"></path><text fill="#000000" stroke="none" font-family="Arial" font-size="13px" font-style="normal" font-weight="normal" text-decoration="none" x="257" y="442.5">+instance</text></g></g><g transform="translate(-242,-66) scale(1,1)"><g><path fill="none" stroke="none"></path><text fill="#000000" stroke="none" font-family="Arial" font-size="13px" font-style="normal" font-weight="normal" text-decoration="none" x="257" y="457.5">+session</text></g></g><g transform="translate(-242,-66) scale(1,1)"><g><path fill="none" stroke="none"></path><text fill="#000000" stroke="none" font-family="Arial" font-size="13px" font-style="normal" font-weight="normal" text-decoration="none" x="257" y="472.5">+clientReply</text></g></g><g transform="translate(-242,-66) scale(1,1)"><g><path fill="none" stroke="none"></path><text fill="#000000" stroke="none" font-family="Arial" font-size="13px" font-style="normal" font-weight="normal" text-decoration="none" x="257" y="487.5">+error</text></g></g><g transform="translate(-242,-66) scale(1,1)"><rect fill="#C0C0C0" stroke="none" x="571" y="499" width="121" height="72" opacity="0.2"></rect></g><g transform="translate(-242,-66) scale(1,1)"><rect fill="#ffffff" stroke="none" x="564" y="492" width="121" height="72"></rect></g><g transform="translate(-242,-66) scale(1,1)"><path fill="none" stroke="#000000" d="M 564 492 L 685 492 L 685 564 L 564 564 L 564 492 Z Z" stroke-miterlimit="10"></path></g><g transform="translate(-242,-66) scale(1,1)"><path fill="none" stroke="#000000" d="M 564 517 L 685 517" stroke-miterlimit="10"></path></g><g transform="translate(-242,-66) scale(1,1)"><path fill="none" stroke="#000000" d="M 564 555 L 685 555" stroke-miterlimit="10"></path></g><g transform="translate(-242,-66) scale(1,1)"><g><path fill="none" stroke="none"></path><text fill="#000000" stroke="none" font-family="Arial" font-size="13px" font-style="normal" font-weight="bold" text-decoration="none" x="569" y="511.5">SESSION_FILTER</text></g></g><g transform="translate(-242,-66) scale(1,1)"><g><path fill="none" stroke="none"></path><text fill="#000000" stroke="none" font-family="Arial" font-size="13px" font-style="normal" font-weight="normal" text-decoration="none" x="569" y="534.5">+instance</text></g></g><g transform="translate(-242,-66) scale(1,1)"><g><path fill="none" stroke="none"></path><text fill="#000000" stroke="none" font-family="Arial" font-size="13px" font-style="normal" font-weight="normal" text-decoration="none" x="569" y="549.5">+session</text></g></g><g transform="translate(-242,-66) scale(1,1)"><rect fill="#C0C0C0" stroke="none" x="667" y="635" width="88" height="44" opacity="0.2"></rect></g><g transform="translate(-242,-66) scale(1,1)"><rect fill="#ffffff" stroke="none" x="660" y="628" width="88" height="44"></rect></g><g transform="translate(-242,-66) scale(1,1)"><path fill="none" stroke="#000000" d="M 660 628 L 748 628 L 748 672 L 660 672 L 660 628 Z Z" stroke-miterlimit="10"></path></g><g transform="translate(-242,-66) scale(1,1)"><path fill="none" stroke="#000000" d="M 660 653 L 748 653" stroke-miterlimit="10"></path></g><g transform="translate(-242,-66) scale(1,1)"><path fill="none" stroke="#000000" d="M 660 663 L 748 663" stroke-miterlimit="10"></path></g><g transform="translate(-242,-66) scale(1,1)"><g><path fill="none" stroke="none"></path><text fill="#000000" stroke="none" font-family="Arial" font-size="13px" font-style="normal" font-weight="bold" text-decoration="none" x="665" y="647.5">FILTER_DEF</text></g></g><g transform="translate(-242,-66) scale(1,1)"><path fill="none" stroke="#000000" d="M 688.9180327868852 627 L 648.2622950819672 565" stroke-miterlimit="10"></path></g><g transform="translate(-242,-66) scale(1,1)"><path fill="#FFFFFF" stroke="none" d="M 657.3552541078052 571.1901612381611 L 648.2622950819672 565 L 650.3148830820468 575.8067979763632 L 660.3261482508125 583.3973760824891"></path></g><g transform="translate(-242,-66) scale(1,1)"><path fill="none" stroke="#000000" d="M 657.3552541078052 571.1901612381611 L 648.2622950819672 565 L 650.3148830820468 575.8067979763632 L 660.3261482508125 583.3973760824891 L 657.3552541078052 571.1901612381611" stroke-miterlimit="10"></path></g><g transform="translate(-242,-66) scale(1,1)"><path fill="none" stroke="#000000" d="M 679.8250737610472 620.8098387618389 L 688.9180327868852 627 L 686.8654447868056 616.1932020236368" stroke-miterlimit="10"></path></g><g transform="translate(-242,-66) scale(1,1)"><g><path fill="none" stroke="none"></path><text fill="#000000" stroke="none" font-family="Arial" font-size="13px" font-style="normal" font-weight="normal" text-decoration="none" x="676" y="581">+filter</text></g></g><g transform="translate(-242,-66) scale(1,1)"><g><path fill="none" stroke="none"></path><text fill="#000000" stroke="none" font-family="Arial" font-size="13px" font-style="normal" font-weight="normal" text-decoration="none" x="683.9180327868852" y="609">1</text></g></g><g transform="translate(-242,-66) scale(1,1)"><g><path fill="none" stroke="none"></path><text fill="#000000" stroke="none" font-family="Arial" font-size="13px" font-style="normal" font-weight="normal" text-decoration="none" x="668.2622950819672" y="583">*</text></g></g><g transform="translate(-242,-66) scale(1,1)"><path fill="none" stroke="#000000" d="M 528 96 L 528 76 L 588 76 L 588 147 L 558 147" stroke-miterlimit="10"></path></g><g transform="translate(-242,-66) scale(1,1)"><path fill="none" stroke="#000000" d="M 568.1626748576241 142.790482243984 L 558 147 L 568.1626748576241 151.209517756016" stroke-miterlimit="10"></path></g><g transform="translate(-242,-66) scale(1,1)"><g><path fill="none" stroke="none"></path><text fill="#000000" stroke="none" font-family="Arial" font-size="13px" font-style="normal" font-weight="normal" text-decoration="none" x="567" y="168">+next</text></g></g><g transform="translate(-242,-66) scale(1,1)"><path fill="none" stroke="#000000" d="M 651 230.46715328467153 L 559 199.91240875912408" stroke-miterlimit="10"></path></g><g transform="translate(-242,-66) scale(1,1)"><path fill="#000000" stroke="none" d="M 569.9714656313433 199.12061213103624 L 559 199.91240875912408 L 567.3178825125196 207.11052174156058 L 579.8786399796419 206.84655561367666"></path></g><g transform="translate(-242,-66) scale(1,1)"><path fill="none" stroke="#000000" d="M 569.9714656313433 199.12061213103624 L 559 199.91240875912408 L 567.3178825125196 207.11052174156058 L 579.8786399796419 206.84655561367666 L 569.9714656313433 199.12061213103624" stroke-miterlimit="10"></path></g><g transform="translate(-242,-66) scale(1,1)"><g><path fill="none" stroke="none"></path><text fill="#000000" stroke="none" font-family="Arial" font-size="13px" font-style="normal" font-weight="normal" text-decoration="none" x="582" y="236">+state</text></g></g><g transform="translate(-242,-66) scale(1,1)"><path fill="none" stroke="#000000" d="M 665.5 379 L 558.2241379310345 257" stroke-miterlimit="10"></path></g><g transform="translate(-242,-66) scale(1,1)"><path fill="#000000" stroke="none" d="M 568.0961405179521 261.8521711556675 L 558.2241379310345 257 L 561.7736947764848 267.41156310075087 L 572.7515291763904 273.52134690648313"></path></g><g transform="translate(-242,-66) scale(1,1)"><path fill="none" stroke="#000000" d="M 568.0961405179521 261.8521711556675 L 558.2241379310345 257 L 561.7736947764848 267.41156310075087 L 572.7515291763904 273.52134690648313 L 568.0961405179521 261.8521711556675" stroke-miterlimit="10"></path></g><g transform="translate(-242,-66) scale(1,1)"><g><path fill="none" stroke="none"></path><text fill="#000000" stroke="none" font-family="Arial" font-size="13px" font-style="normal" font-weight="normal" text-decoration="none" x="581" y="334">+stats</text></g></g><g transform="translate(-242,-66) scale(1,1)"><path fill="none" stroke="#000000" d="M 303 258.3619047619048 L 415 208.22857142857143" stroke-miterlimit="10"></path></g><g transform="translate(-242,-66) scale(1,1)"><path fill="#FFFFFF" stroke="none" d="M 407.4440182004306 216.2227655120658 L 415 208.22857142857143 L 404.0043651844421 208.53843430613404 L 394.9198748729715 217.21681791400326"></path></g><g transform="translate(-242,-66) scale(1,1)"><path fill="none" stroke="#000000" d="M 407.4440182004306 216.2227655120658 L 415 208.22857142857143 L 404.0043651844421 208.53843430613404 L 394.9198748729715 217.21681791400326 L 407.4440182004306 216.2227655120658" stroke-miterlimit="10"></path></g><g transform="translate(-242,-66) scale(1,1)"><g><path fill="none" stroke="none"></path><text fill="#000000" stroke="none" font-family="Arial" font-size="13px" font-style="normal" font-weight="normal" text-decoration="none" x="333" y="226">+client</text></g></g><g transform="translate(-242,-66) scale(1,1)"><g><path fill="none" stroke="none"></path><text fill="#000000" stroke="none" font-family="Arial" font-size="13px" font-style="normal" font-weight="normal" text-decoration="none" x="313" y="240.36190476190478">+1</text></g></g><g transform="translate(-242,-66) scale(1,1)"><g><path fill="none" stroke="none"></path><text fill="#000000" stroke="none" font-family="Arial" font-size="13px" font-style="normal" font-weight="normal" text-decoration="none" x="378" y="211.22857142857143">+1</text></g></g><g transform="translate(-242,-66) scale(1,1)"><path fill="none" stroke="#000000" d="M 329.68363636363637 399 L 429.85818181818183 257" stroke-miterlimit="10"></path></g><g transform="translate(-242,-66) scale(1,1)"><path fill="#000000" stroke="none" d="M 427.4396432503456 267.7308280759636 L 429.85818181818183 257 L 420.5601754960428 262.8776762783827 L 417.17628501489696 274.9769155716667"></path></g><g transform="translate(-242,-66) scale(1,1)"><path fill="none" stroke="#000000" d="M 427.4396432503456 267.7308280759636 L 429.85818181818183 257 L 420.5601754960428 262.8776762783827 L 417.17628501489696 274.9769155716667 L 427.4396432503456 267.7308280759636" stroke-miterlimit="10"></path></g><g transform="translate(-242,-66) scale(1,1)"><g><path fill="none" stroke="none"></path><text fill="#000000" stroke="none" font-family="Arial" font-size="13px" font-style="normal" font-weight="normal" text-decoration="none" x="354" y="326">+tail</text></g></g><g transform="translate(-242,-66) scale(1,1)"><g><path fill="none" stroke="none"></path><text fill="#000000" stroke="none" font-family="Arial" font-size="13px" font-style="normal" font-weight="normal" text-decoration="none" x="348.68363636363637" y="395">1</text></g></g><g transform="translate(-242,-66) scale(1,1)"><g><path fill="none" stroke="none"></path><text fill="#000000" stroke="none" font-family="Arial" font-size="13px" font-style="normal" font-weight="normal" text-decoration="none" x="423.85818181818183" y="288">1</text></g></g><g transform="translate(-242,-66) scale(1,1)"><path fill="none" stroke="#000000" d="M 432.8 447 L 470.8 257" stroke-miterlimit="10"></path></g><g transform="translate(-242,-66) scale(1,1)"><path fill="#000000" stroke="none" d="M 472.93470724978386 267.79087693182163 L 470.8 257 L 464.6791637187297 266.1397682256108 L 466.48544502695995 278.57277486520024"></path></g><g transform="translate(-242,-66) scale(1,1)"><path fill="none" stroke="#000000" d="M 472.93470724978386 267.79087693182163 L 470.8 257 L 464.6791637187297 266.1397682256108 L 466.48544502695995 278.57277486520024 L 472.93470724978386 267.79087693182163" stroke-miterlimit="10"></path></g><g transform="translate(-242,-66) scale(1,1)"><g><path fill="none" stroke="none"></path><text fill="#000000" stroke="none" font-family="Arial" font-size="13px" font-style="normal" font-weight="normal" text-decoration="none" x="410" y="339">+head</text></g></g><g transform="translate(-242,-66) scale(1,1)"><g><path fill="none" stroke="none"></path><text fill="#000000" stroke="none" font-family="Arial" font-size="13px" font-style="normal" font-weight="normal" text-decoration="none" x="445.8" y="435">1</text></g></g><g transform="translate(-242,-66) scale(1,1)"><g><path fill="none" stroke="none"></path><text fill="#000000" stroke="none" font-family="Arial" font-size="13px" font-style="normal" font-weight="normal" text-decoration="none" x="475.8" y="287">1</text></g></g><g transform="translate(-242,-66) scale(1,1)"><path fill="none" stroke="#000000" d="M 518.5255681818181 257 L 609.5994318181818 491" stroke-miterlimit="10"></path></g><g transform="translate(-242,-66) scale(1,1)"><path fill="none" stroke="#000000" d="M 601.9905399241239 483.0561492873707 L 609.5994318181818 491 L 609.8362834702119 480.0025502367626" stroke-miterlimit="10"></path></g><g transform="translate(-242,-66) scale(1,1)"><g><path fill="none" stroke="none"></path><text fill="#000000" stroke="none" font-family="Arial" font-size="13px" font-style="normal" font-weight="normal" text-decoration="none" x="518" y="384">+filters</text></g></g><g transform="translate(-242,-66) scale(1,1)"><g><path fill="none" stroke="none"></path><text fill="#000000" stroke="none" font-family="Arial" font-size="13px" font-style="normal" font-weight="normal" text-decoration="none" x="511.52556818181813" y="288">1</text></g></g><g transform="translate(-242,-66) scale(1,1)"><g><path fill="none" stroke="none"></path><text fill="#000000" stroke="none" font-family="Arial" font-size="13px" font-style="normal" font-weight="normal" text-decoration="none" x="579.5994318181818" y="482">0..*</text></g></g><g transform="translate(-242,-66) scale(1,1)"><rect fill="#C0C0C0" stroke="none" x="263" y="107" width="55" height="44" opacity="0.2"></rect></g><g transform="translate(-242,-66) scale(1,1)"><rect fill="#ffffff" stroke="none" x="256" y="100" width="55" height="44"></rect></g><g transform="translate(-242,-66) scale(1,1)"><path fill="none" stroke="#000000" d="M 256 100 L 311 100 L 311 144 L 256 144 L 256 100 Z Z" stroke-miterlimit="10"></path></g><g transform="translate(-242,-66) scale(1,1)"><path fill="none" stroke="#000000" d="M 256 125 L 311 125" stroke-miterlimit="10"></path></g><g transform="translate(-242,-66) scale(1,1)"><path fill="none" stroke="#000000" d="M 256 135 L 311 135" stroke-miterlimit="10"></path></g><g transform="translate(-242,-66) scale(1,1)"><g><path fill="none" stroke="none"></path><text fill="#000000" stroke="none" font-family="Arial" font-size="13px" font-style="normal" font-weight="bold" text-decoration="none" x="261.5" y="119.5">Service</text></g></g><g transform="translate(-242,-66) scale(1,1)"><path fill="none" stroke="#000000" d="M 415 156.94117647058823 L 312 129.6764705882353" stroke-miterlimit="10"></path></g><g transform="translate(-242,-66) scale(1,1)"><path fill="none" stroke="#000000" d="M 322.9014951902058 128.20766065569813 L 312 129.6764705882353 L 320.74712663763825 136.34638629873118" stroke-miterlimit="10"></path></g><g transform="translate(-242,-66) scale(1,1)"><g><path fill="none" stroke="none"></path><text fill="#000000" stroke="none" font-family="Arial" font-size="13px" font-style="normal" font-weight="normal" text-decoration="none" x="334" y="164">+service</text></g></g><g transform="translate(-242,-66) scale(1,1)"><g><path fill="none" stroke="none"></path><text fill="#000000" stroke="none" font-family="Arial" font-size="13px" font-style="normal" font-weight="normal" text-decoration="none" x="387" y="145.94117647058823">0..*</text></g></g><g transform="translate(-242,-66) scale(1,1)"><g><path fill="none" stroke="none"></path><text fill="#000000" stroke="none" font-family="Arial" font-size="13px" font-style="normal" font-weight="normal" text-decoration="none" x="333" y="129.6764705882353">1</text></g></g></g></svg>