<svg version="1.1" xmlns="http://www.w3.org/2000/svg" xmlns:xlink="http://www.w3.org/1999/xlink" width="363" height="456"><defs></defs><g><g transform="translate(-202,-130) scale(1,1)"><rect fill="#C0C0C0" stroke="none" x="495" y="171" width="67" height="44" opacity="0.2"></rect></g><g transform="translate(-202,-130) scale(1,1)"><rect fill="#ffffff" stroke="none" x="488" y="164" width="67" height="44"></rect></g><g transform="translate(-202,-130) scale(1,1)"><path fill="none" stroke="#000000" d="M 488 164 L 555 164 L 555 208 L 488 208 L 488 164 Z Z" stroke-miterlimit="10"></path></g><g transform="translate(-202,-130) scale(1,1)"><path fill="none" stroke="#000000" d="M 488 189 L 555 189" stroke-miterlimit="10"></path></g><g transform="translate(-202,-130) scale(1,1)"><path fill="none" stroke="#000000" d="M 488 199 L 555 199" stroke-miterlimit="10"></path></g><g transform="translate(-202,-130) scale(1,1)"><g><path fill="none" stroke="none"></path><text fill="#000000" stroke="none" font-family="Arial" font-size="13px" font-style="normal" font-weight="bold" text-decoration="none" x="492.5" y="183.5">SERVICE</text></g></g><g transform="translate(-202,-130) scale(1,1)"><rect fill="#C0C0C0" stroke="none" x="279" y="263" width="162" height="115" opacity="0.2"></rect></g><g transform="translate(-202,-130) scale(1,1)"><rect fill="#ffffff" stroke="none" x="272" y="256" width="162" height="115"></rect></g><g transform="translate(-202,-130) scale(1,1)"><path fill="none" stroke="#000000" d="M 272 256 L 434 256 L 434 371 L 272 371 L 272 256 Z Z" stroke-miterlimit="10"></path></g><g transform="translate(-202,-130) scale(1,1)"><path fill="none" stroke="#000000" d="M 272 281 L 434 281" stroke-miterlimit="10"></path></g><g transform="translate(-202,-130) scale(1,1)"><path fill="none" stroke="#000000" d="M 272 304 L 434 304" stroke-miterlimit="10"></path></g><g transform="translate(-202,-130) scale(1,1)"><g><path fill="none" stroke="none"></path><text fill="#000000" stroke="none" font-family="Arial" font-size="13px" font-style="normal" font-weight="bold" text-decoration="none" x="330.5" y="275.5">USERS</text></g></g><g transform="translate(-202,-130) scale(1,1)"><g><path fill="none" stroke="none"></path><text fill="#000000" stroke="none" font-family="Arial" font-size="13px" font-style="normal" font-weight="normal" text-decoration="none" x="277" y="298.5">+usersCustomUserFormat</text></g></g><g transform="translate(-202,-130) scale(1,1)"><g><path fill="none" stroke="none"></path><text fill="#000000" stroke="none" font-family="Arial" font-size="13px" font-style="normal" font-weight="normal" text-decoration="none" x="277" y="321.5">+users_add()</text></g></g><g transform="translate(-202,-130) scale(1,1)"><g><path fill="none" stroke="none"></path><text fill="#000000" stroke="none" font-family="Arial" font-size="13px" font-style="normal" font-weight="normal" text-decoration="none" x="277" y="336.5">+users_delete()</text></g></g><g transform="translate(-202,-130) scale(1,1)"><g><path fill="none" stroke="none"></path><text fill="#000000" stroke="none" font-family="Arial" font-size="13px" font-style="normal" font-weight="normal" text-decoration="none" x="277" y="351.5">+users_fetch()</text></g></g><g transform="translate(-202,-130) scale(1,1)"><g><path fill="none" stroke="none"></path><text fill="#000000" stroke="none" font-family="Arial" font-size="13px" font-style="normal" font-weight="normal" text-decoration="none" x="277" y="366.5">+user_update()</text></g></g><g transform="translate(-202,-130) scale(1,1)"><rect fill="#C0C0C0" stroke="none" x="411" y="471" width="104" height="112" opacity="0.2"></rect></g><g transform="translate(-202,-130) scale(1,1)"><rect fill="#ffffff" stroke="none" x="404" y="464" width="104" height="112"></rect></g><g transform="translate(-202,-130) scale(1,1)"><path fill="none" stroke="#000000" d="M 404 464 L 508 464 L 508 576 L 404 576 L 404 464 Z Z" stroke-miterlimit="10"></path></g><g transform="translate(-202,-130) scale(1,1)"><path fill="none" stroke="#000000" d="M 404 489 L 508 489" stroke-miterlimit="10"></path></g><g transform="translate(-202,-130) scale(1,1)"><path fill="none" stroke="#000000" d="M 404 557 L 508 557" stroke-miterlimit="10"></path></g><g transform="translate(-202,-130) scale(1,1)"><g><path fill="none" stroke="none"></path><text fill="#000000" stroke="none" font-family="Arial" font-size="13px" font-style="normal" font-weight="bold" text-decoration="none" x="408.5" y="483.5">USERS_STATS</text></g></g><g transform="translate(-202,-130) scale(1,1)"><g><path fill="none" stroke="none"></path><text fill="#000000" stroke="none" font-family="Arial" font-size="13px" font-style="normal" font-weight="normal" text-decoration="none" x="409" y="506.5">+n_entries</text></g></g><g transform="translate(-202,-130) scale(1,1)"><g><path fill="none" stroke="none"></path><text fill="#000000" stroke="none" font-family="Arial" font-size="13px" font-style="normal" font-weight="normal" text-decoration="none" x="409" y="521.5">+n_adds</text></g></g><g transform="translate(-202,-130) scale(1,1)"><g><path fill="none" stroke="none"></path><text fill="#000000" stroke="none" font-family="Arial" font-size="13px" font-style="normal" font-weight="normal" text-decoration="none" x="409" y="536.5">+n_deletes</text></g></g><g transform="translate(-202,-130) scale(1,1)"><g><path fill="none" stroke="none"></path><text fill="#000000" stroke="none" font-family="Arial" font-size="13px" font-style="normal" font-weight="normal" text-decoration="none" x="409" y="551.5">+n_fetches</text></g></g><g transform="translate(-202,-130) scale(1,1)"><path fill="none" stroke="#000000" d="M 427.6376811594203 463 L 382.35748792270533 372" stroke-miterlimit="10"></path></g><g transform="translate(-202,-130) scale(1,1)"><path fill="#000000" stroke="none" d="M 390.65352544623727 379.2232791312637 L 382.35748792270533 372 L 383.1160426564529 382.97381404598735 L 392.1581079588126 391.6963917230505"></path></g><g transform="translate(-202,-130) scale(1,1)"><path fill="none" stroke="#000000" d="M 390.65352544623727 379.2232791312637 L 382.35748792270533 372 L 383.1160426564529 382.97381404598735 L 392.1581079588126 391.6963917230505 L 390.65352544623727 379.2232791312637" stroke-miterlimit="10"></path></g><g transform="translate(-202,-130) scale(1,1)"><g><path fill="none" stroke="none"></path><text fill="#000000" stroke="none" font-family="Arial" font-size="13px" font-style="normal" font-weight="normal" text-decoration="none" x="361" y="430">+stats</text></g></g><g transform="translate(-202,-130) scale(1,1)"><g><path fill="none" stroke="none"></path><text fill="#000000" stroke="none" font-family="Arial" font-size="13px" font-style="normal" font-weight="normal" text-decoration="none" x="425.6376811594203" y="445">1</text></g></g><g transform="translate(-202,-130) scale(1,1)"><g><path fill="none" stroke="none"></path><text fill="#000000" stroke="none" font-family="Arial" font-size="13px" font-style="normal" font-weight="normal" text-decoration="none" x="399.35748792270533" y="392">1</text></g></g><g transform="translate(-202,-130) scale(1,1)"><path fill="none" stroke="#000000" d="M 429.7244094488189 255 L 490.5748031496063 209" stroke-miterlimit="10"></path></g><g transform="translate(-202,-130) scale(1,1)"><path fill="#FFFFFF" stroke="none" d="M 485.00636934125237 218.48644005525682 L 490.5748031496063 209 L 479.92939975073904 211.77044878591633 L 473.0250722196995 222.2667608815367"></path></g><g transform="translate(-202,-130) scale(1,1)"><path fill="none" stroke="#000000" d="M 485.00636934125237 218.48644005525682 L 490.5748031496063 209 L 479.92939975073904 211.77044878591633 L 473.0250722196995 222.2667608815367 L 485.00636934125237 218.48644005525682" stroke-miterlimit="10"></path></g><g transform="translate(-202,-130) scale(1,1)"><path fill="none" stroke="#000000" d="M 435.2928432571728 245.51355994474318 L 429.7244094488189 255 L 440.36981284768615 252.22955121408367" stroke-miterlimit="10"></path></g><g transform="translate(-202,-130) scale(1,1)"><g><path fill="none" stroke="none"></path><text fill="#000000" stroke="none" font-family="Arial" font-size="13px" font-style="normal" font-weight="normal" text-decoration="none" x="433" y="215">+users</text></g></g><g transform="translate(-202,-130) scale(1,1)"><rect fill="#C0C0C0" stroke="none" x="239" y="495" width="88" height="44" opacity="0.2"></rect></g><g transform="translate(-202,-130) scale(1,1)"><rect fill="#ffffff" stroke="none" x="232" y="488" width="88" height="44"></rect></g><g transform="translate(-202,-130) scale(1,1)"><path fill="none" stroke="#000000" d="M 232 488 L 320 488 L 320 532 L 232 532 L 232 488 Z Z" stroke-miterlimit="10"></path></g><g transform="translate(-202,-130) scale(1,1)"><path fill="none" stroke="#000000" d="M 232 513 L 320 513" stroke-miterlimit="10"></path></g><g transform="translate(-202,-130) scale(1,1)"><path fill="none" stroke="#000000" d="M 232 523 L 320 523" stroke-miterlimit="10"></path></g><g transform="translate(-202,-130) scale(1,1)"><g><path fill="none" stroke="none"></path><text fill="#000000" stroke="none" font-family="Arial" font-size="13px" font-style="normal" font-weight="bold" text-decoration="none" x="237" y="507.5">HASHTABLE</text></g></g><g transform="translate(-202,-130) scale(1,1)"><path fill="none" stroke="#000000" d="M 284.98984771573606 487 L 329.93908629441626 372" stroke-miterlimit="10"></path></g><g transform="translate(-202,-130) scale(1,1)"><path fill="#FFFFFF" stroke="none" d="M 330.16010771080585 382.99777930009043 L 329.93908629441626 372 L 322.31876771564583 379.9328900634035 L 321.93014475820956 392.49040886536"></path></g><g transform="translate(-202,-130) scale(1,1)"><path fill="none" stroke="#000000" d="M 330.16010771080585 382.99777930009043 L 329.93908629441626 372 L 322.31876771564583 379.9328900634035 L 321.93014475820956 392.49040886536 L 330.16010771080585 382.99777930009043" stroke-miterlimit="10"></path></g><g transform="translate(-202,-130) scale(1,1)"><g><path fill="none" stroke="none"></path><text fill="#000000" stroke="none" font-family="Arial" font-size="13px" font-style="normal" font-weight="normal" text-decoration="none" x="267" y="428">+data</text></g></g><g transform="translate(-202,-130) scale(1,1)"><rect fill="#C0C0C0" stroke="none" x="219" y="147" width="142" height="102" opacity="0.2"></rect></g><g transform="translate(-202,-130) scale(1,1)"><rect fill="#ffffff" stroke="none" x="212" y="140" width="142" height="102"></rect></g><g transform="translate(-202,-130) scale(1,1)"><path fill="none" stroke="#000000" d="M 212 140 L 354 140 L 354 242 L 212 242 L 212 140 Z Z" stroke-miterlimit="10"></path></g><g transform="translate(-202,-130) scale(1,1)"><path fill="none" stroke="#000000" d="M 212 165 L 354 165" stroke-miterlimit="10"></path></g><g transform="translate(-202,-130) scale(1,1)"><path fill="none" stroke="#000000" d="M 212 233 L 354 233" stroke-miterlimit="10"></path></g><g transform="translate(-202,-130) scale(1,1)"><g><path fill="none" stroke="none"></path><text fill="#000000" stroke="none" font-family="Arial" font-size="13px" font-style="normal" font-weight="bold" text-decoration="none" x="217" y="159.5">MYSQL_USER_HOST</text></g></g><g transform="translate(-202,-130) scale(1,1)"><g><path fill="none" stroke="none"></path><text fill="#000000" stroke="none" font-family="Arial" font-size="13px" font-style="normal" font-weight="normal" text-decoration="none" x="217" y="182.5">+user</text></g></g><g transform="translate(-202,-130) scale(1,1)"><g><path fill="none" stroke="none"></path><text fill="#000000" stroke="none" font-family="Arial" font-size="13px" font-style="normal" font-weight="normal" text-decoration="none" x="217" y="197.5">+ipv4</text></g></g><g transform="translate(-202,-130) scale(1,1)"><g><path fill="none" stroke="none"></path><text fill="#000000" stroke="none" font-family="Arial" font-size="13px" font-style="normal" font-weight="normal" text-decoration="none" x="217" y="212.5">+netmask</text></g></g><g transform="translate(-202,-130) scale(1,1)"><g><path fill="none" stroke="none"></path><text fill="#000000" stroke="none" font-family="Arial" font-size="13px" font-style="normal" font-weight="normal" text-decoration="none" x="217" y="227.5">+resource</text></g></g></g></svg>