<svg version="1.1" xmlns="http://www.w3.org/2000/svg" xmlns:xlink="http://www.w3.org/1999/xlink" width="840" height="400"><defs></defs><g><g transform="translate(10,10) scale(1,1)"><path fill="none" stroke="#000000" d="M 0 0 L 820 0 L 820 380 L 0 380 L 0 0" stroke-miterlimit="10"></path></g><g transform="translate(10,10) scale(1,1)"><path fill="#ffffff" stroke="none" d="M 0 0 L 0 22 L 156 22 L 167 11 L 167 0 L 0 0"></path></g><g transform="translate(10,10) scale(1,1)"><path fill="none" stroke="#000000" d="M 0 0 L 0 22 L 156 22 L 167 11 L 167 0 L 0 0 L 0 0" stroke-miterlimit="10"></path></g><g transform="translate(10,10) scale(1,1)"><g><path fill="none" stroke="none"></path><text fill="#000000" stroke="none" font-family="Arial" font-size="13px" font-style="normal" font-weight="normal" text-decoration="none" x="47" y="17.5">Client Request Flow</text></g></g><g transform="translate(10,10) scale(1,1)"><g><path fill="none" stroke="none"></path><text fill="#000000" stroke="none" font-family="Arial" font-size="13px" font-style="normal" font-weight="bold" text-decoration="none" x="-1" y="17.5">interaction</text></g></g><g transform="translate(10,10) scale(1,1)"><rect fill="#C0C0C0" stroke="none" x="75" y="95" width="72" height="39" opacity="0.2"></rect></g><g transform="translate(10,10) scale(1,1)"><rect fill="#ffffff" stroke="none" x="68" y="88" width="72" height="39"></rect></g><g transform="translate(10,10) scale(1,1)"><path fill="none" stroke="#000000" d="M 68 88 L 140 88 L 140 127 L 68 127 L 68 88 Z Z" stroke-miterlimit="10"></path></g><g transform="translate(10,10) scale(1,1)"><g><path fill="none" stroke="none"></path><text fill="#000000" stroke="none" font-family="Arial" font-size="13px" font-style="normal" font-weight="bold" text-decoration="none" x="80" y="107.5">Protocol</text></g></g><g transform="translate(10,10) scale(1,1)"><path fill="none" stroke="#000000" d="M 105 128 L 105 324" stroke-miterlimit="10" stroke-dasharray="3"></path></g><g transform="translate(10,10) scale(1,1)"><rect fill="#C0C0C0" stroke="none" x="227" y="95" width="72" height="39" opacity="0.2"></rect></g><g transform="translate(10,10) scale(1,1)"><rect fill="#ffffff" stroke="none" x="220" y="88" width="72" height="39"></rect></g><g transform="translate(10,10) scale(1,1)"><path fill="none" stroke="#000000" d="M 220 88 L 292 88 L 292 127 L 220 127 L 220 88 Z Z" stroke-miterlimit="10"></path></g><g transform="translate(10,10) scale(1,1)"><g><path fill="none" stroke="none"></path><text fill="#000000" stroke="none" font-family="Arial" font-size="13px" font-style="normal" font-weight="bold" text-decoration="none" x="232.5" y="107.5">Session</text></g></g><g transform="translate(10,10) scale(1,1)"><path fill="none" stroke="#000000" d="M 257 128 L 257 312" stroke-miterlimit="10" stroke-dasharray="3"></path></g><g transform="translate(10,10) scale(1,1)"><rect fill="#C0C0C0" stroke="none" x="379" y="95" width="72" height="39" opacity="0.2"></rect></g><g transform="translate(10,10) scale(1,1)"><rect fill="#ffffff" stroke="none" x="372" y="88" width="72" height="39"></rect></g><g transform="translate(10,10) scale(1,1)"><path fill="none" stroke="#000000" d="M 372 88 L 444 88 L 444 127 L 372 127 L 372 88 Z Z" stroke-miterlimit="10"></path></g><g transform="translate(10,10) scale(1,1)"><g><path fill="none" stroke="none"></path><text fill="#000000" stroke="none" font-family="Arial" font-size="13px" font-style="normal" font-weight="bold" text-decoration="none" x="393.5" y="107.5">Filter</text></g></g><g transform="translate(10,10) scale(1,1)"><path fill="none" stroke="#000000" d="M 409 128 L 409 316" stroke-miterlimit="10" stroke-dasharray="3"></path></g><g transform="translate(10,10) scale(1,1)"><rect fill="#C0C0C0" stroke="none" x="535" y="95" width="72" height="39" opacity="0.2"></rect></g><g transform="translate(10,10) scale(1,1)"><rect fill="#ffffff" stroke="none" x="528" y="88" width="72" height="39"></rect></g><g transform="translate(10,10) scale(1,1)"><path fill="none" stroke="#000000" d="M 528 88 L 600 88 L 600 127 L 528 127 L 528 88 Z Z" stroke-miterlimit="10"></path></g><g transform="translate(10,10) scale(1,1)"><g><path fill="none" stroke="none"></path><text fill="#000000" stroke="none" font-family="Arial" font-size="13px" font-style="normal" font-weight="bold" text-decoration="none" x="545" y="107.5">Router</text></g></g><g transform="translate(10,10) scale(1,1)"><path fill="none" stroke="#000000" d="M 565 128 L 565 328" stroke-miterlimit="10" stroke-dasharray="3"></path></g><g transform="translate(10,10) scale(1,1)"><rect fill="#C0C0C0" stroke="none" x="715" y="95" width="72" height="39" opacity="0.2"></rect></g><g transform="translate(10,10) scale(1,1)"><rect fill="#ffffff" stroke="none" x="708" y="88" width="72" height="39"></rect></g><g transform="translate(10,10) scale(1,1)"><path fill="none" stroke="#000000" d="M 708 88 L 780 88 L 780 127 L 708 127 L 708 88 Z Z" stroke-miterlimit="10"></path></g><g transform="translate(10,10) scale(1,1)"><g><path fill="none" stroke="none"></path><text fill="#000000" stroke="none" font-family="Arial" font-size="13px" font-style="normal" font-weight="bold" text-decoration="none" x="720" y="107.5">Protocol</text></g></g><g transform="translate(10,10) scale(1,1)"><path fill="none" stroke="#000000" d="M 745 128 L 745 336" stroke-miterlimit="10" stroke-dasharray="3"></path></g><g transform="translate(10,10) scale(1,1)"><path fill="none" stroke="#000000" d="M 104.5 165 L 249.5 165" stroke-miterlimit="10"></path></g><g transform="translate(10,10) scale(1,1)"><path fill="#000000" stroke="none" d="M 239.33732514237585 169.209517756016 L 249.5 165 L 239.33732514237585 160.790482243984"></path></g><g transform="translate(10,10) scale(1,1)"><path fill="none" stroke="#000000" d="M 239.33732514237585 169.209517756016 L 249.5 165 L 239.33732514237585 160.790482243984 L 239.33732514237585 169.209517756016" stroke-miterlimit="10"></path></g><g transform="translate(10,10) scale(1,1)"><g><path fill="none" stroke="none"></path><text fill="#000000" stroke="none" font-family="Arial" font-size="13px" font-style="normal" font-weight="normal" text-decoration="none" x="136" y="162">1 : routeQuery</text></g></g><g transform="translate(10,10) scale(1,1)"><rect fill="#ffffff" stroke="none" x="249.5" y="165" width="13" height="103"></rect></g><g transform="translate(10,10) scale(1,1)"><path fill="none" stroke="#000000" d="M 249.5 165 L 262.5 165 L 262.5 268 L 249.5 268 L 249.5 165 Z Z" stroke-miterlimit="10"></path></g><g transform="translate(10,10) scale(1,1)"><path fill="none" stroke="#000000" d="M 262.5 192 L 401.5 192" stroke-miterlimit="10"></path></g><g transform="translate(10,10) scale(1,1)"><path fill="#000000" stroke="none" d="M 391.33732514237585 196.209517756016 L 401.5 192 L 391.33732514237585 187.790482243984"></path></g><g transform="translate(10,10) scale(1,1)"><path fill="none" stroke="#000000" d="M 391.33732514237585 196.209517756016 L 401.5 192 L 391.33732514237585 187.790482243984 L 391.33732514237585 196.209517756016" stroke-miterlimit="10"></path></g><g transform="translate(10,10) scale(1,1)"><g><path fill="none" stroke="none"></path><text fill="#000000" stroke="none" font-family="Arial" font-size="13px" font-style="normal" font-weight="normal" text-decoration="none" x="291" y="189">2 : routeQuery</text></g></g><g transform="translate(10,10) scale(1,1)"><rect fill="#ffffff" stroke="none" x="401.5" y="192" width="13" height="80"></rect></g><g transform="translate(10,10) scale(1,1)"><path fill="none" stroke="#000000" d="M 401.5 192 L 414.5 192 L 414.5 272 L 401.5 272 L 401.5 192 Z Z" stroke-miterlimit="10"></path></g><g transform="translate(10,10) scale(1,1)"><path fill="none" stroke="#000000" d="M 414.5 212 L 557.5 212" stroke-miterlimit="10"></path></g><g transform="translate(10,10) scale(1,1)"><path fill="#000000" stroke="none" d="M 547.3373251423759 216.209517756016 L 557.5 212 L 547.3373251423758 207.790482243984"></path></g><g transform="translate(10,10) scale(1,1)"><path fill="none" stroke="#000000" d="M 547.3373251423759 216.209517756016 L 557.5 212 L 547.3373251423758 207.790482243984 L 547.3373251423759 216.209517756016" stroke-miterlimit="10"></path></g><g transform="translate(10,10) scale(1,1)"><g><path fill="none" stroke="none"></path><text fill="#000000" stroke="none" font-family="Arial" font-size="13px" font-style="normal" font-weight="normal" text-decoration="none" x="445" y="209">3 : routeQuery</text></g></g><g transform="translate(10,10) scale(1,1)"><rect fill="#ffffff" stroke="none" x="557.5" y="212" width="13" height="68"></rect></g><g transform="translate(10,10) scale(1,1)"><path fill="none" stroke="#000000" d="M 557.5 212 L 570.5 212 L 570.5 280 L 557.5 280 L 557.5 212 Z Z" stroke-miterlimit="10"></path></g><g transform="translate(10,10) scale(1,1)"><path fill="none" stroke="#000000" d="M 570.5 236 L 737.5 236" stroke-miterlimit="10"></path></g><g transform="translate(10,10) scale(1,1)"><path fill="#000000" stroke="none" d="M 727.3373251423759 240.209517756016 L 737.5 236 L 727.3373251423758 231.790482243984"></path></g><g transform="translate(10,10) scale(1,1)"><path fill="none" stroke="#000000" d="M 727.3373251423759 240.209517756016 L 737.5 236 L 727.3373251423758 231.790482243984 L 727.3373251423759 240.209517756016" stroke-miterlimit="10"></path></g><g transform="translate(10,10) scale(1,1)"><g><path fill="none" stroke="none"></path><text fill="#000000" stroke="none" font-family="Arial" font-size="13px" font-style="normal" font-weight="normal" text-decoration="none" x="631" y="233">4 : write</text></g></g><g transform="translate(10,10) scale(1,1)"><rect fill="#ffffff" stroke="none" x="737.5" y="236" width="13" height="28"></rect></g><g transform="translate(10,10) scale(1,1)"><path fill="none" stroke="#000000" d="M 737.5 236 L 750.5 236 L 750.5 264 L 737.5 264 L 737.5 236 Z Z" stroke-miterlimit="10"></path></g></g></svg>