<svg version="1.1" xmlns="http://www.w3.org/2000/svg" xmlns:xlink="http://www.w3.org/1999/xlink" width="780" height="542"><defs></defs><g><g transform="translate(-42,-53) scale(1,1)"><rect fill="#C0C0C0" stroke="none" x="271" y="143" width="73" height="87" opacity="0.2"></rect></g><g transform="translate(-42,-53) scale(1,1)"><rect fill="#ffffff" stroke="none" x="264" y="136" width="73" height="87"></rect></g><g transform="translate(-42,-53) scale(1,1)"><path fill="none" stroke="#000000" d="M 264 136 L 337 136 L 337 223 L 264 223 L 264 136 Z Z" stroke-miterlimit="10"></path></g><g transform="translate(-42,-53) scale(1,1)"><path fill="none" stroke="#000000" d="M 264 161 L 337 161" stroke-miterlimit="10"></path></g><g transform="translate(-42,-53) scale(1,1)"><path fill="none" stroke="#000000" d="M 264 214 L 337 214" stroke-miterlimit="10"></path></g><g transform="translate(-42,-53) scale(1,1)"><g><path fill="none" stroke="none"></path><text fill="#000000" stroke="none" font-family="Arial" font-size="13px" font-style="normal" font-weight="bold" text-decoration="none" x="287" y="155.5">DCB</text></g></g><g transform="translate(-42,-53) scale(1,1)"><g><path fill="none" stroke="none"></path><text fill="#000000" stroke="none" font-family="Arial" font-size="13px" font-style="normal" font-weight="normal" text-decoration="none" x="269" y="178.5">+role</text></g></g><g transform="translate(-42,-53) scale(1,1)"><g><path fill="none" stroke="none"></path><text fill="#000000" stroke="none" font-family="Arial" font-size="13px" font-style="normal" font-weight="normal" text-decoration="none" x="269" y="193.5">+fd</text></g></g><g transform="translate(-42,-53) scale(1,1)"><g><path fill="none" stroke="none"></path><text fill="#000000" stroke="none" font-family="Arial" font-size="13px" font-style="normal" font-weight="normal" text-decoration="none" x="269" y="208.5">+state</text></g></g><g transform="translate(-42,-53) scale(1,1)"><rect fill="#C0C0C0" stroke="none" x="655" y="431" width="123" height="132" opacity="0.2"></rect></g><g transform="translate(-42,-53) scale(1,1)"><rect fill="#ffffff" stroke="none" x="648" y="424" width="123" height="132"></rect></g><g transform="translate(-42,-53) scale(1,1)"><path fill="none" stroke="#000000" d="M 648 424 L 771 424 L 771 556 L 648 556 L 648 424 Z Z" stroke-miterlimit="10"></path></g><g transform="translate(-42,-53) scale(1,1)"><path fill="none" stroke="#000000" d="M 648 449 L 771 449" stroke-miterlimit="10"></path></g><g transform="translate(-42,-53) scale(1,1)"><path fill="none" stroke="#000000" d="M 648 547 L 771 547" stroke-miterlimit="10"></path></g><g transform="translate(-42,-53) scale(1,1)"><g><path fill="none" stroke="none"></path><text fill="#000000" stroke="none" font-family="Arial" font-size="13px" font-style="normal" font-weight="bold" text-decoration="none" x="674" y="443.5">DCBEventQ</text></g></g><g transform="translate(-42,-53) scale(1,1)"><g><path fill="none" stroke="none"></path><text fill="#000000" stroke="none" font-family="Arial" font-size="13px" font-style="normal" font-weight="normal" text-decoration="none" x="653" y="466.5">+pending_events</text></g></g><g transform="translate(-42,-53) scale(1,1)"><g><path fill="none" stroke="none"></path><text fill="#000000" stroke="none" font-family="Arial" font-size="13px" font-style="normal" font-weight="normal" text-decoration="none" x="653" y="481.5">+processing events</text></g></g><g transform="translate(-42,-53) scale(1,1)"><g><path fill="none" stroke="none"></path><text fill="#000000" stroke="none" font-family="Arial" font-size="13px" font-style="normal" font-weight="normal" text-decoration="none" x="653" y="496.5">+processing</text></g></g><g transform="translate(-42,-53) scale(1,1)"><g><path fill="none" stroke="none"></path><text fill="#000000" stroke="none" font-family="Arial" font-size="13px" font-style="normal" font-weight="normal" text-decoration="none" x="653" y="511.5">+eventq_lock</text></g></g><g transform="translate(-42,-53) scale(1,1)"><g><path fill="none" stroke="none"></path><text fill="#000000" stroke="none" font-family="Arial" font-size="13px" font-style="normal" font-weight="normal" text-decoration="none" x="653" y="526.5">+inserted</text></g></g><g transform="translate(-42,-53) scale(1,1)"><g><path fill="none" stroke="none"></path><text fill="#000000" stroke="none" font-family="Arial" font-size="13px" font-style="normal" font-weight="normal" text-decoration="none" x="653" y="541.5">+started</text></g></g><g transform="translate(-42,-53) scale(1,1)"><path fill="none" stroke="#000000" d="M 647 442.8557457212714 L 338 207.89486552567237" stroke-miterlimit="10"></path></g><g transform="translate(-42,-53) scale(1,1)"><path fill="#000000" stroke="none" d="M 348.6375523022806 210.69530852924237 L 338 207.89486552567237 L 343.5416731300184 217.39696313199235 L 355.5122674146928 221.21103952559773"></path></g><g transform="translate(-42,-53) scale(1,1)"><path fill="none" stroke="#000000" d="M 348.6375523022806 210.69530852924237 L 338 207.89486552567237 L 343.5416731300184 217.39696313199235 L 355.5122674146928 221.21103952559773 L 348.6375523022806 210.69530852924237" stroke-miterlimit="10"></path></g><g transform="translate(-42,-53) scale(1,1)"><g><path fill="none" stroke="none"></path><text fill="#000000" stroke="none" font-family="Arial" font-size="13px" font-style="normal" font-weight="normal" text-decoration="none" x="468" y="343">+evq</text></g></g><g transform="translate(-42,-53) scale(1,1)"><rect fill="#C0C0C0" stroke="none" x="707" y="307" width="57" height="44" opacity="0.2"></rect></g><g transform="translate(-42,-53) scale(1,1)"><rect fill="#ffffff" stroke="none" x="700" y="300" width="57" height="44"></rect></g><g transform="translate(-42,-53) scale(1,1)"><path fill="none" stroke="#000000" d="M 700 300 L 757 300 L 757 344 L 700 344 L 700 300 Z Z" stroke-miterlimit="10"></path></g><g transform="translate(-42,-53) scale(1,1)"><path fill="none" stroke="#000000" d="M 700 325 L 757 325" stroke-miterlimit="10"></path></g><g transform="translate(-42,-53) scale(1,1)"><path fill="none" stroke="#000000" d="M 700 335 L 757 335" stroke-miterlimit="10"></path></g><g transform="translate(-42,-53) scale(1,1)"><g><path fill="none" stroke="none"></path><text fill="#000000" stroke="none" font-family="Arial" font-size="13px" font-style="normal" font-weight="bold" text-decoration="none" x="704.5" y="319.5">GWBUF</text></g></g><g transform="translate(-42,-53) scale(1,1)"><path fill="none" stroke="#000000" d="M 728 300 L 728 280 L 786 280 L 786 322 L 757 322" stroke-miterlimit="10"></path></g><g transform="translate(-42,-53) scale(1,1)"><path fill="none" stroke="#000000" d="M 767.1626748576241 317.790482243984 L 757 322 L 767.1626748576241 326.209517756016" stroke-miterlimit="10"></path></g><g transform="translate(-42,-53) scale(1,1)"><g><path fill="none" stroke="none"></path><text fill="#000000" stroke="none" font-family="Arial" font-size="13px" font-style="normal" font-weight="normal" text-decoration="none" x="766" y="343">+next</text></g></g><g transform="translate(-42,-53) scale(1,1)"><path fill="none" stroke="#000000" d="M 338 191.696261682243 L 699 312.3107476635514" stroke-miterlimit="10"></path></g><g transform="translate(-42,-53) scale(1,1)"><path fill="none" stroke="#000000" d="M 688.027129950792 313.0828376085671 L 699 312.3107476635514 L 690.6950591433197 305.09770687848425" stroke-miterlimit="10"></path></g><g transform="translate(-42,-53) scale(1,1)"><g><path fill="none" stroke="none"></path><text fill="#000000" stroke="none" font-family="Arial" font-size="13px" font-style="normal" font-weight="normal" text-decoration="none" x="501" y="244">+writeq</text></g></g><g transform="translate(-42,-53) scale(1,1)"><rect fill="#C0C0C0" stroke="none" x="647" y="207" width="57" height="44" opacity="0.2"></rect></g><g transform="translate(-42,-53) scale(1,1)"><rect fill="#ffffff" stroke="none" x="640" y="200" width="57" height="44"></rect></g><g transform="translate(-42,-53) scale(1,1)"><path fill="none" stroke="#000000" d="M 640 200 L 697 200 L 697 244 L 640 244 L 640 200 Z Z" stroke-miterlimit="10"></path></g><g transform="translate(-42,-53) scale(1,1)"><path fill="none" stroke="#000000" d="M 640 225 L 697 225" stroke-miterlimit="10"></path></g><g transform="translate(-42,-53) scale(1,1)"><path fill="none" stroke="#000000" d="M 640 235 L 697 235" stroke-miterlimit="10"></path></g><g transform="translate(-42,-53) scale(1,1)"><g><path fill="none" stroke="none"></path><text fill="#000000" stroke="none" font-family="Arial" font-size="13px" font-style="normal" font-weight="bold" text-decoration="none" x="644.5" y="219.5">GWBUF</text></g></g><g transform="translate(-42,-53) scale(1,1)"><path fill="none" stroke="#000000" d="M 668 200 L 668 180 L 726 180 L 726 222 L 697 222" stroke-miterlimit="10"></path></g><g transform="translate(-42,-53) scale(1,1)"><path fill="none" stroke="#000000" d="M 707.1626748576241 217.790482243984 L 697 222 L 707.1626748576241 226.209517756016" stroke-miterlimit="10"></path></g><g transform="translate(-42,-53) scale(1,1)"><g><path fill="none" stroke="none"></path><text fill="#000000" stroke="none" font-family="Arial" font-size="13px" font-style="normal" font-weight="normal" text-decoration="none" x="706" y="243">+next</text></g></g><g transform="translate(-42,-53) scale(1,1)"><path fill="none" stroke="#000000" d="M 338 183.44021739130434 L 639 218.61141304347825" stroke-miterlimit="10"></path></g><g transform="translate(-42,-53) scale(1,1)"><path fill="none" stroke="#000000" d="M 628.4174511812565 221.6130226948004 L 639 218.61141304347825 L 629.3945494291039 213.2508795504319" stroke-miterlimit="10"></path></g><g transform="translate(-42,-53) scale(1,1)"><g><path fill="none" stroke="none"></path><text fill="#000000" stroke="none" font-family="Arial" font-size="13px" font-style="normal" font-weight="normal" text-decoration="none" x="466" y="193">+delayq</text></g></g><g transform="translate(-42,-53) scale(1,1)"><rect fill="#C0C0C0" stroke="none" x="587" y="131" width="57" height="44" opacity="0.2"></rect></g><g transform="translate(-42,-53) scale(1,1)"><rect fill="#ffffff" stroke="none" x="580" y="124" width="57" height="44"></rect></g><g transform="translate(-42,-53) scale(1,1)"><path fill="none" stroke="#000000" d="M 580 124 L 637 124 L 637 168 L 580 168 L 580 124 Z Z" stroke-miterlimit="10"></path></g><g transform="translate(-42,-53) scale(1,1)"><path fill="none" stroke="#000000" d="M 580 149 L 637 149" stroke-miterlimit="10"></path></g><g transform="translate(-42,-53) scale(1,1)"><path fill="none" stroke="#000000" d="M 580 159 L 637 159" stroke-miterlimit="10"></path></g><g transform="translate(-42,-53) scale(1,1)"><g><path fill="none" stroke="none"></path><text fill="#000000" stroke="none" font-family="Arial" font-size="13px" font-style="normal" font-weight="bold" text-decoration="none" x="584.5" y="143.5">GWBUF</text></g></g><g transform="translate(-42,-53) scale(1,1)"><path fill="none" stroke="#000000" d="M 608 124 L 608 104 L 666 104 L 666 146 L 637 146" stroke-miterlimit="10"></path></g><g transform="translate(-42,-53) scale(1,1)"><path fill="none" stroke="#000000" d="M 647.1626748576241 141.790482243984 L 637 146 L 647.1626748576241 150.209517756016" stroke-miterlimit="10"></path></g><g transform="translate(-42,-53) scale(1,1)"><g><path fill="none" stroke="none"></path><text fill="#000000" stroke="none" font-family="Arial" font-size="13px" font-style="normal" font-weight="normal" text-decoration="none" x="646" y="167">+next</text></g></g><g transform="translate(-42,-53) scale(1,1)"><path fill="none" stroke="#000000" d="M 338 174.92857142857142 L 579 149.10714285714286" stroke-miterlimit="10"></path></g><g transform="translate(-42,-53) scale(1,1)"><path fill="none" stroke="#000000" d="M 569.3436124362959 154.37536639259963 L 579 149.10714285714286 L 568.4467062852113 146.0042423158103" stroke-miterlimit="10"></path></g><g transform="translate(-42,-53) scale(1,1)"><g><path fill="none" stroke="none"></path><text fill="#000000" stroke="none" font-family="Arial" font-size="13px" font-style="normal" font-weight="normal" text-decoration="none" x="408" y="154">+dcb_readqueue</text></g></g><g transform="translate(-42,-53) scale(1,1)"><path fill="none" stroke="#000000" d="M 289 136 L 289 116 L 224 116 L 224 158 L 264 158" stroke-miterlimit="10"></path></g><g transform="translate(-42,-53) scale(1,1)"><path fill="none" stroke="#000000" d="M 253.83732514237585 162.209517756016 L 264 158 L 253.83732514237585 153.790482243984" stroke-miterlimit="10"></path></g><g transform="translate(-42,-53) scale(1,1)"><g><path fill="none" stroke="none"></path><text fill="#000000" stroke="none" font-family="Arial" font-size="13px" font-style="normal" font-weight="normal" text-decoration="none" x="222" y="150">+next</text></g></g><g transform="translate(-42,-53) scale(1,1)"><rect fill="#C0C0C0" stroke="none" x="359" y="495" width="67" height="44" opacity="0.2"></rect></g><g transform="translate(-42,-53) scale(1,1)"><rect fill="#ffffff" stroke="none" x="352" y="488" width="67" height="44"></rect></g><g transform="translate(-42,-53) scale(1,1)"><path fill="none" stroke="#000000" d="M 352 488 L 419 488 L 419 532 L 352 532 L 352 488 Z Z" stroke-miterlimit="10"></path></g><g transform="translate(-42,-53) scale(1,1)"><path fill="none" stroke="#000000" d="M 352 513 L 419 513" stroke-miterlimit="10"></path></g><g transform="translate(-42,-53) scale(1,1)"><path fill="none" stroke="#000000" d="M 352 523 L 419 523" stroke-miterlimit="10"></path></g><g transform="translate(-42,-53) scale(1,1)"><g><path fill="none" stroke="none"></path><text fill="#000000" stroke="none" font-family="Arial" font-size="13px" font-style="normal" font-weight="bold" text-decoration="none" x="356.5" y="507.5">SERVICE</text></g></g><g transform="translate(-42,-53) scale(1,1)"><path fill="none" stroke="#000000" d="M 311.5558912386707 224 L 379.09365558912384 487" stroke-miterlimit="10"></path></g><g transform="translate(-42,-53) scale(1,1)"><path fill="none" stroke="#000000" d="M 372.48869292860945 478.2037241827458 L 379.09365558912384 487 L 380.64314798195784 476.10967983369864" stroke-miterlimit="10"></path></g><g transform="translate(-42,-53) scale(1,1)"><g><path fill="none" stroke="none"></path><text fill="#000000" stroke="none" font-family="Arial" font-size="13px" font-style="normal" font-weight="normal" text-decoration="none" x="334" y="358">+service</text></g></g><g transform="translate(-42,-53) scale(1,1)"><rect fill="#C0C0C0" stroke="none" x="107" y="307" width="104" height="44" opacity="0.2"></rect></g><g transform="translate(-42,-53) scale(1,1)"><rect fill="#ffffff" stroke="none" x="100" y="300" width="104" height="44"></rect></g><g transform="translate(-42,-53) scale(1,1)"><path fill="none" stroke="#000000" d="M 100 300 L 204 300 L 204 344 L 100 344 L 100 300 Z Z" stroke-miterlimit="10"></path></g><g transform="translate(-42,-53) scale(1,1)"><path fill="none" stroke="#000000" d="M 100 325 L 204 325" stroke-miterlimit="10"></path></g><g transform="translate(-42,-53) scale(1,1)"><path fill="none" stroke="#000000" d="M 100 335 L 204 335" stroke-miterlimit="10"></path></g><g transform="translate(-42,-53) scale(1,1)"><g><path fill="none" stroke="none"></path><text fill="#000000" stroke="none" font-family="Arial" font-size="13px" font-style="normal" font-weight="bold" text-decoration="none" x="105" y="319.5">GWPROTOCOL</text></g></g><g transform="translate(-42,-53) scale(1,1)"><path fill="none" stroke="#000000" d="M 263 188.25 L 152 216 L 152 299" stroke-miterlimit="10"></path></g><g transform="translate(-42,-53) scale(1,1)"><path fill="none" stroke="#000000" d="M 147.790482243984 288.83732514237585 L 152 299 L 156.209517756016 288.83732514237585" stroke-miterlimit="10"></path></g><g transform="translate(-42,-53) scale(1,1)"><path fill="#000000" stroke="none" d="M 254.16171522551727 194.79864277886242 L 263 188.25 L 252.1197991854035 186.6309786184074 L 241.6568649968027 193.58578375079932"></path></g><g transform="translate(-42,-53) scale(1,1)"><path fill="none" stroke="#000000" d="M 254.16171522551727 194.79864277886242 L 263 188.25 L 252.1197991854035 186.6309786184074 L 241.6568649968027 193.58578375079932 L 254.16171522551727 194.79864277886242" stroke-miterlimit="10"></path></g><g transform="translate(-42,-53) scale(1,1)"><g><path fill="none" stroke="none"></path><text fill="#000000" stroke="none" font-family="Arial" font-size="13px" font-style="normal" font-weight="normal" text-decoration="none" x="163" y="222">+funcs</text></g></g><g transform="translate(-42,-53) scale(1,1)"><path fill="none" stroke="#000000" d="M 740 424 L 740 392 L 796 392 L 796 448 L 771 448" stroke-miterlimit="10"></path></g><g transform="translate(-42,-53) scale(1,1)"><path fill="none" stroke="#000000" d="M 781.1626748576241 443.790482243984 L 771 448 L 781.1626748576241 452.209517756016" stroke-miterlimit="10"></path></g><g transform="translate(-42,-53) scale(1,1)"><g><path fill="none" stroke="none"></path><text fill="#000000" stroke="none" font-family="Arial" font-size="13px" font-style="normal" font-weight="normal" text-decoration="none" x="743" y="408">+next</text></g></g><g transform="translate(-42,-53) scale(1,1)"><path fill="none" stroke="#000000" d="M 771 528 L 800 528 L 800 584 L 748 584 L 748 556" stroke-miterlimit="10"></path></g><g transform="translate(-42,-53) scale(1,1)"><path fill="none" stroke="#000000" d="M 752.209517756016 566.1626748576241 L 748 556 L 743.790482243984 566.1626748576241" stroke-miterlimit="10"></path></g><g transform="translate(-42,-53) scale(1,1)"><g><path fill="none" stroke="none"></path><text fill="#000000" stroke="none" font-family="Arial" font-size="13px" font-style="normal" font-weight="normal" text-decoration="none" x="780" y="520">+prev</text></g></g><g transform="translate(-42,-53) scale(1,1)"><rect fill="#C0C0C0" stroke="none" x="131" y="463" width="68" height="44" opacity="0.2"></rect></g><g transform="translate(-42,-53) scale(1,1)"><rect fill="#ffffff" stroke="none" x="124" y="456" width="68" height="44"></rect></g><g transform="translate(-42,-53) scale(1,1)"><path fill="none" stroke="#000000" d="M 124 456 L 192 456 L 192 500 L 124 500 L 124 456 Z Z" stroke-miterlimit="10"></path></g><g transform="translate(-42,-53) scale(1,1)"><path fill="none" stroke="#000000" d="M 124 481 L 192 481" stroke-miterlimit="10"></path></g><g transform="translate(-42,-53) scale(1,1)"><path fill="none" stroke="#000000" d="M 124 491 L 192 491" stroke-miterlimit="10"></path></g><g transform="translate(-42,-53) scale(1,1)"><g><path fill="none" stroke="none"></path><text fill="#000000" stroke="none" font-family="Arial" font-size="13px" font-style="normal" font-weight="bold" text-decoration="none" x="128.5" y="475.5">SESSION</text></g></g><g transform="translate(-42,-53) scale(1,1)"><path fill="none" stroke="#000000" d="M 298.7878787878788 224 L 292 476 L 193 477.4776119402985" stroke-miterlimit="10"></path></g><g transform="translate(-42,-53) scale(1,1)"><path fill="none" stroke="#000000" d="M 203.09872146728986 473.1168981539903 L 193 477.4776119402985 L 203.22436471994706 481.5349960820211" stroke-miterlimit="10"></path></g><g transform="translate(-42,-53) scale(1,1)"><g><path fill="none" stroke="none"></path><text fill="#000000" stroke="none" font-family="Arial" font-size="13px" font-style="normal" font-weight="normal" text-decoration="none" x="244" y="412">+session</text></g></g><g transform="translate(-42,-53) scale(1,1)"><rect fill="#C0C0C0" stroke="none" x="539" y="499" width="79" height="44" opacity="0.2"></rect></g><g transform="translate(-42,-53) scale(1,1)"><rect fill="#ffffff" stroke="none" x="532" y="492" width="79" height="44"></rect></g><g transform="translate(-42,-53) scale(1,1)"><path fill="none" stroke="#000000" d="M 532 492 L 611 492 L 611 536 L 532 536 L 532 492 Z Z" stroke-miterlimit="10"></path></g><g transform="translate(-42,-53) scale(1,1)"><path fill="none" stroke="#000000" d="M 532 517 L 611 517" stroke-miterlimit="10"></path></g><g transform="translate(-42,-53) scale(1,1)"><path fill="none" stroke="#000000" d="M 532 527 L 611 527" stroke-miterlimit="10"></path></g><g transform="translate(-42,-53) scale(1,1)"><g><path fill="none" stroke="none"></path><text fill="#000000" stroke="none" font-family="Arial" font-size="13px" font-style="normal" font-weight="bold" text-decoration="none" x="536.5" y="511.5">DCBSTATS</text></g></g><g transform="translate(-42,-53) scale(1,1)"><path fill="none" stroke="#000000" d="M 552.3940298507463 491 L 336.4029850746269 224" stroke-miterlimit="10"></path></g><g transform="translate(-42,-53) scale(1,1)"><path fill="#000000" stroke="none" d="M 346.06734370205197 229.25358661492453 L 336.4029850746269 224 L 339.5218718749339 234.548580242235 L 350.23947022002744 241.10414215390847"></path></g><g transform="translate(-42,-53) scale(1,1)"><path fill="none" stroke="#000000" d="M 346.06734370205197 229.25358661492453 L 336.4029850746269 224 L 339.5218718749339 234.548580242235 L 350.23947022002744 241.10414215390847 L 346.06734370205197 229.25358661492453" stroke-miterlimit="10"></path></g><g transform="translate(-42,-53) scale(1,1)"><g><path fill="none" stroke="none"></path><text fill="#000000" stroke="none" font-family="Arial" font-size="13px" font-style="normal" font-weight="normal" text-decoration="none" x="414" y="373">+stats</text></g></g><g transform="translate(-42,-53) scale(1,1)"><rect fill="#C0C0C0" stroke="none" x="59" y="159" width="73" height="57" opacity="0.2"></rect></g><g transform="translate(-42,-53) scale(1,1)"><rect fill="#ffffff" stroke="none" x="52" y="152" width="73" height="57"></rect></g><g transform="translate(-42,-53) scale(1,1)"><path fill="none" stroke="#000000" d="M 52 152 L 125 152 L 125 209 L 52 209 L 52 152 Z Z" stroke-miterlimit="10"></path></g><g transform="translate(-42,-53) scale(1,1)"><path fill="none" stroke="#000000" d="M 52 177 L 125 177" stroke-miterlimit="10"></path></g><g transform="translate(-42,-53) scale(1,1)"><path fill="none" stroke="#000000" d="M 52 200 L 125 200" stroke-miterlimit="10"></path></g><g transform="translate(-42,-53) scale(1,1)"><g><path fill="none" stroke="none"></path><text fill="#000000" stroke="none" font-family="Arial" font-size="13px" font-style="normal" font-weight="bold" text-decoration="none" x="64" y="171.5">DCBMM</text></g></g><g transform="translate(-42,-53) scale(1,1)"><g><path fill="none" stroke="none"></path><text fill="#000000" stroke="none" font-family="Arial" font-size="13px" font-style="normal" font-weight="normal" text-decoration="none" x="57" y="194.5">+bitmask</text></g></g><g transform="translate(-42,-53) scale(1,1)"><path fill="none" stroke="#000000" d="M 126 179.82075471698113 L 263 179.1745283018868" stroke-miterlimit="10"></path></g><g transform="translate(-42,-53) scale(1,1)"><path fill="#000000" stroke="none" d="M 252.8572941947292 183.43193584025167 L 263 179.1745283018868 L 252.81758220486034 175.01299398805216 L 241.00024474493685 179.2783007323352"></path></g><g transform="translate(-42,-53) scale(1,1)"><path fill="none" stroke="#000000" d="M 252.8572941947292 183.43193584025167 L 263 179.1745283018868 L 252.81758220486034 175.01299398805216 L 241.00024474493685 179.2783007323352 L 252.8572941947292 183.43193584025167" stroke-miterlimit="10"></path></g><g transform="translate(-42,-53) scale(1,1)"><g><path fill="none" stroke="none"></path><text fill="#000000" stroke="none" font-family="Arial" font-size="13px" font-style="normal" font-weight="normal" text-decoration="none" x="153" y="171">+memdata</text></g></g><g transform="translate(-42,-53) scale(1,1)"><path fill="none" stroke="#000000" d="M 88 151 L 88 84 L 300 84 L 300 135" stroke-miterlimit="10"></path></g><g transform="translate(-42,-53) scale(1,1)"><path fill="none" stroke="#000000" d="M 295.790482243984 124.83732514237585 L 300 135 L 304.209517756016 124.83732514237585" stroke-miterlimit="10"></path></g><g transform="translate(-42,-53) scale(1,1)"><g><path fill="none" stroke="none"></path><text fill="#000000" stroke="none" font-family="Arial" font-size="13px" font-style="normal" font-weight="normal" text-decoration="none" x="108" y="76">+next</text></g></g></g></svg>