<svg version="1.1" xmlns="http://www.w3.org/2000/svg" xmlns:xlink="http://www.w3.org/1999/xlink" width="321" height="268"><defs></defs><g><g transform="translate(-438,-337) scale(1,1)"><rect fill="#C0C0C0" stroke="none" x="455" y="399" width="118" height="160" opacity="0.2"></rect></g><g transform="translate(-438,-337) scale(1,1)"><rect fill="#ffffff" stroke="none" x="448" y="392" width="118" height="160"></rect></g><g transform="translate(-438,-337) scale(1,1)"><path fill="none" stroke="#000000" d="M 448 392 L 566 392 L 566 552 L 448 552 L 448 392 Z Z" stroke-miterlimit="10"></path></g><g transform="translate(-438,-337) scale(1,1)"><path fill="none" stroke="#000000" d="M 448 417 L 566 417" stroke-miterlimit="10"></path></g><g transform="translate(-438,-337) scale(1,1)"><path fill="none" stroke="#000000" d="M 448 500 L 566 500" stroke-miterlimit="10"></path></g><g transform="translate(-438,-337) scale(1,1)"><g><path fill="none" stroke="none"></path><text fill="#000000" stroke="none" font-family="Arial" font-size="13px" font-style="normal" font-weight="bold" text-decoration="none" x="480.5" y="411.5">HKTASK</text></g></g><g transform="translate(-438,-337) scale(1,1)"><g><path fill="none" stroke="none"></path><text fill="#000000" stroke="none" font-family="Arial" font-size="13px" font-style="normal" font-weight="normal" text-decoration="none" x="453" y="434.5">+name</text></g></g><g transform="translate(-438,-337) scale(1,1)"><g><path fill="none" stroke="none"></path><text fill="#000000" stroke="none" font-family="Arial" font-size="13px" font-style="normal" font-weight="normal" text-decoration="none" x="453" y="449.5">+task</text></g></g><g transform="translate(-438,-337) scale(1,1)"><g><path fill="none" stroke="none"></path><text fill="#000000" stroke="none" font-family="Arial" font-size="13px" font-style="normal" font-weight="normal" text-decoration="none" x="453" y="464.5">+data</text></g></g><g transform="translate(-438,-337) scale(1,1)"><g><path fill="none" stroke="none"></path><text fill="#000000" stroke="none" font-family="Arial" font-size="13px" font-style="normal" font-weight="normal" text-decoration="none" x="453" y="479.5">+frequency</text></g></g><g transform="translate(-438,-337) scale(1,1)"><g><path fill="none" stroke="none"></path><text fill="#000000" stroke="none" font-family="Arial" font-size="13px" font-style="normal" font-weight="normal" text-decoration="none" x="453" y="494.5">+nextdue</text></g></g><g transform="translate(-438,-337) scale(1,1)"><g><path fill="none" stroke="none"></path><text fill="#000000" stroke="none" font-family="Arial" font-size="13px" font-style="normal" font-weight="normal" text-decoration="none" x="453" y="517.5">+hktask_add()</text></g></g><g transform="translate(-438,-337) scale(1,1)"><g><path fill="none" stroke="none"></path><text fill="#000000" stroke="none" font-family="Arial" font-size="13px" font-style="normal" font-weight="normal" text-decoration="none" x="453" y="532.5">+hktask_oneshot()</text></g></g><g transform="translate(-438,-337) scale(1,1)"><g><path fill="none" stroke="none"></path><text fill="#000000" stroke="none" font-family="Arial" font-size="13px" font-style="normal" font-weight="normal" text-decoration="none" x="453" y="547.5">+htktask_remove()</text></g></g><g transform="translate(-438,-337) scale(1,1)"><rect fill="#C0C0C0" stroke="none" x="651" y="527" width="105" height="75" opacity="0.2"></rect></g><g transform="translate(-438,-337) scale(1,1)"><rect fill="#ffffff" stroke="none" x="644" y="520" width="105" height="75"></rect></g><g transform="translate(-438,-337) scale(1,1)"><path fill="none" stroke="#000000" d="M 644 520 L 749 520 L 749 595 L 644 595 L 644 520 Z Z" stroke-miterlimit="10"></path></g><g transform="translate(-438,-337) scale(1,1)"><path fill="none" stroke="#000000" d="M 644 558 L 749 558" stroke-miterlimit="10"></path></g><g transform="translate(-438,-337) scale(1,1)"><g><path fill="none" stroke="none"></path><text fill="#000000" stroke="none" font-family="Arial" font-size="13px" font-style="normal" font-weight="normal" text-decoration="none" x="654" y="537.5">«enumeration»</text></g></g><g transform="translate(-438,-337) scale(1,1)"><g><path fill="none" stroke="none"></path><text fill="#000000" stroke="none" font-family="Arial" font-size="13px" font-style="normal" font-weight="bold" text-decoration="none" x="649" y="552.5">HKTASK_TYPE</text></g></g><g transform="translate(-438,-337) scale(1,1)"><g><path fill="none" stroke="none"></path><text fill="#000000" stroke="none" font-family="Arial" font-size="13px" font-style="normal" font-weight="normal" text-decoration="none" x="649" y="575.5">HK_REPEATED</text></g></g><g transform="translate(-438,-337) scale(1,1)"><g><path fill="none" stroke="none"></path><text fill="#000000" stroke="none" font-family="Arial" font-size="13px" font-style="normal" font-weight="normal" text-decoration="none" x="649" y="590.5">HK_ONESHOT</text></g></g><g transform="translate(-438,-337) scale(1,1)"><path fill="none" stroke="#000000" d="M 643 533.1640211640212 L 567 498.984126984127" stroke-miterlimit="10"></path></g><g transform="translate(-438,-337) scale(1,1)"><path fill="#000000" stroke="none" d="M 577.9950718532549 499.3133608550501 L 567 498.984126984127 L 574.5418863643438 506.9916203539229 L 587.0642589918748 508.0077355254463"></path></g><g transform="translate(-438,-337) scale(1,1)"><path fill="none" stroke="#000000" d="M 577.9950718532549 499.3133608550501 L 567 498.984126984127 L 574.5418863643438 506.9916203539229 L 587.0642589918748 508.0077355254463 L 577.9950718532549 499.3133608550501" stroke-miterlimit="10"></path></g><g transform="translate(-438,-337) scale(1,1)"><g><path fill="none" stroke="none"></path><text fill="#000000" stroke="none" font-family="Arial" font-size="13px" font-style="normal" font-weight="normal" text-decoration="none" x="582" y="536">+type</text></g></g><g transform="translate(-438,-337) scale(1,1)"><g><path fill="none" stroke="none"></path><text fill="#000000" stroke="none" font-family="Arial" font-size="13px" font-style="normal" font-weight="normal" text-decoration="none" x="625" y="519.1640211640212">1</text></g></g><g transform="translate(-438,-337) scale(1,1)"><g><path fill="none" stroke="none"></path><text fill="#000000" stroke="none" font-family="Arial" font-size="13px" font-style="normal" font-weight="normal" text-decoration="none" x="588" y="502.984126984127">1</text></g></g><g transform="translate(-438,-337) scale(1,1)"><path fill="none" stroke="#000000" d="M 507 392 L 507 372 L 596 372 L 596 472 L 566 472" stroke-miterlimit="10"></path></g><g transform="translate(-438,-337) scale(1,1)"><path fill="none" stroke="#000000" d="M 576.1626748576241 467.790482243984 L 566 472 L 576.1626748576241 476.209517756016" stroke-miterlimit="10"></path></g><g transform="translate(-438,-337) scale(1,1)"><g><path fill="none" stroke="none"></path><text fill="#000000" stroke="none" font-family="Arial" font-size="13px" font-style="normal" font-weight="normal" text-decoration="none" x="528" y="360">+next</text></g></g></g></svg>