<svg version="1.1" xmlns="http://www.w3.org/2000/svg" xmlns:xlink="http://www.w3.org/1999/xlink" width="824" height="636"><defs></defs><g><g transform="translate(-10,-10) scale(1,1)"><path fill="none" stroke="#000000" d="M 20 20 L 824 20 L 824 636 L 20 636 L 20 20" stroke-miterlimit="10"></path></g><g transform="translate(-10,-10) scale(1,1)"><path fill="#ffffff" stroke="none" d="M 20 20 L 20 42 L 138 42 L 149 31 L 149 20 L 20 20"></path></g><g transform="translate(-10,-10) scale(1,1)"><path fill="none" stroke="#000000" d="M 20 20 L 20 42 L 138 42 L 149 31 L 149 20 L 20 20 L 20 20" stroke-miterlimit="10"></path></g><g transform="translate(-10,-10) scale(1,1)"><g><path fill="none" stroke="none"></path><text fill="#000000" stroke="none" font-family="Arial" font-size="13px" font-style="normal" font-weight="normal" text-decoration="none" x="71" y="37.5">serviceStart</text></g></g><g transform="translate(-10,-10) scale(1,1)"><g><path fill="none" stroke="none"></path><text fill="#000000" stroke="none" font-family="Arial" font-size="13px" font-style="normal" font-weight="bold" text-decoration="none" x="19" y="37.5">interaction</text></g></g><g transform="translate(-10,-10) scale(1,1)"><rect fill="#C0C0C0" stroke="none" x="139" y="95" width="72" height="39" opacity="0.2"></rect></g><g transform="translate(-10,-10) scale(1,1)"><rect fill="#ffffff" stroke="none" x="132" y="88" width="72" height="39"></rect></g><g transform="translate(-10,-10) scale(1,1)"><path fill="none" stroke="#000000" d="M 132 88 L 204 88 L 204 127 L 132 127 L 132 88 Z Z" stroke-miterlimit="10"></path></g><g transform="translate(-10,-10) scale(1,1)"><g><path fill="none" stroke="none"></path><text fill="#000000" stroke="none" font-family="Arial" font-size="13px" font-style="normal" font-weight="bold" text-decoration="none" x="146" y="107.5">Service</text></g></g><g transform="translate(-10,-10) scale(1,1)"><path fill="none" stroke="#000000" d="M 169 128 L 169 620" stroke-miterlimit="10" stroke-dasharray="3"></path></g><g transform="translate(-10,-10) scale(1,1)"><rect fill="#C0C0C0" stroke="none" x="323" y="91" width="72" height="39" opacity="0.2"></rect></g><g transform="translate(-10,-10) scale(1,1)"><rect fill="#ffffff" stroke="none" x="316" y="84" width="72" height="39"></rect></g><g transform="translate(-10,-10) scale(1,1)"><path fill="none" stroke="#000000" d="M 316 84 L 388 84 L 388 123 L 316 123 L 316 84 Z Z" stroke-miterlimit="10"></path></g><g transform="translate(-10,-10) scale(1,1)"><g><path fill="none" stroke="none"></path><text fill="#000000" stroke="none" font-family="Arial" font-size="13px" font-style="normal" font-weight="bold" text-decoration="none" x="333" y="103.5">Router</text></g></g><g transform="translate(-10,-10) scale(1,1)"><path fill="none" stroke="#000000" d="M 353 124 L 353 624" stroke-miterlimit="10" stroke-dasharray="3"></path></g><g transform="translate(-10,-10) scale(1,1)"><rect fill="#ffffff" stroke="none" x="24" y="168.5" width="14" height="14"></rect></g><g transform="translate(-10,-10) scale(1,1)"><path fill="none" stroke="#000000" d="M 24 168.5 L 38 168.5 L 38 182.5 L 24 182.5 L 24 168.5 Z Z" stroke-miterlimit="10"></path></g><g transform="translate(-10,-10) scale(1,1)"><rect fill="#C0C0C0" stroke="none" x="483" y="267" width="72" height="39" opacity="0.2"></rect></g><g transform="translate(-10,-10) scale(1,1)"><rect fill="#ffffff" stroke="none" x="476" y="260" width="72" height="39"></rect></g><g transform="translate(-10,-10) scale(1,1)"><path fill="none" stroke="#000000" d="M 476 260 L 548 260 L 548 299 L 476 299 L 476 260 Z Z" stroke-miterlimit="10"></path></g><g transform="translate(-10,-10) scale(1,1)"><g><path fill="none" stroke="none"></path><text fill="#000000" stroke="none" font-family="Arial" font-size="13px" font-style="normal" font-weight="bold" text-decoration="none" x="498.5" y="279.5">DCB</text></g></g><g transform="translate(-10,-10) scale(1,1)"><path fill="none" stroke="#000000" d="M 513 300 L 513 620" stroke-miterlimit="10" stroke-dasharray="3"></path></g><g transform="translate(-10,-10) scale(1,1)"><rect fill="#C0C0C0" stroke="none" x="639" y="315" width="72" height="39" opacity="0.2"></rect></g><g transform="translate(-10,-10) scale(1,1)"><rect fill="#ffffff" stroke="none" x="632" y="308" width="72" height="39"></rect></g><g transform="translate(-10,-10) scale(1,1)"><path fill="none" stroke="#000000" d="M 632 308 L 704 308 L 704 347 L 632 347 L 632 308 Z Z" stroke-miterlimit="10"></path></g><g transform="translate(-10,-10) scale(1,1)"><g><path fill="none" stroke="none"></path><text fill="#000000" stroke="none" font-family="Arial" font-size="13px" font-style="normal" font-weight="bold" text-decoration="none" x="644" y="327.5">Protocol</text></g></g><g transform="translate(-10,-10) scale(1,1)"><path fill="none" stroke="#000000" d="M 669 348 L 669 624" stroke-miterlimit="10" stroke-dasharray="3"></path></g><g transform="translate(-10,-10) scale(1,1)"><path fill="#ffffff" stroke="none" d="M 448 172 L 571 172 L 581 182 L 581 235 L 448 235 L 448 172"></path></g><g transform="translate(-10,-10) scale(1,1)"><path fill="none" stroke="#000000" d="M 448 172 L 571 172 L 581 182 L 581 235 L 448 235 L 448 172 L 448 172" stroke-miterlimit="10"></path></g><g transform="translate(-10,-10) scale(1,1)"><path fill="none" stroke="#000000" d="M 571 172 L 571 182 L 581 182 L 571 172" stroke-miterlimit="10"></path></g><g transform="translate(-10,-10) scale(1,1)"><g><path fill="none" stroke="none"></path><text fill="#000000" stroke="none" font-family="Arial" font-size="13px" font-style="normal" font-weight="normal" text-decoration="none" x="453" y="190">for each</text><text fill="#000000" stroke="none" font-family="Arial" font-size="13px" font-style="normal" font-weight="normal" text-decoration="none" x="453" y="203">SERV_PROTOCOL</text></g></g><g transform="translate(-10,-10) scale(1,1)"><path fill="none" stroke="#000000" d="M 447 233.39481268011528 L 205 338.0057636887608" stroke-miterlimit="10" stroke-dasharray="3"></path></g><g transform="translate(-10,-10) scale(1,1)"><rect fill="#C0C0C0" stroke="none" x="735" y="467" width="78" height="39" opacity="0.2"></rect></g><g transform="translate(-10,-10) scale(1,1)"><rect fill="#ffffff" stroke="none" x="728" y="460" width="78" height="39"></rect></g><g transform="translate(-10,-10) scale(1,1)"><path fill="none" stroke="#000000" d="M 728 460 L 806 460 L 806 499 L 728 499 L 728 460 Z Z" stroke-miterlimit="10"></path></g><g transform="translate(-10,-10) scale(1,1)"><g><path fill="none" stroke="none"></path><text fill="#000000" stroke="none" font-family="Arial" font-size="13px" font-style="normal" font-weight="bold" text-decoration="none" x="737.5" y="479.5">SESSION</text></g></g><g transform="translate(-10,-10) scale(1,1)"><path fill="none" stroke="#000000" d="M 768 500 L 768 620" stroke-miterlimit="10" stroke-dasharray="3"></path></g><g transform="translate(-10,-10) scale(1,1)"><path fill="none" stroke="#000000" d="M 38 176 L 161.5 176" stroke-miterlimit="10"></path></g><g transform="translate(-10,-10) scale(1,1)"><path fill="#000000" stroke="none" d="M 151.33732514237585 180.209517756016 L 161.5 176 L 151.33732514237585 171.790482243984"></path></g><g transform="translate(-10,-10) scale(1,1)"><path fill="none" stroke="#000000" d="M 151.33732514237585 180.209517756016 L 161.5 176 L 151.33732514237585 171.790482243984 L 151.33732514237585 180.209517756016" stroke-miterlimit="10"></path></g><g transform="translate(-10,-10) scale(1,1)"><g><path fill="none" stroke="none"></path><text fill="#000000" stroke="none" font-family="Arial" font-size="13px" font-style="normal" font-weight="normal" text-decoration="none" x="55" y="173">1 : serviceStart</text></g></g><g transform="translate(-10,-10) scale(1,1)"><rect fill="#ffffff" stroke="none" x="161.5" y="176" width="13" height="424"></rect></g><g transform="translate(-10,-10) scale(1,1)"><path fill="none" stroke="#000000" d="M 161.5 176 L 174.5 176 L 174.5 600 L 161.5 600 L 161.5 176 Z Z" stroke-miterlimit="10"></path></g><g transform="translate(-10,-10) scale(1,1)"><path fill="none" stroke="#000000" d="M 174.5 192 L 345.5 192" stroke-miterlimit="10"></path></g><g transform="translate(-10,-10) scale(1,1)"><path fill="#000000" stroke="none" d="M 335.33732514237585 196.209517756016 L 345.5 192 L 335.33732514237585 187.790482243984"></path></g><g transform="translate(-10,-10) scale(1,1)"><path fill="none" stroke="#000000" d="M 335.33732514237585 196.209517756016 L 345.5 192 L 335.33732514237585 187.790482243984 L 335.33732514237585 196.209517756016" stroke-miterlimit="10"></path></g><g transform="translate(-10,-10) scale(1,1)"><g><path fill="none" stroke="none"></path><text fill="#000000" stroke="none" font-family="Arial" font-size="13px" font-style="normal" font-weight="normal" text-decoration="none" x="208" y="189">2 : createInstance</text></g></g><g transform="translate(-10,-10) scale(1,1)"><rect fill="#ffffff" stroke="none" x="345.5" y="192" width="13" height="28"></rect></g><g transform="translate(-10,-10) scale(1,1)"><path fill="none" stroke="#000000" d="M 345.5 192 L 358.5 192 L 358.5 220 L 345.5 220 L 345.5 192 Z Z" stroke-miterlimit="10"></path></g><g transform="translate(-10,-10) scale(1,1)"><path fill="none" stroke="#000000" d="M 174.5 264 L 204.5 264 L 204.5 284 L 181.5 284" stroke-miterlimit="10"></path></g><g transform="translate(-10,-10) scale(1,1)"><path fill="#000000" stroke="none" d="M 191.66267485762415 279.790482243984 L 181.5 284 L 191.66267485762415 288.209517756016"></path></g><g transform="translate(-10,-10) scale(1,1)"><path fill="none" stroke="#000000" d="M 191.66267485762415 279.790482243984 L 181.5 284 L 191.66267485762415 288.209517756016 L 191.66267485762415 279.790482243984" stroke-miterlimit="10"></path></g><g transform="translate(-10,-10) scale(1,1)"><g><path fill="none" stroke="none"></path><text fill="#000000" stroke="none" font-family="Arial" font-size="13px" font-style="normal" font-weight="normal" text-decoration="none" x="180" y="257">3 : serviceStartPort</text></g></g><g transform="translate(-10,-10) scale(1,1)"><rect fill="#ffffff" stroke="none" x="168.5" y="284" width="13" height="296"></rect></g><g transform="translate(-10,-10) scale(1,1)"><path fill="none" stroke="#000000" d="M 168.5 284 L 181.5 284 L 181.5 580 L 168.5 580 L 168.5 284 Z Z" stroke-miterlimit="10"></path></g><g transform="translate(-10,-10) scale(1,1)"><path fill="none" stroke="#000000" d="M 181.5 312 L 512.5 312" stroke-miterlimit="10" stroke-dasharray="3"></path></g><g transform="translate(-10,-10) scale(1,1)"><path fill="none" stroke="#000000" d="M 502.33732514237585 316.209517756016 L 512.5 312 L 502.33732514237585 307.790482243984" stroke-miterlimit="10"></path></g><g transform="translate(-10,-10) scale(1,1)"><g><path fill="none" stroke="none"></path><text fill="#000000" stroke="none" font-family="Arial" font-size="13px" font-style="normal" font-weight="normal" text-decoration="none" x="320" y="309">4 : create</text></g></g><g transform="translate(-10,-10) scale(1,1)"><g><path fill="none" stroke="none"></path><text fill="#000000" stroke="none" font-family="Arial" font-size="13px" font-style="normal" font-weight="normal" text-decoration="none" x="322" y="294">«create»</text></g></g><g transform="translate(-10,-10) scale(1,1)"><path fill="none" stroke="#000000" d="M 181.5 358 L 668.5 358" stroke-miterlimit="10" stroke-dasharray="3"></path></g><g transform="translate(-10,-10) scale(1,1)"><path fill="none" stroke="#000000" d="M 658.3373251423759 362.209517756016 L 668.5 358 L 658.3373251423758 353.790482243984" stroke-miterlimit="10"></path></g><g transform="translate(-10,-10) scale(1,1)"><g><path fill="none" stroke="none"></path><text fill="#000000" stroke="none" font-family="Arial" font-size="13px" font-style="normal" font-weight="normal" text-decoration="none" x="383" y="355">5 : loadModule</text></g></g><g transform="translate(-10,-10) scale(1,1)"><g><path fill="none" stroke="none"></path><text fill="#000000" stroke="none" font-family="Arial" font-size="13px" font-style="normal" font-weight="normal" text-decoration="none" x="400" y="340">«create»</text></g></g><g transform="translate(-10,-10) scale(1,1)"><path fill="none" stroke="#000000" d="M 181.5 392 L 505.5 392" stroke-miterlimit="10"></path></g><g transform="translate(-10,-10) scale(1,1)"><path fill="#000000" stroke="none" d="M 495.33732514237585 396.209517756016 L 505.5 392 L 495.33732514237585 387.790482243984"></path></g><g transform="translate(-10,-10) scale(1,1)"><path fill="none" stroke="#000000" d="M 495.33732514237585 396.209517756016 L 505.5 392 L 495.33732514237585 387.790482243984 L 495.33732514237585 396.209517756016" stroke-miterlimit="10"></path></g><g transform="translate(-10,-10) scale(1,1)"><g><path fill="none" stroke="none"></path><text fill="#000000" stroke="none" font-family="Arial" font-size="13px" font-style="normal" font-weight="normal" text-decoration="none" x="301" y="389">6 : setProtocol</text></g></g><g transform="translate(-10,-10) scale(1,1)"><rect fill="#ffffff" stroke="none" x="505.5" y="392" width="13" height="28"></rect></g><g transform="translate(-10,-10) scale(1,1)"><path fill="none" stroke="#000000" d="M 505.5 392 L 518.5 392 L 518.5 420 L 505.5 420 L 505.5 392 Z Z" stroke-miterlimit="10"></path></g><g transform="translate(-10,-10) scale(1,1)"><path fill="none" stroke="#000000" d="M 181.5 456 L 505.5 456" stroke-miterlimit="10"></path></g><g transform="translate(-10,-10) scale(1,1)"><path fill="none" stroke="#000000" d="M 495.33732514237585 460.209517756016 L 505.5 456 L 495.33732514237585 451.790482243984" stroke-miterlimit="10"></path></g><g transform="translate(-10,-10) scale(1,1)"><g><path fill="none" stroke="none"></path><text fill="#000000" stroke="none" font-family="Arial" font-size="13px" font-style="normal" font-weight="normal" text-decoration="none" x="318" y="453">7 : listen</text></g></g><g transform="translate(-10,-10) scale(1,1)"><rect fill="#ffffff" stroke="none" x="505.5" y="456" width="13" height="28"></rect></g><g transform="translate(-10,-10) scale(1,1)"><path fill="none" stroke="#000000" d="M 505.5 456 L 518.5 456 L 518.5 484 L 505.5 484 L 505.5 456 Z Z" stroke-miterlimit="10"></path></g><g transform="translate(-10,-10) scale(1,1)"><path fill="none" stroke="#000000" d="M 181.5 514 L 767.5 514" stroke-miterlimit="10" stroke-dasharray="3"></path></g><g transform="translate(-10,-10) scale(1,1)"><path fill="none" stroke="#000000" d="M 757.3373251423759 518.209517756016 L 767.5 514 L 757.3373251423758 509.790482243984" stroke-miterlimit="10"></path></g><g transform="translate(-10,-10) scale(1,1)"><g><path fill="none" stroke="none"></path><text fill="#000000" stroke="none" font-family="Arial" font-size="13px" font-style="normal" font-weight="normal" text-decoration="none" x="425" y="511">8 : session_alloc</text></g></g><g transform="translate(-10,-10) scale(1,1)"><g><path fill="none" stroke="none"></path><text fill="#000000" stroke="none" font-family="Arial" font-size="13px" font-style="normal" font-weight="normal" text-decoration="none" x="449" y="496">«create»</text></g></g><g transform="translate(-10,-10) scale(1,1)"><path fill="none" stroke="#000000" d="M 181.5 549 L 760.5 549" stroke-miterlimit="10"></path></g><g transform="translate(-10,-10) scale(1,1)"><path fill="#000000" stroke="none" d="M 750.3373251423759 553.209517756016 L 760.5 549 L 750.3373251423758 544.790482243984"></path></g><g transform="translate(-10,-10) scale(1,1)"><path fill="none" stroke="#000000" d="M 750.3373251423759 553.209517756016 L 760.5 549 L 750.3373251423758 544.790482243984 L 750.3373251423759 553.209517756016" stroke-miterlimit="10"></path></g><g transform="translate(-10,-10) scale(1,1)"><g><path fill="none" stroke="none"></path><text fill="#000000" stroke="none" font-family="Arial" font-size="13px" font-style="normal" font-weight="normal" text-decoration="none" x="399" y="546">9 : setState(LISTENING)</text></g></g><g transform="translate(-10,-10) scale(1,1)"><rect fill="#ffffff" stroke="none" x="760.5" y="549" width="13" height="28"></rect></g><g transform="translate(-10,-10) scale(1,1)"><path fill="none" stroke="#000000" d="M 760.5 549 L 773.5 549 L 773.5 577 L 760.5 577 L 760.5 549 Z Z" stroke-miterlimit="10"></path></g></g></svg>