<svg version="1.1" xmlns="http://www.w3.org/2000/svg" xmlns:xlink="http://www.w3.org/1999/xlink" width="832" height="596"><defs></defs><g><g transform="translate(-10,-10) scale(1,1)"><path fill="none" stroke="#000000" d="M 20 20 L 832 20 L 832 596 L 20 596 L 20 20" stroke-miterlimit="10"></path></g><g transform="translate(-10,-10) scale(1,1)"><path fill="#ffffff" stroke="none" d="M 20 20 L 20 42 L 163 42 L 174 31 L 174 20 L 20 20"></path></g><g transform="translate(-10,-10) scale(1,1)"><path fill="none" stroke="#000000" d="M 20 20 L 20 42 L 163 42 L 174 31 L 174 20 L 20 20 L 20 20" stroke-miterlimit="10"></path></g><g transform="translate(-10,-10) scale(1,1)"><g><path fill="none" stroke="none"></path><text fill="#000000" stroke="none" font-family="Arial" font-size="13px" font-style="normal" font-weight="normal" text-decoration="none" x="69" y="37.5">Session Creation</text></g></g><g transform="translate(-10,-10) scale(1,1)"><g><path fill="none" stroke="none"></path><text fill="#000000" stroke="none" font-family="Arial" font-size="13px" font-style="normal" font-weight="bold" text-decoration="none" x="19" y="37.5">interaction</text></g></g><g transform="translate(-10,-10) scale(1,1)"><rect fill="#ffffff" stroke="none" x="36" y="136.5" width="14" height="14"></rect></g><g transform="translate(-10,-10) scale(1,1)"><path fill="none" stroke="#000000" d="M 36 136.5 L 50 136.5 L 50 150.5 L 36 150.5 L 36 136.5 Z Z" stroke-miterlimit="10"></path></g><g transform="translate(-10,-10) scale(1,1)"><rect fill="#C0C0C0" stroke="none" x="159" y="83" width="92" height="39" opacity="0.2"></rect></g><g transform="translate(-10,-10) scale(1,1)"><rect fill="#ffffff" stroke="none" x="152" y="76" width="92" height="39"></rect></g><g transform="translate(-10,-10) scale(1,1)"><path fill="none" stroke="#000000" d="M 152 76 L 244 76 L 244 115 L 152 115 L 152 76 Z Z" stroke-miterlimit="10"></path></g><g transform="translate(-10,-10) scale(1,1)"><g><path fill="none" stroke="none"></path><text fill="#000000" stroke="none" font-family="Arial" font-size="13px" font-style="normal" font-weight="bold" text-decoration="none" x="162" y="95.5">PROTOCOL</text></g></g><g transform="translate(-10,-10) scale(1,1)"><path fill="none" stroke="#000000" d="M 199 116 L 199 552" stroke-miterlimit="10" stroke-dasharray="3"></path></g><g transform="translate(-10,-10) scale(1,1)"><rect fill="#C0C0C0" stroke="none" x="327" y="119" width="78" height="39" opacity="0.2"></rect></g><g transform="translate(-10,-10) scale(1,1)"><rect fill="#ffffff" stroke="none" x="320" y="112" width="78" height="39"></rect></g><g transform="translate(-10,-10) scale(1,1)"><path fill="none" stroke="#000000" d="M 320 112 L 398 112 L 398 151 L 320 151 L 320 112 Z Z" stroke-miterlimit="10"></path></g><g transform="translate(-10,-10) scale(1,1)"><g><path fill="none" stroke="none"></path><text fill="#000000" stroke="none" font-family="Arial" font-size="13px" font-style="normal" font-weight="bold" text-decoration="none" x="329.5" y="131.5">SESSION</text></g></g><g transform="translate(-10,-10) scale(1,1)"><path fill="none" stroke="#000000" d="M 360 152 L 360 556" stroke-miterlimit="10" stroke-dasharray="3"></path></g><g transform="translate(-10,-10) scale(1,1)"><rect fill="#C0C0C0" stroke="none" x="463" y="95" width="72" height="39" opacity="0.2"></rect></g><g transform="translate(-10,-10) scale(1,1)"><rect fill="#ffffff" stroke="none" x="456" y="88" width="72" height="39"></rect></g><g transform="translate(-10,-10) scale(1,1)"><path fill="none" stroke="#000000" d="M 456 88 L 528 88 L 528 127 L 456 127 L 456 88 Z Z" stroke-miterlimit="10"></path></g><g transform="translate(-10,-10) scale(1,1)"><g><path fill="none" stroke="none"></path><text fill="#000000" stroke="none" font-family="Arial" font-size="13px" font-style="normal" font-weight="bold" text-decoration="none" x="473" y="107.5">Router</text></g></g><g transform="translate(-10,-10) scale(1,1)"><path fill="none" stroke="#000000" d="M 493 128 L 493 572" stroke-miterlimit="10" stroke-dasharray="3"></path></g><g transform="translate(-10,-10) scale(1,1)"><rect fill="#C0C0C0" stroke="none" x="599" y="95" width="72" height="39" opacity="0.2"></rect></g><g transform="translate(-10,-10) scale(1,1)"><rect fill="#ffffff" stroke="none" x="592" y="88" width="72" height="39"></rect></g><g transform="translate(-10,-10) scale(1,1)"><path fill="none" stroke="#000000" d="M 592 88 L 664 88 L 664 127 L 592 127 L 592 88 Z Z" stroke-miterlimit="10"></path></g><g transform="translate(-10,-10) scale(1,1)"><g><path fill="none" stroke="none"></path><text fill="#000000" stroke="none" font-family="Arial" font-size="13px" font-style="normal" font-weight="bold" text-decoration="none" x="610" y="107.5">Filter1</text></g></g><g transform="translate(-10,-10) scale(1,1)"><path fill="none" stroke="#000000" d="M 629 128 L 629 572" stroke-miterlimit="10" stroke-dasharray="3"></path></g><g transform="translate(-10,-10) scale(1,1)"><rect fill="#C0C0C0" stroke="none" x="715" y="95" width="72" height="39" opacity="0.2"></rect></g><g transform="translate(-10,-10) scale(1,1)"><rect fill="#ffffff" stroke="none" x="708" y="88" width="72" height="39"></rect></g><g transform="translate(-10,-10) scale(1,1)"><path fill="none" stroke="#000000" d="M 708 88 L 780 88 L 780 127 L 708 127 L 708 88 Z Z" stroke-miterlimit="10"></path></g><g transform="translate(-10,-10) scale(1,1)"><g><path fill="none" stroke="none"></path><text fill="#000000" stroke="none" font-family="Arial" font-size="13px" font-style="normal" font-weight="bold" text-decoration="none" x="726" y="107.5">Filter2</text></g></g><g transform="translate(-10,-10) scale(1,1)"><path fill="none" stroke="#000000" d="M 745 128 L 745 572" stroke-miterlimit="10" stroke-dasharray="3"></path></g><g transform="translate(-10,-10) scale(1,1)"><path fill="none" stroke="#000000" d="M 50 144 L 191.5 144" stroke-miterlimit="10"></path></g><g transform="translate(-10,-10) scale(1,1)"><path fill="#000000" stroke="none" d="M 181.33732514237585 148.209517756016 L 191.5 144 L 181.33732514237585 139.790482243984"></path></g><g transform="translate(-10,-10) scale(1,1)"><path fill="none" stroke="#000000" d="M 181.33732514237585 148.209517756016 L 191.5 144 L 181.33732514237585 139.790482243984 L 181.33732514237585 148.209517756016" stroke-miterlimit="10"></path></g><g transform="translate(-10,-10) scale(1,1)"><g><path fill="none" stroke="none"></path><text fill="#000000" stroke="none" font-family="Arial" font-size="13px" font-style="normal" font-weight="normal" text-decoration="none" x="86" y="141">1 : Auth OK</text></g></g><g transform="translate(-10,-10) scale(1,1)"><rect fill="#ffffff" stroke="none" x="191.5" y="144" width="13" height="376"></rect></g><g transform="translate(-10,-10) scale(1,1)"><path fill="none" stroke="#000000" d="M 191.5 144 L 204.5 144 L 204.5 520 L 191.5 520 L 191.5 144 Z Z" stroke-miterlimit="10"></path></g><g transform="translate(-10,-10) scale(1,1)"><path fill="none" stroke="#000000" d="M 204.5 175 L 359.5 175" stroke-miterlimit="10" stroke-dasharray="3"></path></g><g transform="translate(-10,-10) scale(1,1)"><path fill="none" stroke="#000000" d="M 349.33732514237585 179.209517756016 L 359.5 175 L 349.33732514237585 170.790482243984" stroke-miterlimit="10"></path></g><g transform="translate(-10,-10) scale(1,1)"><g><path fill="none" stroke="none"></path><text fill="#000000" stroke="none" font-family="Arial" font-size="13px" font-style="normal" font-weight="normal" text-decoration="none" x="233" y="172">2 : session_alloc</text></g></g><g transform="translate(-10,-10) scale(1,1)"><g><path fill="none" stroke="none"></path><text fill="#000000" stroke="none" font-family="Arial" font-size="13px" font-style="normal" font-weight="normal" text-decoration="none" x="257" y="157">«create»</text></g></g><g transform="translate(-10,-10) scale(1,1)"><path fill="none" stroke="#000000" d="M 359.5 188 L 485.5 188" stroke-miterlimit="10"></path></g><g transform="translate(-10,-10) scale(1,1)"><path fill="#000000" stroke="none" d="M 475.33732514237585 192.209517756016 L 485.5 188 L 475.33732514237585 183.790482243984"></path></g><g transform="translate(-10,-10) scale(1,1)"><path fill="none" stroke="#000000" d="M 475.33732514237585 192.209517756016 L 485.5 188 L 475.33732514237585 183.790482243984 L 475.33732514237585 192.209517756016" stroke-miterlimit="10"></path></g><g transform="translate(-10,-10) scale(1,1)"><g><path fill="none" stroke="none"></path><text fill="#000000" stroke="none" font-family="Arial" font-size="13px" font-style="normal" font-weight="normal" text-decoration="none" x="371" y="185">3 : createSession</text></g></g><g transform="translate(-10,-10) scale(1,1)"><rect fill="#ffffff" stroke="none" x="485.5" y="188" width="13" height="28"></rect></g><g transform="translate(-10,-10) scale(1,1)"><path fill="none" stroke="#000000" d="M 485.5 188 L 498.5 188 L 498.5 216 L 485.5 216 L 485.5 188 Z Z" stroke-miterlimit="10"></path></g><g transform="translate(-10,-10) scale(1,1)"><path fill="none" stroke="#000000" d="M 359.5 224 L 389.5 224 L 389.5 244 L 365.5 244" stroke-miterlimit="10"></path></g><g transform="translate(-10,-10) scale(1,1)"><path fill="#000000" stroke="none" d="M 375.66267485762415 239.790482243984 L 365.5 244 L 375.66267485762415 248.209517756016"></path></g><g transform="translate(-10,-10) scale(1,1)"><path fill="none" stroke="#000000" d="M 375.66267485762415 239.790482243984 L 365.5 244 L 375.66267485762415 248.209517756016 L 375.66267485762415 239.790482243984" stroke-miterlimit="10"></path></g><g transform="translate(-10,-10) scale(1,1)"><g><path fill="none" stroke="none"></path><text fill="#000000" stroke="none" font-family="Arial" font-size="13px" font-style="normal" font-weight="normal" text-decoration="none" x="319" y="221">4 : session_setup_filters</text></g></g><g transform="translate(-10,-10) scale(1,1)"><rect fill="#ffffff" stroke="none" x="352.5" y="244" width="13" height="180"></rect></g><g transform="translate(-10,-10) scale(1,1)"><path fill="none" stroke="#000000" d="M 352.5 244 L 365.5 244 L 365.5 424 L 352.5 424 L 352.5 244 Z Z" stroke-miterlimit="10"></path></g><g transform="translate(-10,-10) scale(1,1)"><path fill="none" stroke="#000000" d="M 365.5 273 L 621.5 273" stroke-miterlimit="10"></path></g><g transform="translate(-10,-10) scale(1,1)"><path fill="#000000" stroke="none" d="M 611.3373251423759 277.209517756016 L 621.5 273 L 611.3373251423758 268.790482243984"></path></g><g transform="translate(-10,-10) scale(1,1)"><path fill="none" stroke="#000000" d="M 611.3373251423759 277.209517756016 L 621.5 273 L 611.3373251423758 268.790482243984 L 611.3373251423759 277.209517756016" stroke-miterlimit="10"></path></g><g transform="translate(-10,-10) scale(1,1)"><g><path fill="none" stroke="none"></path><text fill="#000000" stroke="none" font-family="Arial" font-size="13px" font-style="normal" font-weight="normal" text-decoration="none" x="455" y="270">5 : filterApply</text></g></g><g transform="translate(-10,-10) scale(1,1)"><rect fill="#ffffff" stroke="none" x="621.5" y="273" width="13" height="28"></rect></g><g transform="translate(-10,-10) scale(1,1)"><path fill="none" stroke="#000000" d="M 621.5 273 L 634.5 273 L 634.5 301 L 621.5 301 L 621.5 273 Z Z" stroke-miterlimit="10"></path></g><g transform="translate(-10,-10) scale(1,1)"><path fill="none" stroke="#000000" d="M 365.5 317 L 737.5 317" stroke-miterlimit="10"></path></g><g transform="translate(-10,-10) scale(1,1)"><path fill="#000000" stroke="none" d="M 727.3373251423759 321.209517756016 L 737.5 317 L 727.3373251423758 312.790482243984"></path></g><g transform="translate(-10,-10) scale(1,1)"><path fill="none" stroke="#000000" d="M 727.3373251423759 321.209517756016 L 737.5 317 L 727.3373251423758 312.790482243984 L 727.3373251423759 321.209517756016" stroke-miterlimit="10"></path></g><g transform="translate(-10,-10) scale(1,1)"><g><path fill="none" stroke="none"></path><text fill="#000000" stroke="none" font-family="Arial" font-size="13px" font-style="normal" font-weight="normal" text-decoration="none" x="513" y="314">6 : filterApply</text></g></g><g transform="translate(-10,-10) scale(1,1)"><rect fill="#ffffff" stroke="none" x="737.5" y="317" width="13" height="28"></rect></g><g transform="translate(-10,-10) scale(1,1)"><path fill="none" stroke="#000000" d="M 737.5 317 L 750.5 317 L 750.5 345 L 737.5 345 L 737.5 317 Z Z" stroke-miterlimit="10"></path></g><g transform="translate(-10,-10) scale(1,1)"><path fill="none" stroke="#000000" d="M 365.5 368 L 621.5 368" stroke-miterlimit="10"></path></g><g transform="translate(-10,-10) scale(1,1)"><path fill="#000000" stroke="none" d="M 611.3373251423759 372.209517756016 L 621.5 368 L 611.3373251423758 363.790482243984"></path></g><g transform="translate(-10,-10) scale(1,1)"><path fill="none" stroke="#000000" d="M 611.3373251423759 372.209517756016 L 621.5 368 L 611.3373251423758 363.790482243984 L 611.3373251423759 372.209517756016" stroke-miterlimit="10"></path></g><g transform="translate(-10,-10) scale(1,1)"><g><path fill="none" stroke="none"></path><text fill="#000000" stroke="none" font-family="Arial" font-size="13px" font-style="normal" font-weight="normal" text-decoration="none" x="443" y="365">7 : filterUpstream</text></g></g><g transform="translate(-10,-10) scale(1,1)"><rect fill="#ffffff" stroke="none" x="621.5" y="368" width="13" height="28"></rect></g><g transform="translate(-10,-10) scale(1,1)"><path fill="none" stroke="#000000" d="M 621.5 368 L 634.5 368 L 634.5 396 L 621.5 396 L 621.5 368 Z Z" stroke-miterlimit="10"></path></g><g transform="translate(-10,-10) scale(1,1)"><path fill="none" stroke="#000000" d="M 359.5 452 L 389.5 452 L 389.5 472 L 365.5 472" stroke-miterlimit="10"></path></g><g transform="translate(-10,-10) scale(1,1)"><path fill="#000000" stroke="none" d="M 375.66267485762415 467.790482243984 L 365.5 472 L 375.66267485762415 476.209517756016"></path></g><g transform="translate(-10,-10) scale(1,1)"><path fill="none" stroke="#000000" d="M 375.66267485762415 467.790482243984 L 365.5 472 L 375.66267485762415 476.209517756016 L 375.66267485762415 467.790482243984" stroke-miterlimit="10"></path></g><g transform="translate(-10,-10) scale(1,1)"><g><path fill="none" stroke="none"></path><text fill="#000000" stroke="none" font-family="Arial" font-size="13px" font-style="normal" font-weight="normal" text-decoration="none" x="368" y="445">8 : SetSessionReady</text></g></g><g transform="translate(-10,-10) scale(1,1)"><rect fill="#ffffff" stroke="none" x="352.5" y="472" width="13" height="28"></rect></g><g transform="translate(-10,-10) scale(1,1)"><path fill="none" stroke="#000000" d="M 352.5 472 L 365.5 472 L 365.5 500 L 352.5 500 L 352.5 472 Z Z" stroke-miterlimit="10"></path></g></g></svg>